<svg width="140" height="130" viewBox="0 0 140 130" xmlns="http://www.w3.org/2000/svg" xmlns:xlink="http://www.w3.org/1999/xlink"><title>bank-and-financial</title><defs><path id="a" d="M0 .175h131.14V107H0"/></defs><g fill="none" fill-rule="evenodd"><path d="M122.145 38.166H19.755c-.125 0-.252-.127-.252-.38 0 0 0 .126 0 0l51.575-21.162h.126L122.4 37.28c.125.252.125.38.125.506-.126.253-.253.38-.38.38zm-12.037 5.576v60.318h-5.07V43.235h5.197c-.127.127-.127.253-.127.507zm-10.14 0v60.318H94.9V43.235h5.07v.507zm-10.136 0v60.318H50.55l-.002-59.558c0-.507-.126-.887-.253-1.267h39.537v.507zm-44.35.76l-.002 59.558h-5.069l.002-60.318v-.507h5.45c-.256.38-.382.76-.382 1.267zm-10.14-.76v60.318h-5.069V43.235h5.07v.507zm89.338-11.278l-51.83-20.91c-.758-.38-1.518-.38-1.9-.38-.76 0-1.394.254-1.773.38L17.22 32.718c-2.406 1.014-3.546 3.802-3.04 5.956.633 3.548 3.421 4.562 4.943 4.562h6.083v60.825h-5.83c-1.52 0-2.662 1.014-2.662 2.535 0 1.52 1.268 2.534 2.662 2.534h102.516c1.52 0 2.662-1.015 2.662-2.535 0-1.52-1.267-2.535-2.662-2.535h-5.448V43.742c0-.127 0-.254-.127-.507h6.336c2.914 0 4.56-2.66 4.94-4.562.508-2.028-.38-5.07-2.913-6.21z" fill="#105E7D"/><path d="M74.88 81.25c0 2.282-2.028 3.423-4.183 3.423-2.534 0-4.562-1.14-5.83-2.028-.886-.633-1.646-.507-2.28.38l-.887 1.267c-.633.888-.507 1.774.254 2.282 1.267.886 3.548 2.407 6.842 2.787v2.283c0 .886.507 1.393 1.648 1.393h.253c1.014 0 1.52-.633 1.52-1.647v-2.03c4.943-.632 7.73-4.18 7.73-8.235 0-8.998-13.685-8.237-13.685-13.053 0-2.027 1.9-3.42 4.31-3.42 2.026 0 3.8.886 4.814 1.52 1.014.506 1.774.38 2.28-.507l.635-1.394c.508-.886.38-1.773-.506-2.28-1.14-.76-3.042-1.774-5.83-2.028v-2.28c0-.888-.506-1.395-1.52-1.395h-.254c-1.14 0-1.647.507-1.647 1.648v2.154c-4.435.76-7.603 3.927-7.603 8.11.253 8.616 13.94 8.236 13.94 13.05" fill="#105E7D"/><g transform="translate(5 11)"><mask id="b" fill="#fff"><use xlink:href="#a"/></mask><path d="M128.607 101.93H2.662c-1.394 0-2.663 1.015-2.663 2.536C0 105.986 1.267 107 2.66 107h125.82c1.518 0 2.66-1.014 2.66-2.534 0-1.52-1.014-2.535-2.535-2.535" fill="#105E7D" mask="url(#b)"/></g></g></svg>