<svg width="140" height="130" viewBox="0 0 140 130" xmlns="http://www.w3.org/2000/svg"><title>colleges-and-universities</title><path d="M71.017 67.716l-9.573-3.693h-.002l-.63-.244-45.015-17.363L71.015 27.17l55.69 19.247-55.688 21.3zm-.442 20.206c-2.443 0-4.96-.14-7.492-.35l-.027-17.547 7.054 2.72c.29.113.597.17.904.17.303 0 .61-.055.896-.166l31.227-11.944v21.697c-4.278 1.536-17.43 5.42-32.562 5.42zM55.45 93.495c-.95-1.055-2.78-1.055-3.73 0l-2.632 2.923V64.643l8.943 3.445.042 28.32-2.62-2.913zm-11.384-9.333c-2.756-.774-4.82-1.486-6.053-1.95V60.366l6.053 2.337v21.46zm90.803-40.237L71.832 22.137c-.535-.184-1.114-.182-1.646.002L7.684 43.925c-.994.346-1.666 1.277-1.684 2.33-.016 1.054.625 2.007 1.607 2.384l25.383 9.79v25.35c0 1.42 1.39 2.32 2.61 2.915 1.615.722 4.23 1.587 8.466 2.68v13.587c0 1.04.642 1.97 1.61 2.345.974.374 2.072.108 2.768-.664l5.14-5.712 5.14 5.713c.486.54 1.17.83 1.868.83.302 0 .607-.053.9-.166.972-.374 1.612-1.31 1.61-2.347l-.015-10.35c2.527.2 5.04.335 7.485.335 10.33 0 19.51-1.702 25.394-3.13 12.19-2.96 12.19-4.02 12.19-5.63V58.888l26.788-10.244-.075-4.718z" fill="#105E7D" fill-rule="evenodd"/></svg>