<svg width="60" height="30" viewBox="0 0 60 30" xmlns="http://www.w3.org/2000/svg"><title>connect</title><g fill="#FFF" fill-rule="evenodd"><path d="M45 30c8.284 0 15-6.716 15-15 0-8.284-6.716-15-15-15-8.284 0-15 6.716-15 15 0 8.284 6.716 15 15 15zm3.96-20.657H46.87c-.414 0-.833.433-.833.753v2.147h2.922c-.117 1.646-.36 3.152-.36 3.152H46.02v9.33h-3.842v-9.33h-1.87v-3.14h1.87V9.686c0-.47-.095-3.613 3.937-3.613h2.846v3.27zM15 30c8.284 0 15-6.716 15-15 0-8.284-6.716-15-15-15C6.716 0 0 6.716 0 15c0 8.284 6.716 15 15 15zm8.012-8.017c0 .62-.516 1.122-1.152 1.122H8.57c-.636 0-1.152-.503-1.152-1.122V8.573c0-.62.516-1.122 1.153-1.122h13.29c.636 0 1.152.503 1.152 1.123v13.41z"/><path d="M17.927 13.32c-1.25 0-1.81.687-2.123 1.168v.023h-.015l.014-.022v-1.002H13.45c.03.663 0 7.068 0 7.068h2.354v-3.948c0-.21.016-.42.08-.572.17-.423.556-.86 1.207-.86.853 0 1.194.648 1.194 1.6v3.78h2.355V16.5c0-2.17-1.163-3.18-2.713-3.18M9.79 20.554h2.356v-7.068H9.79v7.068zM10.983 10.08c-.806 0-1.333.526-1.333 1.22 0 .68.512 1.22 1.302 1.22h.016c.82 0 1.332-.54 1.332-1.22-.016-.694-.51-1.22-1.317-1.22"/></g></svg>