<svg id="footer-logo" xmlns="http://www.w3.org/2000/svg" viewBox="0 0 240 120"><defs><style>.cls-1{fill:none;}.cls-2{fill:#fff;}</style></defs><title>assets</title><path class="cls-1" d="M0 0h240v120H0z"/><path class="cls-2" d="M45.5 90.6c-4.7 0-8.3-3.9-8.3-8.8s3.5-8.9 8.4-8.9a8.2 8.2 0 0 1 6.4 2.7l-1.8 2.2a6.3 6.3 0 0 0-4.5-2.1c-3.1 0-5.4 2.7-5.4 6.1s2.3 6.1 5.4 6.1a6.2 6.2 0 0 0 4.7-2.2l1.8 2a8.2 8.2 0 0 1-6.7 2.9zM57.9 83.1v7.2H55V73.2h2.9v7.1h7.8v-7.1h2.9v17.1h-2.9v-7.2h-7.8zM88.2 90.3h-3l-1.6-4.1h-7.7l-1.7 4.1h-2.9L78.4 73H81zm-8.5-13.7l-2.8 6.9h5.6zM101.4 90.3l-4-6h-3.5v6H91V73.2h7.2c3.7 0 6 2.1 6 5.4a5.1 5.1 0 0 1-3.9 5.2l4.4 6.5h-3.4zM98 75.9h-4.1v5.8H98c2 0 3.3-1.1 3.3-2.9s-1.2-2.9-3.3-2.9zM113.9 90.3h-6.1V73.2h6.1a8.6 8.6 0 1 1 0 17.1zm0-14.4h-3.2v11.7h3.2a5.5 5.5 0 0 0 5.6-5.8c0-3.4-2.2-5.9-5.6-5.9zM125.1 87.8l1.1-1.4a7.5 7.5 0 0 0 5.6 2.4c2.2 0 3.6-1.2 3.6-2.9 0-1.6-.8-2.5-4.2-3.3s-5.5-2.1-5.5-5c0-2.7 2.3-4.7 5.3-4.7a8.2 8.2 0 0 1 5.7 2.1l-1.1 1.5a6.9 6.9 0 0 0-4.7-1.9c-2.1 0-3.5 1.2-3.5 2.8 0 1.6.8 2.5 4.4 3.3s5.3 2.2 5.3 4.9c0 2.9-2.3 4.9-5.5 4.9a9.2 9.2 0 0 1-6.5-2.7zM141 73.2h1.7L153 86.9V73.2h1.8v17.1h-1.5l-10.5-14v14H141V73.2zM164.4 83.5l-6.8-10.4h2.2l5.5 8.6 5.5-8.6h2.2l-6.8 10.3v6.8h-1.9v-6.7zM175.1 73.2h5.6a8.3 8.3 0 0 1 8.6 8.5 8.3 8.3 0 0 1-8.6 8.6h-5.6V73.2zm5.6 15.4a6.5 6.5 0 0 0 6.7-6.7 6.5 6.5 0 0 0-6.7-6.8h-3.8v13.4h3.8zM192.3 73.2H204V75h-9.9v5.9h8.9v1.8h-8.9v6h10v1.8h-11.8V73.2zM207.4 73.2h7a6.2 6.2 0 0 1 4.6 1.7 4.9 4.9 0 0 1 1.3 3.4c0 2.8-1.9 4.5-4.4 5l5 7h-2.3l-4.7-6.7h-4.6v6.7h-1.8V73.2zm6.8 8.8c2.4 0 4.2-1.3 4.2-3.5 0-2.1-1.5-3.4-4.2-3.4h-5v7h5zM47 16.3l17.8 9.4A248.9 248.9 0 0 1 86.2 7.2a110 110 0 0 1-23 4.7 102.9 102.9 0 0 1-21.2-.6A95.2 95.2 0 0 1 40.8 34c-2.6 16.4-11.1 35-11.1 35S38 53.9 54.4 36.2c2.5-2.6 4.9-5.1 7.3-7.5z"/><path class="cls-2" d="M84.5 29.6A143.1 143.1 0 0 1 87.9 9s-9 7.5-20.4 18.9l11.6 16.4L64.4 31c-2.7 2.8-5.5 5.8-8.4 8.9a321.7 321.7 0 0 0-23.3 28.9c-2.7 3.6-9.9 13.9-11.8 25.6-6.8 2.8-10.1 6.1-11.8 10l1.4 1.7c1.7-3.7 4.2-7.2 10.2-9.9-.1.9-.2 1.5-.2 2.3a14.5 14.5 0 0 0 5.4 12.1 10.3 10.3 0 0 0 6.3 2.2l2.1-.2c4.2-1 7-4.7 6.9-9.5s-2.8-8.5-9.2-9.9a16.7 16.7 0 0 0-7.5.2l-.6 1.6a15.5 15.5 0 0 1 8-.8c5.7 1.2 8 4.5 8.1 8.7s-2.3 7.4-6.1 7.9-5.3-.2-6.9-1.5l-.7-.6-.9-.8c-7-7.6-1.7-20.5 1.2-26.4l.5-.9a59.4 59.4 0 0 1 8.5-12s17.8-20.5 49-19.3a173.1 173.1 0 0 1-.1-19.7zM135 99.8h3.8a1.7 1.7 0 0 1 1.2.3 2 2 0 0 1 .5 1.7 1.4 1.4 0 0 1-1.1 1.6c.8.2 1.1.6 1.1 1.8s-.2 1.6-.5 1.8a1.6 1.6 0 0 1-1.2.3H135v-7.5zm3.6 3.3a.9.9 0 0 0 .7-.2 1.5 1.5 0 0 0 .3-1.1 1.5 1.5 0 0 0-.2-1.1l-.7-.2h-2.8v2.6h2.8zm.8.9a.9.9 0 0 0-.7-.2h-2.9v2.9h2.9l.7-.2a3.2 3.2 0 0 0 0-2.5zM142.8 104.8c0 1.3.1 1.6.3 1.8a.9.9 0 0 0 .7.2h1.4l.6-.2a1.2 1.2 0 0 0 .2-.9h.8a1.9 1.9 0 0 1-.4 1.5 1.3 1.3 0 0 1-1.1.3h-1.7a1.5 1.5 0 0 1-1.2-.3c-.4-.4-.5-.8-.5-2.6s.1-2.2.5-2.6a1.5 1.5 0 0 1 1.2-.3h1.5a1.6 1.6 0 0 1 1.2.3c.4.4.5.8.5 2.5v.2h-4zm0-.6h3.2c0-1.2-.1-1.5-.3-1.7a.9.9 0 0 0-.7-.2h-1.3a.9.9 0 0 0-.7.2c-.1.2-.2.4-.2 1.7zM148.5 107.5v-5.8h.8v.8a2.3 2.3 0 0 1 1.7-.8h.8a1.3 1.3 0 0 1 1 .3 1.6 1.6 0 0 1 .3 1.2v4.4h-.8v-4.3a.8.8 0 0 0-.2-.6.8.8 0 0 0-.7-.2h-.8a2.4 2.4 0 0 0-1.4.5v4.6h-.8zM155.6 104.8c0 1.3.1 1.6.3 1.8a.9.9 0 0 0 .7.2h1.4l.6-.2a1.2 1.2 0 0 0 .2-.9h.8a1.9 1.9 0 0 1-.4 1.5 1.3 1.3 0 0 1-1.1.3h-1.7a1.5 1.5 0 0 1-1.2-.3c-.4-.4-.5-.8-.5-2.6s.1-2.2.5-2.6a1.5 1.5 0 0 1 1.2-.3h1.5a1.6 1.6 0 0 1 1.2.3c.4.4.5.8.5 2.5v.2h-4zm0-.6h3.2c0-1.2-.1-1.5-.3-1.7a.9.9 0 0 0-.7-.2h-1.3a.9.9 0 0 0-.7.2c-.1.2-.2.4-.2 1.7zM161.6 107.5v-5.1h-1v-.7h1v-.4a1.7 1.7 0 0 1 .3-1.3 1.1 1.1 0 0 1 .9-.3h.9v.7h-1.2a1.1 1.1 0 0 0-.1.8v.4h1.3v.7h-1.3v5.1h-.8zm4.3-6.9h-1v-1h1v1zm-.1 6.9h-.8v-5.8h.8v5.8zM170.4 107.3h-1.3a1.1 1.1 0 0 1-.9-.3 1.2 1.2 0 0 1-.3-.9v-4h-1v-.7h1v-1.5h.8v1.5h1.6v.7h-1.6v3.8a.6.6 0 0 0 .1.5h1.5v.5zM179.3 107.1a1.4 1.4 0 0 1-1.1.3h-2.6a1.4 1.4 0 0 1-1.1-.3c-.3-.3-.4-.6-.4-2h.8c0 1.1.1 1.3.2 1.4l.6.2h2.3l.6-.2a1.8 1.8 0 0 0 .2-1.2 1.4 1.4 0 0 0-.2-1.1l-.7-.2-2.4-.2a1.7 1.7 0 0 1-1.1-.4 2 2 0 0 1-.4-1.6 2.2 2.2 0 0 1 .4-1.7 1.4 1.4 0 0 1 1.1-.3h2.4a1.4 1.4 0 0 1 1.1.3c.3.3.4.6.4 1.9h-.8a2.1 2.1 0 0 0-.2-1.3l-.6-.2h-2.1l-.6.2a1.9 1.9 0 0 0-.2 1.1 1.3 1.3 0 0 0 .2 1l.7.2 2.4.2a1.7 1.7 0 0 1 1.1.4 2.1 2.1 0 0 1 .4 1.7 2.2 2.2 0 0 1-.4 1.8zM181.8 107.1c-.4-.4-.5-.8-.5-2.6s.1-2.2.5-2.6a1.5 1.5 0 0 1 1.2-.3h1.5a1.5 1.5 0 0 1 1.2.3c.4.4.5.8.5 2.6s-.1 2.2-.5 2.6a1.5 1.5 0 0 1-1.2.3H183a1.5 1.5 0 0 1-1.2-.3zm.6-.6l.7.2h1.3l.7-.2c.2-.2.3-.5.3-2s-.1-1.9-.3-2a.9.9 0 0 0-.7-.2H183a.9.9 0 0 0-.7.2c-.2.2-.3.5-.3 2s.2 1.9.3 2.1zM188.2 107.5v-7.9h.7v7.8h-.7zM195.6 101.6v5.8h-.8v-.8a2.3 2.3 0 0 1-1.7.8h-.8a1.2 1.2 0 0 1-1-.3 1.5 1.5 0 0 1-.3-1.2v-4.4h.8v4.3a.8.8 0 0 0 .2.6.8.8 0 0 0 .7.2h.8a2.4 2.4 0 0 0 1.4-.5v-4.6h.8zM200.2 107.3h-1.3a1.1 1.1 0 0 1-.9-.3 1.2 1.2 0 0 1-.3-.9v-4h-1v-.7h1v-1.5h.8v1.5h1.6v.7h-1.6v3.8a.6.6 0 0 0 .1.5h1.5v.5zM202.4 100.5h-1v-1h1v1zm-.1 6.9h-.8v-5.8h.8v5.8zM204.5 107.1c-.4-.4-.5-.8-.5-2.6s.1-2.2.5-2.6a1.5 1.5 0 0 1 1.2-.3h1.5a1.5 1.5 0 0 1 1.2.3c.4.4.5.8.5 2.6s-.1 2.2-.5 2.6a1.5 1.5 0 0 1-1.2.3h-1.5a1.5 1.5 0 0 1-1.2-.3zm.6-.6l.7.2h1.3l.7-.2c.2-.2.3-.5.3-2s-.1-1.9-.3-2a.9.9 0 0 0-.7-.2h-1.3a.9.9 0 0 0-.7.2c-.2.2-.3.5-.3 2s.1 1.9.2 2.1zM210.5 107.5v-5.8h.8v.8a2.3 2.3 0 0 1 1.7-.8h.8a1.3 1.3 0 0 1 1 .3 1.6 1.6 0 0 1 .3 1.2v4.4h-.8v-4.3a.8.8 0 0 0-.2-.6.8.8 0 0 0-.7-.2h-.8a2.4 2.4 0 0 0-1.4.5v4.6h-.8zM221 107.2a1.1 1.1 0 0 1-.9.3H218a1.3 1.3 0 0 1-.9-.3c-.3-.3-.3-.5-.3-1.5h.7a1.4 1.4 0 0 0 .2 1h2.8a1 1 0 0 0 .2-.8 1 1 0 0 0-.1-.7l-.6-.2-1.9-.2a1.4 1.4 0 0 1-.9-.3 1.6 1.6 0 0 1-.3-1.3 1.8 1.8 0 0 1 .4-1.3 1.1 1.1 0 0 1 .9-.3h2a1.2 1.2 0 0 1 .9.3 1.9 1.9 0 0 1 .3 1.5h-.7a1.3 1.3 0 0 0-.2-.9h-2.6a1 1 0 0 0-.2.8.9.9 0 0 0 .1.7l.6.2 1.9.2a1.4 1.4 0 0 1 .9.3 1.7 1.7 0 0 1 .3 1.3 1.8 1.8 0 0 1-.5 1.2zM224.2 73.8h-1.3v-.5h3.1v.4h-1.3v3.5h-.5v-3.4zm2.7-.4h.5l1.6 2.4 1.6-2.4h.4v4h-.5v-3.3l-1.5 2.3h-.1l-1.5-2.3v3.2h-.5v-4z"/><path class="cls-1" d="M-25-15h290v150H-25z"/></svg>