<svg width="140" height="130" viewBox="0 0 140 130" xmlns="http://www.w3.org/2000/svg" xmlns:xlink="http://www.w3.org/1999/xlink"><title>government</title><defs><path id="a" d="M0 .383h100.8V113H0V.383z"/></defs><g transform="translate(19 4)" fill="none" fill-rule="evenodd"><mask id="b" fill="#fff"><use xlink:href="#a"/></mask><path d="M96 65H81.6v-9.6H96V65zm0 43.2h-4.8V74.6h-4.8v33.6h-4.8V74.6h-4.8v33.6H72V74.6h-4.8v33.6h-4.8V74.6h-4.8v33.6h-4.8V74.6H48v33.6h-4.8V74.6h-4.8v33.6h-4.8V74.6h-4.8v33.6H24V74.6h-4.8v33.6h-4.8V74.6H9.6v33.6H4.8V69.8H96v38.4zM4.8 55.4h14.4V65H4.8v-9.6zm38.4-9.6h14.4V65H43.2V45.8zm-19.2 0h14.4V65H24V45.8zM76.8 65H62.4V45.8h14.4V65zm4.8-14.4V41H52.8V23.893c8.002 1.065 15.998-8.496 24-2.093V2.6c-9.6-7.68-19.2 7.68-28.8 0V41H19.2v9.6H0V113h100.8V50.6H81.6z" fill="#105E7D" mask="url(#b)"/></g></svg>