<svg width="80" height="40" viewBox="0 0 80 40" xmlns="http://www.w3.org/2000/svg"><title>icons-small</title><g fill="none" fill-rule="evenodd"><g transform="translate(40)"><circle fill="#27B1E6" cx="20" cy="20" r="20"/><path d="M25 11h-9l-4 4v11c0 .552.448 1 1 1h12c.552 0 1-.448 1-1V12c0-.552-.448-1-1-1zm-9 1.5V15h-2.5l2.5-2.5zM25 26H13V16h3c.552 0 1-.448 1-1v-3h8v14z" fill="#FFF"/><path d="M15 20h8v-1h-8v1zM17 18h6v-1h-6v1zM23 15h-4v1h4v-1zM15 22h8v-1h-8v1zM15 24h8v-1h-8v1z" fill="#FFF"/></g><circle fill="#27B1E6" cx="20" cy="20" r="20"/><path d="M18.6 27.1c-.006.187.12.353.3.4h2.3c.203-.038.362-.197.4-.4v-2.4h-3v2.4zM20.1 10.5c-1.432-.027-2.816.517-3.848 1.51-1.03.995-1.626 2.358-1.652 3.79v.6c-.004.126.052.246.15.325.098.08.228.107.35.075H17c.22 0 .4-.18.4-.4v-.7c.054-1.452 1.247-2.6 2.7-2.6s2.646 1.148 2.7 2.6c-.017.938-.558 1.787-1.4 2.2-.858.383-1.613.966-2.2 1.7-.277.394-.48.834-.6 1.3-.08.117-.115.26-.1.4v2.5c0 .3.2.3.4.3h2c.3 0 .6 0 .6-.3v-1.1c-.016-.652.197-1.288.6-1.8l.6-.6.4-.2c1.523-.902 2.47-2.53 2.5-4.3 0-1.44-.585-2.82-1.622-3.82-1.038-1-2.438-1.534-3.878-1.48z" fill="#FFF"/></g></svg>