<svg id="industries" xmlns="http://www.w3.org/2000/svg" viewBox="0 0 700 130"><defs><style>.cls-1{fill:none;}.cls-2{fill:#105e7d;}</style></defs><title>assets</title><path class="cls-1" d="M0 0h700v130H0z"/><path class="cls-2" d="M133.8 45.2l-63-21.8a2.5 2.5 0 0 0-1.6 0L6.6 45.2a2.5 2.5 0 0 0-.1 4.7l25.4 9.8V85c0 1.4 1.4 2.3 2.6 2.9a57.1 57.1 0 0 0 8.5 2.7v13.6a2.5 2.5 0 0 0 4.4 1.7l5.1-5.7 5.1 5.7a2.5 2.5 0 0 0 1.9.8l.9-.2a2.5 2.5 0 0 0 1.6-2.3V93.9c2.5.2 5 .3 7.5.3a109.9 109.9 0 0 0 25.4-3.1c12.2-3 12.2-4 12.2-5.6V60.1l26.8-10.2v-4.7zM43 85.4c-2.8-.8-4.8-1.5-6.1-1.9V61.6L43 64v21.4zm11.4 9.3a2.6 2.6 0 0 0-3.7 0l-2.7 3V65.9l8.9 3.4v28.4zm15.1-5.6c-2.4 0-5-.1-7.5-.4V71.3l7 2.7.9.2.9-.2L102 62.1v21.7a104.7 104.7 0 0 1-32.5 5.4zm.4-20.1l-9.6-3.7-.6-.3-45-17.4 55.2-19.2 55.7 19.2zM256.4 47.2a15.1 15.1 0 1 0-18.3 14.7 3.4 3.4 0 0 0-.1.7v29.6a21.7 21.7 0 1 1-43.4 0v-4.4c12.2-1.7 25.1-11.8 25.1-20.6V30.8a17.1 17.1 0 0 0-10.4-15.7 7.1 7.1 0 1 0-1.6 6.9 10.2 10.2 0 0 1 5.1 8.8v36.5c0 4.9-11.5 14-21.7 14s-21.7-9.1-21.7-14V30.8a10.2 10.2 0 0 1 5.1-8.8 7.1 7.1 0 1 0-1.6-6.9 17.1 17.1 0 0 0-10.3 15.7v36.5c0 8.7 12.9 18.9 25 20.6v4.3a28.5 28.5 0 1 0 57.1 0V62.7a3.4 3.4 0 0 0-.1-.8 15.1 15.1 0 0 0 11.8-14.7zm-15.1 8.2a8.2 8.2 0 1 1 8.2-8.2 8.3 8.3 0 0 1-8.2 8.2zM403.7 33.3l-51.9-20.9a4.1 4.1 0 0 0-1.9-.4 5.3 5.3 0 0 0-1.8.4l-52 21.2a5.4 5.4 0 0 0-3 6 5.2 5.2 0 0 0 4.9 4.6h6.1V105h-5.8a2.5 2.5 0 0 0-2.7 2.5 2.6 2.6 0 0 0 2.7 2.5h102.6a2.5 2.5 0 0 0 2.7-2.5 2.6 2.6 0 0 0-2.7-2.5h-5.4V44.6a1 1 0 0 0-.1-.5h6.3c2.9 0 4.6-2.7 4.9-4.6a5.6 5.6 0 0 0-2.9-6.2zm-89.4 11.3v60.3h-5.1V44.1h5.1v.5zm10.1.8V105h-5.1V44.1h5.4a2.1 2.1 0 0 0-.2 1.2zm44.4-.8v60.3h-39.3V45.3a3.7 3.7 0 0 0-.3-1.3h39.5v.5zm10.1 0v60.3h-5.1V44.1h5.1v.5zm10.1 0v60.3h-5V44.1h5.2a.6.6 0 0 0-.1.5zm12-5.6H298.7a.3.3 0 0 1-.3-.4L350 17.4h.1l51.2 20.7a1 1 0 0 1 .1.5.5.5 0 0 1-.3.4z"/><path class="cls-2" d="M353.9 82.1c0 2.3-2 3.4-4.2 3.4a10.2 10.2 0 0 1-5.8-2 1.4 1.4 0 0 0-2.3.4l-.9 1.3a1.5 1.5 0 0 0 .3 2.3 14.6 14.6 0 0 0 6.8 2.8v2.3c0 .9.5 1.4 1.6 1.4h.3a1.4 1.4 0 0 0 1.5-1.6v-2c4.9-.6 7.7-4.2 7.7-8.2 0-9-13.7-8.2-13.7-13.1 0-2 1.9-3.4 4.3-3.4a9.4 9.4 0 0 1 4.8 1.5c1 .5 1.8.4 2.3-.5l.6-1.4a1.5 1.5 0 0 0-.5-2.3 12.3 12.3 0 0 0-5.8-2v-2.5a1.3 1.3 0 0 0-1.5-1.4h-.3a1.4 1.4 0 0 0-1.6 1.6v2.2c-4.4.8-7.6 3.9-7.6 8.1.3 8.6 14 8.3 14 13.1zM412.6 113.8h-126a2.5 2.5 0 1 0 0 5.1h125.9a2.5 2.5 0 0 0 2.7-2.5 2.4 2.4 0 0 0-2.6-2.6zM521 55.7v-9.6h-28.8V29c8 1.1 16-8.5 24-2.1V7.7c-9.6-7.7-19.2 7.7-28.8 0v38.4h-28.8v9.6h-19.2v62.4h100.8V55.7H521zm-4.8 14.4h-14.4V50.9h14.4v19.2zm-52.8-19.2h14.4v19.2h-14.4V50.9zm19.2 0H497v19.2h-14.4V50.9zm-38.4 9.6h14.4v9.6h-14.4v-9.6zm91.2 52.8h-4.8V79.7h-4.8v33.6H521V79.7h-4.8v33.6h-4.8V79.7h-4.8v33.6h-4.8V79.7H497v33.6h-4.8V79.7h-4.8v33.6h-4.8V79.7h-4.8v33.6H473V79.7h-4.8v33.6h-4.8V79.7h-4.8v33.6h-4.8V79.7H449v33.6h-4.8V74.9h91.2v38.4zm0-43.2H521v-9.6h14.4v9.6zM646.2 50.7V33.6L606 54.8h-1v-7.5h-7.5V22.9H590v24.4h-7.5v7.5h-9.4v54.3h112.4V32zm31.8 50.9h-97.3V62.3h27.1L638.7 46v16.6L678 43.9v57.7zm-86.1-9.4h7.5V75.4h-7.5v16.8zm22.5 0h7.5V75.4h-7.5v16.8zm22.5 0h7.5V75.4h-7.5v16.8zm30-16.8h-7.5v16.8h7.5V75.4z"/></svg>