<svg width="290" height="150" viewBox="0 0 290 150" xmlns="http://www.w3.org/2000/svg" xmlns:xlink="http://www.w3.org/1999/xlink"><title>logo</title><defs><path id="a" d="M0 .115h276.558V132H0V.115z"/><path id="c" d="M0 .115h276.558V132H0"/><path id="e" d="M0 .115h276.558V132H0V.115z"/></defs><g transform="translate(7 9)" fill="none" fill-rule="evenodd"><path d="M45.395 104.278c-5.9 0-10.295-4.865-10.295-11.046 0-6.12 4.31-11.107 10.44-11.107 3.73 0 5.987 1.377 7.924 3.335l-2.285 2.785c-1.62-1.59-3.355-2.662-5.668-2.662-3.876 0-6.68 3.366-6.68 7.59 0 4.22 2.804 7.647 6.68 7.647 2.487 0 4.077-1.07 5.812-2.784l2.284 2.45c-2.11 2.323-4.424 3.792-8.213 3.792M60.896 94.885v9.026H57.34V82.494h3.556v8.903h9.66v-8.903h3.556v21.418h-3.556v-9.025h-9.66zM88.08 86.837l-3.47 8.568h6.97l-3.5-8.568zm10.614 17.074h-3.76l-2.053-5.17h-9.57l-2.083 5.17h-3.645l8.908-21.57h3.297l8.907 21.57zM110.898 85.92h-5.177v7.19h5.207c2.545 0 4.164-1.407 4.164-3.61 0-2.357-1.56-3.58-4.192-3.58zm4.25 17.99l-4.974-7.465h-4.453v7.466h-3.556V82.493h9.023c4.656 0 7.52 2.602 7.52 6.794 0 3.55-1.997 5.69-4.83 6.516l5.465 8.11h-4.193zM130.62 85.92h-3.99v14.565h3.99c4.252 0 7.028-3.03 7.028-7.253 0-4.222-2.776-7.312-7.027-7.312m0 17.99h-7.547V82.493h7.548c6.363 0 10.76 4.62 10.76 10.68 0 6.057-4.397 10.74-10.76 10.74M144.617 100.79l1.417-1.774c2.11 2.02 4.136 3.028 6.94 3.028 2.72 0 4.513-1.53 4.513-3.64v-.062c0-1.99-1.012-3.12-5.264-4.07-4.656-1.07-6.796-2.662-6.796-6.18v-.06c0-3.367 2.805-5.845 6.652-5.845 2.948 0 5.06.887 7.113 2.63l-1.33 1.868c-1.88-1.622-3.76-2.326-5.842-2.326-2.63 0-4.308 1.53-4.308 3.457v.06c0 2.02 1.04 3.152 5.494 4.162 4.512 1.04 6.594 2.784 6.594 6.057v.062c0 3.67-2.892 6.057-6.912 6.057-3.21 0-5.842-1.132-8.27-3.427M164.456 82.493h2.14l12.754 17.165V82.493h2.226v21.418h-1.822l-13.07-17.562v17.563h-2.228V82.494zM193.636 95.436l-8.416-12.943h2.776l6.826 10.71 6.883-10.71h2.66l-8.416 12.912v8.506h-2.314v-8.474zM213.913 101.677c5.12 0 8.387-3.672 8.387-8.414v-.06c0-4.744-3.268-8.477-8.387-8.477h-4.742v16.95h4.743zm-7.027-19.184h7.027c6.363 0 10.76 4.62 10.76 10.648v.062c0 6.028-4.397 10.71-10.76 10.71h-7.027V82.49zM228.378 82.493h14.634v2.203h-12.35v7.312h11.048v2.203h-11.047v7.498h12.493v2.203h-14.778V82.494zM255.695 93.416c3.037 0 5.206-1.652 5.206-4.406v-.06c0-2.633-1.908-4.224-5.176-4.224h-6.247v8.69h6.218zm-8.503-10.923h8.705c2.488 0 4.483.795 5.756 2.14.982 1.04 1.56 2.54 1.56 4.224v.06c0 3.55-2.312 5.632-5.494 6.243l6.217 8.75h-2.805l-5.87-8.322h-5.785v8.323h-2.285V82.494z" fill="#061922"/><mask id="b" fill="#fff"><use xlink:href="#a"/></mask><path d="M47.37 11.488l22.16 11.75C84.473 8.847 96.185.114 96.185.114s-14.18 4.747-28.678 5.87c-14.48 1.124-26.373-.708-26.373-.708s1.21 11.637-1.486 28.36c-3.29 20.394-13.877 43.68-13.877 43.68S36.054 58.47 56.578 36.404c3.073-3.304 6.113-6.428 9.062-9.36L47.37 11.49z" fill="#7FB942" mask="url(#b)"/><mask id="d" fill="#fff"><use xlink:href="#c"/></mask><path d="M94.02 28.066c.744-11.418 4.23-25.64 4.23-25.64s-11.21 9.318-25.444 23.556l14.53 20.426L68.96 29.874c-3.395 3.48-6.912 7.2-10.45 11.11-13.945 15.405-24.104 29.06-29.07 36.058-3.41 4.472-12.382 17.412-14.744 31.9C6.273 112.4 2.074 116.502 0 121.382l1.778 2.125c2.176-4.663 5.22-8.946 12.764-12.33-.137 1.08-.227 1.84-.274 2.92-.264 6.02 2.18 11.35 6.754 15.132 2.33 1.92 5.323 2.743 7.895 2.77.857.01 1.718-.087 2.578-.295 5.29-1.27 8.66-5.917 8.59-11.836-.07-5.777-3.55-10.672-11.405-12.36-3.106-.668-6.265-.447-9.31.29l-.892 1.946c3.25-1.05 6.648-1.66 9.927-.954 7.15 1.535 9.995 5.596 10.058 10.852.063 5.284-2.868 9.193-7.63 9.85-3.94.544-6.657-.23-8.59-1.827-.312-.257-.612-.518-.905-.785-.402-.32-.77-.65-1.123-.99-8.667-9.5-2.148-25.62 1.537-32.903.198-.384.393-.77.595-1.148l.004-.007c3.404-6.33 7.46-11.615 10.615-14.99l-.002.002s22.242-25.634 61.1-24.066c-.13-2.156-.767-13.632-.043-24.714" fill="#04B2BE" mask="url(#d)"/><path d="M162.464 121.034c-.162-.164-.366-.23-.868-.23h-3.553v3.56h3.567c.474 0 .705-.042.868-.192.15-.15.312-.422.312-1.576 0-1.073-.15-1.386-.326-1.562zm-.95-1.14c.503 0 .706-.07.868-.218.164-.164.313-.45.313-1.4 0-.924-.136-1.222-.3-1.386-.148-.15-.378-.19-.867-.19h-3.485v3.193h3.472zm-4.542-4.117h4.747c.704 0 1.15.108 1.463.394.393.367.583.843.583 2.12 0 1.345-.474 1.807-1.315 2.05v.015c1.03.204 1.41.747 1.41 2.228 0 1.52-.243 1.942-.61 2.282-.298.3-.8.42-1.477.42h-4.8v-9.508zM166.725 121.17h4.014c-.015-1.494-.123-1.86-.34-2.065-.15-.15-.34-.218-.868-.218h-1.614c-.516 0-.705.055-.88.232-.205.203-.3.528-.313 2.05zm0 .8c.013 1.66.122 2.025.325 2.23.163.163.352.203.868.203h1.804c.447 0 .637-.055.786-.204.163-.163.23-.395.244-1.142h.977c-.028 1.114-.15 1.494-.503 1.847-.27.273-.624.38-1.315.38h-2.09c-.745 0-1.165-.094-1.477-.407-.462-.462-.624-1.046-.624-3.233 0-2.173.163-2.758.625-3.22.312-.31.732-.407 1.478-.407h1.817c.733 0 1.18.11 1.465.394.46.475.624 1.06.624 3.165v.232c0 .107-.042.16-.164.16h-4.84zM173.78 125.286v-7.268h1.002v.964c.95-.774 1.288-.977 2.062-.977h1.058c.677 0 .99.122 1.26.38.272.285.38.68.38 1.453v5.448h-1.003v-5.38c0-.42-.055-.638-.218-.8-.15-.15-.285-.205-.815-.205h-.948c-.612 0-1.02.164-1.778.653v5.733h-1.003zM182.595 121.17h4.015c-.014-1.494-.123-1.86-.34-2.065-.15-.15-.34-.218-.868-.218h-1.614c-.515 0-.704.055-.88.232-.205.203-.3.528-.313 2.05zm0 .8c.014 1.66.122 2.025.325 2.23.164.163.353.203.868.203h1.804c.448 0 .637-.055.787-.204.162-.163.23-.395.243-1.142h.976c-.028 1.114-.15 1.494-.503 1.847-.27.273-.623.38-1.315.38h-2.088c-.746 0-1.167-.094-1.478-.407-.462-.462-.624-1.046-.624-3.233 0-2.173.162-2.758.624-3.22.31-.31.732-.407 1.478-.407h1.817c.733 0 1.18.11 1.466.394.46.475.623 1.06.623 3.165v.232c0 .107-.04.16-.163.16h-4.842z" fill="#939598"/><mask id="f" fill="#fff"><use xlink:href="#e"/></mask><path d="M195.358 125.286h-1.003v-7.268h1.003v7.268zm.095-8.613h-1.193v-1.304h1.193v1.303zm-5.316 8.613v-6.4h-1.247v-.868h1.247v-.53c0-.896.122-1.345.394-1.603.258-.257.53-.38 1.126-.38h1.112v.856h-.922c-.326 0-.434.055-.53.15-.12.122-.175.353-.175.95v.558h1.642v.87h-1.627v6.398h-1.018zM201.097 125.07l-.637.16c-.258.056-.597.11-.977.11-.475 0-.813-.08-1.07-.34-.245-.244-.313-.556-.313-1.14v-4.973h-1.248v-.87h1.248v-1.82h1.017v1.82h1.994v.87h-1.993v4.742c0 .38.04.54.15.637.08.095.23.15.637.15h1.193v.652zM212.192 124.865c-.27.272-.665.42-1.384.42h-3.24c-.706 0-1.1-.094-1.384-.393-.366-.367-.5-.747-.515-2.473h1.043c.027 1.33.095 1.575.258 1.738.137.136.313.204.76.204h2.916c.447 0 .637-.054.787-.217.176-.177.257-.557.257-1.468 0-.883-.04-1.127-.244-1.33-.15-.137-.325-.204-.84-.245l-2.97-.272c-.746-.068-1.14-.217-1.398-.475-.34-.34-.447-.775-.447-1.997 0-1.168.136-1.753.557-2.16.258-.272.665-.42 1.37-.42h2.943c.704 0 1.11.093 1.397.392.38.38.487.775.515 2.406h-1.058c-.014-1.224-.08-1.495-.245-1.672-.15-.135-.326-.203-.76-.203h-2.63c-.448 0-.625.055-.788.218-.176.19-.243.61-.243 1.426 0 .856.053 1.087.242 1.277.15.15.326.19.842.232l2.97.272c.718.068 1.125.216 1.383.475.34.34.46.8.46 2.064 0 1.263-.148 1.807-.555 2.2M215.95 124.186c.164.15.367.203.882.203h1.68c.517 0 .72-.055.87-.204.216-.218.34-.57.34-2.54 0-1.957-.124-2.31-.34-2.527-.15-.165-.353-.206-.87-.206h-1.68c-.515 0-.718.04-.882.205-.217.216-.325.57-.325 2.525 0 1.97.108 2.323.325 2.54m-.704.693c-.462-.462-.625-1.045-.625-3.233 0-2.174.164-2.758.626-3.22.31-.312.732-.407 1.478-.407h1.898c.733 0 1.167.095 1.465.407.475.462.637 1.046.637 3.22 0 2.188-.162 2.77-.637 3.233-.298.313-.732.408-1.465.408h-1.898c-.746 0-1.167-.095-1.478-.408" fill="#939598" mask="url(#f)"/><path d="M223.28 115.504h.91v9.782h-.91v-9.782z" fill="#9D9FA2" mask="url(#f)"/><path d="M232.436 118.018v7.268h-1.004v-.98c-.963.79-1.315.993-2.074.993H228.3c-.678 0-.99-.122-1.248-.394-.285-.273-.394-.667-.394-1.44v-5.448h1.004v5.38c0 .407.054.64.217.788.15.15.297.217.827.217h.95c.595 0 1.002-.15 1.775-.653v-5.732h1.004zM238.16 125.07l-.637.16c-.258.056-.597.11-.976.11-.475 0-.814-.08-1.072-.34-.244-.244-.312-.556-.312-1.14v-4.973h-1.247v-.87h1.247v-1.82h1.018v1.82h1.994v.87h-1.993v4.742c0 .38.042.54.15.637.08.095.23.15.637.15h1.194v.652zM240.86 125.286h-1.003v-7.268h1.003v7.268zm.095-8.613h-1.194v-1.304h1.195v1.303zM244.25 124.186c.164.15.367.203.883.203h1.68c.517 0 .72-.055.87-.204.216-.218.34-.57.34-2.54 0-1.957-.124-2.31-.34-2.527-.15-.165-.353-.206-.87-.206h-1.68c-.516 0-.72.04-.882.205-.216.216-.324.57-.324 2.525 0 1.97.108 2.323.325 2.54m-.704.693c-.46-.462-.624-1.045-.624-3.233 0-2.174.163-2.758.624-3.22.312-.312.733-.407 1.48-.407h1.897c.732 0 1.166.095 1.465.407.475.462.637 1.046.637 3.22 0 2.188-.162 2.77-.637 3.233-.3.313-.733.408-1.465.408h-1.898c-.746 0-1.167-.095-1.48-.408M251.102 125.286v-7.268h1.003v.964c.95-.774 1.29-.977 2.062-.977h1.058c.678 0 .99.122 1.26.38.272.285.38.68.38 1.453v5.448h-1.003v-5.38c0-.42-.054-.638-.217-.8-.15-.15-.285-.205-.814-.205h-.948c-.61 0-1.017.164-1.777.653v5.733h-1.003zM264.177 124.96c-.23.23-.542.326-1.07.326h-2.66c-.556 0-.95-.108-1.152-.313-.312-.312-.407-.61-.42-1.888h.922c.027.883.08 1.06.217 1.195.095.096.23.164.61.164h2.25c.327 0 .476-.055.598-.177.11-.11.203-.285.203-.98 0-.623-.068-.813-.176-.908-.096-.11-.23-.178-.692-.205l-2.306-.23c-.665-.068-.962-.164-1.166-.368-.27-.27-.367-.624-.367-1.562 0-.91.15-1.372.447-1.67.23-.23.53-.327 1.07-.327h2.51c.584 0 .91.11 1.113.313.284.286.406.625.42 1.834h-.923c-.026-.856-.095-1.018-.216-1.14-.094-.095-.244-.163-.61-.163h-2.075c-.298 0-.46.054-.57.163-.12.123-.216.312-.216.938 0 .585.04.76.16.87.11.123.232.177.707.217l2.332.23c.664.055.962.164 1.152.355.27.27.353.692.353 1.603 0 .99-.136 1.412-.448 1.725" fill="#939598" mask="url(#f)"/><path d="M271.504 82.687h.597l1.94 2.96 1.936-2.96h.582v4.98h-.565V83.69l-1.922 2.878h-.08l-1.92-2.88v3.98h-.566v-4.98zm-3.325.55h-1.632v-.55h3.826v.55h-1.63v4.43h-.565v-4.43z" fill="#231F1F" mask="url(#f)"/></g></svg>