<svg width="120" height="120" viewBox="0 0 120 120" xmlns="http://www.w3.org/2000/svg"><title>quote</title><g fill="none" fill-rule="evenodd"><circle fill="#FFF" cx="60" cy="60" r="60"/><g fill="#29B0BD"><path d="M36.113 56.16c.708 4.628 4.736 7.927 9.31 8.14-1.144 4.15-3.92 5.798-7.296 6.756-.326.106-.272.426-.272.426l.544 3.298s.054.266.49.213c11.65-1.277 19.545-9.95 18.075-20.483-1.36-7.288-7.186-10.108-12.576-9.363-5.392.85-9.094 5.745-8.277 11.012M73.298 64.3c-1.088 4.15-3.974 5.798-7.295 6.756-.327.106-.272.426-.272.426l.49 3.298s.055.266.49.213c11.706-1.277 19.492-9.95 18.13-20.483-1.415-7.288-7.295-10.108-12.63-9.363-5.39.85-9.093 5.745-8.222 11.012.708 4.68 4.683 7.98 9.31 8.14"/></g></g></svg>