<svg width="70" height="70" viewBox="0 0 70 70" xmlns="http://www.w3.org/2000/svg"><title>search</title><path d="M44.398 41.2l-3.7-3.6c.716-1.21 1.096-2.592 1.1-4 .08-3.414-1.913-6.538-5.045-7.9-3.13-1.365-6.776-.696-9.22 1.69-2.444 2.385-3.2 6.013-1.913 9.177 1.288 3.163 4.362 5.232 7.778 5.233 1.67.005 3.305-.48 4.7-1.4l3.6 3.5c.764.7 1.936.7 2.7 0 .36-.357.563-.843.563-1.35 0-.507-.202-.993-.562-1.35zm-16.8-7.6c-.04-2.354 1.346-4.5 3.51-5.43 2.164-.928 4.675-.457 6.354 1.193 1.68 1.65 2.195 4.153 1.303 6.333-.89 2.18-3.012 3.604-5.367 3.604-1.53.027-3.005-.562-4.095-1.633-1.09-1.072-1.705-2.538-1.705-4.067z" fill="#FFF" fill-rule="evenodd"/></svg>