<svg id="support-center" xmlns="http://www.w3.org/2000/svg" viewBox="0 0 100 100"><defs><style>.cls-1{fill:none;}.cls-2{fill:#fff;}</style></defs><title>assets</title><path class="cls-1" d="M0 0h100v100H0z"/><path class="cls-2" d="M91.6 5.6a2.8 2.8 0 0 1 2.8 2.8v65.4a2.8 2.8 0 0 1-2.8 2.8H47l-.9.9-16.7 16.7V76.6h-21a2.8 2.8 0 0 1-2.8-2.8V8.4a2.8 2.8 0 0 1 2.8-2.8h83.2m0-3.1H8.4a5.9 5.9 0 0 0-5.9 5.9v65.4a5.9 5.9 0 0 0 5.9 5.9h17.8v14.8a2.8 2.8 0 0 0 .1.6v.6l.2.5.4.4.6.4.5.2h2l.6-.2.7-.5 17-16.8h43.3a5.9 5.9 0 0 0 5.9-5.9V8.4a5.9 5.9 0 0 0-5.9-5.9z"/><path class="cls-2" d="M46.3 61.2a1 1 0 0 0 .7 1.1h5.6a1.3 1.3 0 0 0 1-1.1v-6.1h-7.3v6.1zM50 18.8a13.5 13.5 0 0 0-13.5 13.4v1.4a1.1 1.1 0 0 0 1.2 1.1h4.6a1 1 0 0 0 1.1-1.1v-1.3a6.8 6.8 0 0 1 6.6-6.8 6.7 6.7 0 0 1 6.8 6.6 6.5 6.5 0 0 1-3.3 5.7c-.4.2-3.9 1.9-5.4 4.4a10.5 10.5 0 0 0-1.5 3.3 1.7 1.7 0 0 0-.2 1V53c0 .8.4.7 1 .7h4.8c.7 0 1.4.1 1.4-.8V50a7.4 7.4 0 0 1 1.4-4.6 11.6 11.6 0 0 1 1.5-1.6l1-.6a13.2 13.2 0 0 0 6.2-11.1A13.4 13.4 0 0 0 50 18.8z"/></svg>