<svg width="250" height="50" viewBox="0 0 250 50" xmlns="http://www.w3.org/2000/svg"><title>support-category-icons</title><g fill="none" fill-rule="evenodd"><circle fill="#27B1E6" cx="25" cy="25" r="25"/><circle fill="#27B1E6" cx="75" cy="25" r="25"/><circle fill="#27B1E6" cx="125" cy="25" r="25"/><circle fill="#27B1E6" cx="175" cy="25" r="25"/><circle fill="#27B1E6" cx="225" cy="25" r="25"/><path d="M238.9 19.2c-1.293-1.39-3.102-2.186-5-2.2-1.755-.007-3.443.676-4.7 1.9h-.4l-1.8-.2h-.2c-.42-.573-1.09-.908-1.8-.9-.71-.008-1.38.327-1.8.9h-.2l-1.8.2h-.4c-1.257-1.224-2.945-1.907-4.7-1.9-1.898.014-3.707.81-5 2.2-2.77 2.99-2.77 7.61 0 10.6 1.272 1.365 3.043 2.156 4.908 2.194 1.865.037 3.666-.682 4.992-1.994.943-.907 1.633-2.044 2-3.3.472-.63 1.213-1 2-1 .787 0 1.528.37 2 1 .367 1.256 1.057 2.393 2 3.3 1.326 1.312 3.127 2.03 4.992 1.994 1.865-.038 3.636-.83 4.908-2.194 2.77-2.99 2.77-7.61 0-10.6zm-22.7 11.1c-3.11-.11-5.556-2.69-5.5-5.8 0-3.065 2.485-5.55 5.55-5.55s5.55 2.485 5.55 5.55c.027 1.512-.548 2.972-1.6 4.06-1.05 1.088-2.488 1.714-4 1.74zm17.7 0c-3.11-.11-5.556-2.69-5.5-5.8 0-3.065 2.485-5.55 5.55-5.55s5.55 2.485 5.55 5.55c.027 1.512-.548 2.972-1.6 4.06-1.05 1.088-2.488 1.714-4 1.74zM179.2 12.2h-9c-1.657 0-3 1.343-3 3v20c0 1.657 1.343 3 3 3h9c1.657 0 3-1.343 3-3v-20c0-.796-.316-1.56-.88-2.12-.56-.564-1.324-.88-2.12-.88zm-4.5 25c-.552 0-1-.448-1-1s.448-1 1-1 1 .448 1 1-.448 1-1 1zm6.5-3h-13v-19h13v19z" fill="#FFF"/><g fill="#FFF"><path d="M131.9 15h-10.3l-4.6 4.7v13.1c-.002.626.477 1.148 1.1 1.2h13.7c.623-.052 1.102-.574 1.1-1.2V16.2c.008-.592-.416-1.1-1-1.2zm-9.9 2v3h-3l3-3zm10 16h-14V21h3.6c.652.067 1.252-.36 1.4-1v-4h9v17z"/><path d="M120 25h10v-1h-10v1zM130 21h-5v1h5v-1zM120 28h10v-1h-10v1zM120 31h10v-1h-10v1z"/></g><g fill="#FFF"><path d="M24.1 32.6c-.006.187.12.353.3.4h2.3c.203-.038.362-.197.4-.4v-2.4h-3v2.4zM25.6 15.9c-1.432-.027-2.816.517-3.848 1.51-1.03.995-1.626 2.358-1.652 3.79v.6c-.004.126.052.246.15.325.098.08.228.107.35.075h1.9c.22 0 .4-.18.4-.4v-.6c.054-1.452 1.247-2.6 2.7-2.6s2.646 1.148 2.7 2.6c.003.916-.496 1.76-1.3 2.2-.858.383-1.613.966-2.2 1.7-.277.394-.48.834-.6 1.3-.08.117-.115.26-.1.4v2.5c0 .3.2.3.4.3h2c.3 0 .6 0 .6-.3v-1.1c-.016-.652.197-1.288.6-1.8l.6-.6.4-.2c1.523-.902 2.47-2.53 2.5-4.3.03-1.476-.557-2.9-1.62-3.924-1.063-1.025-2.506-1.56-3.98-1.476z"/></g><path d="M70 33V16l14 8.5L70 33z" stroke="#FFF" stroke-width="1.8"/></g></svg>