<svg id="wben" xmlns="http://www.w3.org/2000/svg" viewBox="0 0 115 50"><defs><style>.cls-1{fill:none;}.cls-2{fill:#fff;}</style></defs><title>assets</title><path class="cls-1" d="M0 0h115v50H0z"/><path class="cls-2" d="M35.4 5.8v-.6a.3.3 0 0 0-.3-.4h-.4a5.6 5.6 0 0 0-3-.9 4.5 4.5 0 0 0-3.4 1.5A5.4 5.4 0 0 0 27 9.1a4.5 4.5 0 0 0 1 3.5 4.3 4.3 0 0 0 3.2 1.2 6.1 6.1 0 0 0 3-.8l.4-.3v-1a2.3 2.3 0 0 0 .1-.5.4.4 0 0 0-.1-.3h.3a.6.6 0 0 0-.4.5 2.5 2.5 0 0 1-1.1 1.3 3.4 3.4 0 0 1-1.9.6 2.8 2.8 0 0 1-2.4-1.2 4.8 4.8 0 0 1-.9-3 4.6 4.6 0 0 1 1-3 3.1 3.1 0 0 1 2.5-1.2 3.5 3.5 0 0 1 2.2.8 2.7 2.7 0 0 1 1 1.5.4.4 0 0 0 .4.4c.1 0 .3 0 .3-.4V5.8zM41.9 10.3a1.9 1.9 0 0 0 1.2-1.6 1.1 1.1 0 0 0-.4-.9 1.5 1.5 0 0 0-1-.3 2.8 2.8 0 0 0-2.2 1.3 4.4 4.4 0 0 0-1 2.7 2.2 2.2 0 0 0 .5 1.6 1.9 1.9 0 0 0 1.5.6 3 3 0 0 0 1.9-.7 1.1 1.1 0 0 0 .6-.7.2.2 0 0 0-.2-.3l-.3.2a1.7 1.7 0 0 1-1.3.5 1.4 1.4 0 0 1-1.1-.5 1.6 1.6 0 0 1-.4-1.1v-.3a4.6 4.6 0 0 0 2.2-.5zm-1.5-1.4a1.5 1.5 0 0 1 1.1-.7.5.5 0 0 1 .5.5 1.3 1.3 0 0 1-.7 1.1 2.9 2.9 0 0 1-1.6.5 3.4 3.4 0 0 1 .7-1.4zM50.1 7.8h-.5a2 2 0 0 0-1.5 1.1c-.2-.8-.5-1.2-.8-1.2l-.5.2-.4.4a2 2 0 0 0-.4 1.2c0 .4.1.5.3.5a.3.3 0 0 0 .3-.4 1.1 1.1 0 0 1 .1-.6l.3-.1a.2.2 0 0 1 .2.2 1.8 1.8 0 0 1 .1.7 4.6 4.6 0 0 1 0 .5l-.5 2.7c0 .1.1.4.5.4a.5.5 0 0 0 .5-.4l.3-1.7a12.4 12.4 0 0 1 .5-2.2.8.8 0 0 1 .4-.6.4.4 0 0 1 .3.3.3.3 0 0 0 .3.2.4.4 0 0 0 .4-.1v-.7a.4.4 0 0 0 .1-.4zM56.2 7.8h-1.1v-.9a.3.3 0 0 0-.1-.3l-.3.2a3.1 3.1 0 0 1-1.1 1.1.6.6 0 0 0-.4.4.3.3 0 0 0 .3.3h.5v.3l-.3 2.6a6.2 6.2 0 0 0 0 .7 1.8 1.8 0 0 0 .3 1 .9.9 0 0 0 .7.4 2.1 2.1 0 0 0 1.2-.5 1.4 1.4 0 0 0 .7-1c0-.2-.3-.4-.6-.1a1.2 1.2 0 0 1-.8.5l-.3-.2a.7.7 0 0 1-.1-.5 3.6 3.6 0 0 1 0-.4l.4-2.8a.5.5 0 0 1-.2 0h1.1a.4.4 0 0 0 .5-.4.3.3 0 0 0-.4-.4zM61.1 11.7l-.3.2a.8.8 0 0 1-.5.5.3.3 0 0 1-.1-.3 11.7 11.7 0 0 1 .4-2.1l.4-1.9a.3.3 0 0 0-.3-.3h-1.5a.3.3 0 0 0-.4.3v.1h.7c.3 0 .3.1.3.1v.5l-.3 1.7a11.8 11.8 0 0 0-.3 1.8 2.2 2.2 0 0 0 .1.8.5.5 0 0 0 .4.4 1.5 1.5 0 0 0 1-.5 1.8 1.8 0 0 0 .6-1 .3.3 0 0 0-.1-.2h-.1zm-1.3 1.7zM61.3 5.3v-.2l-.3-.2-.3.1-.2.2-.2.2v.5l.2.4a.3.3 0 0 0 .3.2h.2l.4-.5.2-.3v-.2zM68.8 3.9h-.5l-.8.1-.7.7a7 7 0 0 0-1.2 3.1h-.8a.4.4 0 0 0-.5.4c0 .1.1.3.5.3h.7l-.3 2.2-.4 3.1v.5c-.1.8-.3.8-.3.8s-.2-.1-.2-.4a.3.3 0 0 0-.2-.3.5.5 0 0 0-.3.4 1.7 1.7 0 0 0-.1.6.4.4 0 0 0 .5.4 1.8 1.8 0 0 0 1.3-.7 3 3 0 0 0 .7-1.8l.6-5h.9a.4.4 0 0 0 .3-.1c0-.1-.1-.3-.5-.3h-.8a12.8 12.8 0 0 1 .5-2.4.9.9 0 0 1 .5-.7l.5.2.2.2h.2c.2 0 .3-.3.3-1a.4.4 0 0 0-.1-.3zM72.7 5.3v-.2l-.2-.2-.4.1-.2.2-.2.2v.5l.2.4a.3.3 0 0 0 .3.2h.3l.3-.5a.4.4 0 0 0 .2-.3v-.2zM72.7 11.7l-.3.2a.7.7 0 0 1-.5.5.3.3 0 0 1-.1-.3 11.7 11.7 0 0 1 .3-2.1l.4-1.9v-.3h-1.8c-.3 0-.4.2-.4.3v.2h.7c.3 0 .3.1.3.1v.4l-.3 1.7a11.8 11.8 0 0 0-.2 1.8 2.2 2.2 0 0 0 .1.8.5.5 0 0 0 .5.4 1.5 1.5 0 0 0 1-.6 1.8 1.8 0 0 0 .6-1.1.3.3 0 0 0-.1-.2h-.2zm-1.3 1.8zM79.1 10.3a1.9 1.9 0 0 0 1.1-1.5 1 1 0 0 0-.4-.8 1.4 1.4 0 0 0-.9-.3 2.7 2.7 0 0 0-2.1 1.2 4.3 4.3 0 0 0-1 2.7 2.2 2.2 0 0 0 .5 1.5 1.9 1.9 0 0 0 1.4.6 2.9 2.9 0 0 0 1.8-.6 1.1 1.1 0 0 0 .5-.7.2.2 0 0 0-.2-.3l-.3.2a1.7 1.7 0 0 1-1.3.5 1.4 1.4 0 0 1-1-.4 1.5 1.5 0 0 1-.4-1.1v-.5a4.5 4.5 0 0 0 2.3-.5zm-1.5-1.4a1.4 1.4 0 0 1 1-.6.4.4 0 0 1 .5.5 1.3 1.3 0 0 1-.6 1.1 2.8 2.8 0 0 1-1.5.5 3.3 3.3 0 0 1 .6-1.5zM88.4 11.6l-.3.2v.2a.9.9 0 0 1-.6.5c-.1 0-.2-.2-.2-.5a6.1 6.1 0 0 1 0-.7l.9-7.2a.3.3 0 0 0-.3-.3h-1.5a.3.3 0 0 0-.4.3v.3h1v.5l-.4 2.9-.7-.2a2.8 2.8 0 0 0-2.2 1.3 4.4 4.4 0 0 0-1 2.8 2.2 2.2 0 0 0 .4 1.4 1.4 1.4 0 0 0 1.1.5 2.2 2.2 0 0 0 1.9-1.1 1.9 1.9 0 0 0 .2.8.7.7 0 0 0 .6.3 1.5 1.5 0 0 0 1.2-.8 1.7 1.7 0 0 0 .4-.9.2.2 0 0 0-.1-.3zm-3.7 1a.7.7 0 0 1-.6-.3 1.5 1.5 0 0 1-.3-.9A4.2 4.2 0 0 1 84 10a3.9 3.9 0 0 1 .6-1.2 1.5 1.5 0 0 1 1.1-.6c.7 0 .7.3.7.4v.2l-.2 1.8a3 3 0 0 1-.5 1.5 1.3 1.3 0 0 1-1 .5zM13.1 38.4l.5-.3a.3.3 0 0 0 .3-.2.3.3 0 0 0-.3-.3h-1.8a.3.3 0 0 0-.3.3c0 .1.1.3.4.3h.3a1.5 1.5 0 0 1-.2.6l-.4.9-1.3 2.5-.6 1.3-.3-.9v-.5L9 41l1.2-2.3.3-.5h.2a.3.3 0 0 0 .3-.3.2.2 0 0 0-.3-.2H9.1a.2.2 0 0 0-.3.2c0 .1 0 .2.4.2h.2v.2a2.4 2.4 0 0 1-.3.9l-.5.9-.2-1.1a2.5 2.5 0 0 1-.1-.6.3.3 0 0 1 .3-.4.2.2 0 0 0 .2-.2v-.2h-2a.3.3 0 0 0-.3.3c0 .2.1.2.4.3a.8.8 0 0 1 .5.7l.6 2.5-1 1.7-.2.3-1-4.2a4.4 4.4 0 0 1-.2-.9.3.3 0 0 1 .3-.3c.3 0 .3-.2.3-.3a.2.2 0 0 0-.3-.2H4.1a.3.3 0 1 0 0 .5h.3a1 1 0 0 1 .2.4l1.6 6.1a.4.4 0 0 0 .3.4.5.5 0 0 0 .4-.3l.2-.4.3-.5.8-1.4.2.7.4 1.3.2.5a.4.4 0 0 0 .3.4.5.5 0 0 0 .4-.4l.6-1.1 2-3.8zM14.2 40.2a1.9 1.9 0 0 0-1.3.5 2.7 2.7 0 0 0-.7 1 3.3 3.3 0 0 0-.3 1.2 2.1 2.1 0 0 0 .5 1.4 1.5 1.5 0 0 0 1.2.5 2 2 0 0 0 1.6-.8 3.1 3.1 0 0 0 .7-2 2 2 0 0 0-.5-1.3 1.6 1.6 0 0 0-1.2-.5zm.7 1.8a3.5 3.5 0 0 1-.4 1.7 1 1 0 0 1-.8.7c-.2 0-.8 0-.8-1.3a3.1 3.1 0 0 1 .4-1.6 1 1 0 0 1 .9-.6c.2-.2.7-.2.7 1.1zM23 43.4l-.2.2a.6.6 0 0 1-.4.3h-.1v-2-.4a1.6 1.6 0 0 0-.2-.9 1 1 0 0 0-1.6-.1l-.5.5a.8.8 0 0 0-.8-.8 1.8 1.8 0 0 0-1 .3l-.6.5a.7.7 0 0 0-.5-.8.9.9 0 0 0-.7.5 1.4 1.4 0 0 0-.3.8.2.2 0 0 0 .2.3.3.3 0 0 0 .2-.2.5.5 0 0 1 .3-.4.4.4 0 0 1 .1.4v.3l-.3 2.5a.3.3 0 0 0 .4.3h.4a.4.4 0 0 0 .1-.3l.2-1.8a2.9 2.9 0 0 1 .4-1.2.8.8 0 0 1 .6-.5l.4.2a.8.8 0 0 1 .1.5 3.7 3.7 0 0 1 0 .5l-.2 2.3a.3.3 0 0 0 .4.3h.4a.4.4 0 0 0 .1-.3l.2-1.6a3.9 3.9 0 0 1 .4-1.4.7.7 0 0 1 .6-.5c.1 0 .4 0 .4.7V44c0 .7.3.9.5.9a1.3 1.3 0 0 0 .9-.5 1.1 1.1 0 0 0 .4-.6.2.2 0 0 0-.3-.4z"/><path class="cls-2" d="M25.8 42.3a1.5 1.5 0 0 0 .9-1.2.8.8 0 0 0-.3-.7l-.7-.2a2.1 2.1 0 0 0-1.6 1 3.3 3.3 0 0 0-.7 2.1 1.7 1.7 0 0 0 .4 1.2 1.5 1.5 0 0 0 1.1.4 2.3 2.3 0 0 0 1.4-.5.9.9 0 0 0 .4-.6.2.2 0 0 0-.2-.2l-.3.2a1.2 1.2 0 0 1-.9.4 1 1 0 0 1-.8-.3 1.1 1.1 0 0 1-.3-.8v-.4a3.5 3.5 0 0 0 1.6-.4zm-.5-.4a2.1 2.1 0 0 1-1.1.3 2.5 2.5 0 0 1 .5-1 1.1 1.1 0 0 1 .8-.5.3.3 0 0 1 .4.4.9.9 0 0 1-.6.8zM31.6 43.4a.4.4 0 0 0-.3.2l-.4.3a.3.3 0 0 1 0-.1v-1.5-.8a1.7 1.7 0 0 0-.2-.9.8.8 0 0 0-.7-.4l-.9.3-.6.5a1.3 1.3 0 0 0-.1-.5.5.5 0 0 0-.4-.3.9.9 0 0 0-.7.5 1.4 1.4 0 0 0-.3.8.2.2 0 0 0 .2.3.4.4 0 0 0 .3-.3l.2-.2h.1a.4.4 0 0 1 .1.4 6.6 6.6 0 0 1-.1.8v.6l-.2 1.4a.3.3 0 0 0 .1.2h.7a.4.4 0 0 0 .1-.3l.2-1.6a3.6 3.6 0 0 1 .4-1.4.8.8 0 0 1 .7-.5l.2.2a1.1 1.1 0 0 1 .1.6v2.2c0 .7.3.8.5.8a1.3 1.3 0 0 0 .8-.4 1.2 1.2 0 0 0 .5-.8.2.2 0 0 0-.1-.2h-.2zM33.3 37.6a.6.6 0 0 0-.5-.3l-.3.2v.2h-.3v.2l.2.3a.7.7 0 0 1 .3.6 1.2 1.2 0 0 1-.4.9l-.2.3a.2.2 0 0 0 .3.3 1.2 1.2 0 0 0 .7-.5 2.1 2.1 0 0 0 .6-1.4 1.5 1.5 0 0 0-.4-.8zM35.3 40.2a1.6 1.6 0 0 0-1 .3 1.1 1.1 0 0 0-.4.9 1.4 1.4 0 0 0 .4 1l.6.6a1.2 1.2 0 0 1 .4.8.5.5 0 0 1-.2.4l-.4.2-.3-.2V44a.6.6 0 0 0-.5-.3.4.4 0 0 0-.5.5.7.7 0 0 0 .4.6l.9.2a1.6 1.6 0 0 0 1.1-.4 1.3 1.3 0 0 0 .5-1 1.5 1.5 0 0 0-.4-1l-.9-1a1 1 0 0 1-.3-.6.3.3 0 0 1 .3-.4l.3.2v.2a.5.5 0 0 0 .4.2.4.4 0 0 0 .5-.5c0-.2-.1-.5-.9-.5zM43.3 40.9a2.3 2.3 0 0 0 .9-.7 1.7 1.7 0 0 0 .4-1 1.5 1.5 0 0 0-.5-1.1l-.8-.4h-3.5a.2.2 0 0 0-.3.2.4.4 0 0 0 .4.3.4.4 0 0 1 .4.4v.3l-.6 5v.1a.4.4 0 0 1-.4.4.3.3 0 0 0-.3.3c0 .1 0 .2.3.2h2.3l1.3-.2.9-.5a2 2 0 0 0 .8-1.5 1.7 1.7 0 0 0-.4-1.1 1.7 1.7 0 0 0-.9-.7zm-2.2-.3l.2-1.9a.7.7 0 0 1 .1-.4h.6a1.6 1.6 0 0 1 1.1.3 1.2 1.2 0 0 1 .4.9 1.2 1.2 0 0 1-.4 1 1.4 1.4 0 0 1-1.1.3h-.9zm-.1.8v-.2h.9a1.8 1.8 0 0 1 1.1.4 1.3 1.3 0 0 1 .4 1 1.5 1.5 0 0 1-.5 1.2 1.9 1.9 0 0 1-1.3.4h-.8a.2.2 0 0 1-.2-.2zM49.7 43.2l-.3.2a.8.8 0 0 1-.5.5s-.1 0-.1-.1a9.2 9.2 0 0 1 .3-1.8l.3-1.2v-.2a.4.4 0 0 0-.4-.4h-.3v.3a6.6 6.6 0 0 1-.9 2.1l-.7.9-.4.3v-.6l.3-1.8a2.4 2.4 0 0 0 0-.4c0-.7-.3-.8-.6-.8a1.1 1.1 0 0 0-.8.5 1.5 1.5 0 0 0-.4.9.2.2 0 0 0 .2.3.4.4 0 0 0 .3-.3l.2-.3h.1a3.3 3.3 0 0 1-.1.5l-.2 1.1a6.2 6.2 0 0 0-.1 1.1 1 1 0 0 0 .1.5.4.4 0 0 0 .4.2l.6-.2.7-.5.7-1a6.4 6.4 0 0 0-.1 1c0 .6.3.7.5.7a1.5 1.5 0 0 0 1-.5 1.3 1.3 0 0 0 .5-.9.2.2 0 0 0-.3-.1z"/><path class="cls-2" d="M51.8 40.2a1.6 1.6 0 0 0-1 .3 1.1 1.1 0 0 0-.4.9 1.4 1.4 0 0 0 .4 1l.6.6a1.2 1.2 0 0 1 .4.8.5.5 0 0 1-.2.4l-.4.2-.3-.2V44a.6.6 0 0 0-.5-.3.4.4 0 0 0-.5.5.7.7 0 0 0 .4.6l.7.1a1.6 1.6 0 0 0 1.1-.4 1.3 1.3 0 0 0 .5-1 1.5 1.5 0 0 0-.4-1l-.7-.8a1 1 0 0 1-.3-.6.3.3 0 0 1 .3-.4l.3.2v.2a.5.5 0 0 0 .4.2.4.4 0 0 0 .5-.5c0-.3-.1-.6-.9-.6zM54.2 39.3l.2.2h.2l.3-.3v-.9l-.2-.2h-.4v.2l-.2.2v.4zM54.9 43.3l-.2.2a.6.6 0 0 1-.3.4.3.3 0 0 1 0-.2 8.9 8.9 0 0 1 .2-1.6l.3-1.5a.2.2 0 0 0-.2-.3h-1.4c-.3 0-.4.2-.4.3v.2h.8v.2l-.2 1.3a9.1 9.1 0 0 0-.2 1.4 1.7 1.7 0 0 0 .1.7.4.4 0 0 0 .4.3 1.2 1.2 0 0 0 .8-.5 1.4 1.4 0 0 0 .4-.8h-.1zM59.8 43.4a.4.4 0 0 0-.3.2l-.4.3a.3.3 0 0 1 0-.1v-1.5-.8a1.7 1.7 0 0 0-.2-.9.8.8 0 0 0-.7-.4l-.9.3-.6.5a1.3 1.3 0 0 0-.1-.5.5.5 0 0 0-.4-.3.9.9 0 0 0-.7.5 1.4 1.4 0 0 0-.3.8.2.2 0 0 0 .2.3.4.4 0 0 0 .3-.3l.2-.2h.1a.4.4 0 0 1 .1.4 6.6 6.6 0 0 1-.1.8v.6l-.2 1.4a.3.3 0 0 0 .1.2h.7a.4.4 0 0 0 .1-.3l.2-1.6a3.6 3.6 0 0 1 .4-1.4.8.8 0 0 1 .7-.5l.3.2a1.1 1.1 0 0 1 .1.6v2.2s.3.8.5.8a1.3 1.3 0 0 0 .8-.4 1.2 1.2 0 0 0 .5-.8.2.2 0 0 0-.1-.2h-.3zM62.8 42.3a1.5 1.5 0 0 0 .9-1.2.8.8 0 0 0-.3-.7l-.7-.2a2.1 2.1 0 0 0-1.6 1 3.3 3.3 0 0 0-.7 2.1 1.7 1.7 0 0 0 .4 1.2 1.5 1.5 0 0 0 1.1.4 2.3 2.3 0 0 0 1.4-.5.9.9 0 0 0 .4-.6.2.2 0 0 0-.2-.2l-.3.2a1.2 1.2 0 0 1-.9.4 1 1 0 0 1-.8-.3 1.1 1.1 0 0 1-.3-.8v-.4a3.5 3.5 0 0 0 1.6-.4zm-.5-.4a2.1 2.1 0 0 1-1.1.3 2.5 2.5 0 0 1 .5-1 1.1 1.1 0 0 1 .8-.5.3.3 0 0 1 .4.4.9.9 0 0 1-.6.8zM65.8 40.2a1.6 1.6 0 0 0-1 .3 1.1 1.1 0 0 0-.4.9 1.4 1.4 0 0 0 .4 1l.6.6a1.2 1.2 0 0 1 .4.8.5.5 0 0 1-.2.4l-.4.2-.3-.2V44a.6.6 0 0 0-.5-.3.4.4 0 0 0-.5.5.7.7 0 0 0 .4.6l.9.2a1.6 1.6 0 0 0 1.1-.4 1.3 1.3 0 0 0 .5-1 1.5 1.5 0 0 0-.4-1l-.7-.8a1 1 0 0 1-.3-.6.3.3 0 0 1 .3-.4l.3.2v.2a.5.5 0 0 0 .4.2.4.4 0 0 0 .5-.5c-.1-.4-.3-.7-1.1-.7zM69 40.2a1.6 1.6 0 0 0-1 .3 1.1 1.1 0 0 0-.4.9 1.4 1.4 0 0 0 .4 1l.6.6a1.2 1.2 0 0 1 .4.8.5.5 0 0 1-.2.4l-.4.2-.3-.2V44a.6.6 0 0 0-.5-.3.4.4 0 0 0-.5.5.7.7 0 0 0 .4.6l.9.2a1.6 1.6 0 0 0 1.1-.4 1.3 1.3 0 0 0 .5-1 1.5 1.5 0 0 0-.4-1l-.7-.8a1 1 0 0 1-.3-.6.3.3 0 0 1 .3-.4l.1.1v.2a.5.5 0 0 0 .4.2.4.4 0 0 0 .5-.5c.1-.3-.1-.6-.9-.6zM78.5 37.8a.3.3 0 0 0-.3-.3h-4.5a.2.2 0 0 0-.3.2.4.4 0 0 0 .4.3.4.4 0 0 1 .4.4v.3l-.6 4.9a1.5 1.5 0 0 1-.1.5h-.3a.3.3 0 0 0-.3.3.3.3 0 0 0 .3.2h4.2l.5-.3.4-.5a1.2 1.2 0 0 0 .2-.5.2.2 0 0 0-.2-.2l-.3.2c-.3.5-1.2.7-2.6.7h-.8a.2.2 0 0 1-.1-.2l.3-2.2h1.4c.6 0 .6.2.6.4v.2a.2.2 0 0 0 .2.3.2.2 0 0 0 .2-.2 3 3 0 0 0 .1-.5 6.6 6.6 0 0 1 .1-.9 2.7 2.7 0 0 0 .1-.5.2.2 0 0 0-.2-.3.3.3 0 0 0-.2.2.6.6 0 0 1-.7.5h-1.5l.3-2.2v-.3h2.6a.7.7 0 0 1 .2.6.3.3 0 0 0 .3.3.3.3 0 0 0 .3-.3v-1.1zM83.4 43.4a.4.4 0 0 0-.3.2l-.4.3a.3.3 0 0 1 0-.1v-1.5-.8a1.7 1.7 0 0 0-.2-.9.8.8 0 0 0-.7-.4l-.9.3-.6.5a1.3 1.3 0 0 0-.1-.5.5.5 0 0 0-.4-.3.9.9 0 0 0-.7.5 1.4 1.4 0 0 0-.3.8.2.2 0 0 0 .2.3.4.4 0 0 0 .3-.3l.2-.2h.1a.4.4 0 0 1 .1.4 6.7 6.7 0 0 1-.1.8v.6l-.2 1.4a.3.3 0 0 0 .1.2h.7a.4.4 0 0 0 .1-.3l.2-1.6a3.6 3.6 0 0 1 .4-1.4.8.8 0 0 1 .7-.5l.3.2a1.1 1.1 0 0 1 .1.6v2.2s.3.8.5.8a1.3 1.3 0 0 0 .8-.4 1.2 1.2 0 0 0 .5-.8.2.2 0 0 0-.1-.2h-.3zM85.3 41.1v-.2h.8a.4.4 0 0 0 .4-.4.3.3 0 0 0-.3-.3h-.8v-.6a.2.2 0 0 0-.3-.2l-.3.2a2.3 2.3 0 0 1-.9.8.5.5 0 0 0-.3.3.2.2 0 0 0 .3.2h.3v.2l-.2 2a4.7 4.7 0 0 0 0 .5 1.4 1.4 0 0 0 .2.8.7.7 0 0 0 .6.3 1.6 1.6 0 0 0 1-.4 1.1 1.1 0 0 0 .5-.8c0-.2-.3-.3-.5-.1a.9.9 0 0 1-.6.3h-.1a.5.5 0 0 1-.1-.3 2.7 2.7 0 0 1 0-.3zM89 42.3a1.5 1.5 0 0 0 .9-1.2.8.8 0 0 0-.3-.7l-.7-.2a2.1 2.1 0 0 0-1.6 1 3.3 3.3 0 0 0-.7 2.1 1.7 1.7 0 0 0 .4 1.2 1.5 1.5 0 0 0 1.1.4 2.3 2.3 0 0 0 1.4-.5.9.9 0 0 0 .4-.6.2.2 0 0 0-.2-.2l-.3.2a1.2 1.2 0 0 1-.9.4 1 1 0 0 1-.8-.3 1.1 1.1 0 0 1-.3-.8v-.4a3.5 3.5 0 0 0 1.6-.4zm-.5-.4a2.1 2.1 0 0 1-1.1.3 2.5 2.5 0 0 1 .5-1 1.1 1.1 0 0 1 .8-.5.3.3 0 0 1 .4.4.9.9 0 0 1-.6.8z"/><path class="cls-2" d="M93.3 41.2V40.6a.4.4 0 0 0-.5-.4 1.5 1.5 0 0 0-1.2.9.9.9 0 0 0-.7-.8l-.4.2-.3.3a1.5 1.5 0 0 0-.3 1c0 .3.2.4.3.4a.3.3 0 0 0 .3-.3v-.5h.2c.2 0 .2.4.2.6a3.5 3.5 0 0 1 0 .4l-.3 2.1c0 .1 0 .3.4.3a.4.4 0 0 0 .5-.3l.2-1.3a9.6 9.6 0 0 1 .3-1.7.6.6 0 0 1 .3-.4.3.3 0 0 1 .2.2.3.3 0 0 0 .2.2.3.3 0 0 0 .6-.3zM97.2 40.7a2.1 2.1 0 0 0-1.4-.4h-.6v-1.1a.2.2 0 0 0-.3-.2.7.7 0 0 0-.6.3 3.3 3.3 0 0 0-.3 1.1h-.2l-.2.2.2.2h.5l-.6 4.5a1.3 1.3 0 0 1-.1.4h-.3a.3.3 0 0 0-.2.3.3.3 0 0 0 .4.3H95a.3.3 0 0 0 .3-.3.3.3 0 0 0-.3-.2h-.5a.2.2 0 0 1 0-.2v-1h.5a2.4 2.4 0 0 0 1.6-.6 3.2 3.2 0 0 0 .8-1.1 3 3 0 0 0 .3-1.3 1.4 1.4 0 0 0-.5-.9zm-2.5 3.4v-.2l.4-3.1h.3a1.4 1.4 0 0 1 1 .3 1.1 1.1 0 0 1 .3.9 2.6 2.6 0 0 1-.5 1.6 1.4 1.4 0 0 1-1.2.7c-.3-.1-.3-.2-.3-.2z"/><path class="cls-2" d="M102.8 43.3l-.2.2a.6.6 0 0 1-.3.4.3.3 0 0 1 0-.2 8.9 8.9 0 0 1 .2-1.6l.3-1.5a.2.2 0 0 0-.2-.3H101a.5.5 0 0 0-.4-.2 1.5 1.5 0 0 0-1.2.9.9.9 0 0 0-.7-.8l-.4.2-.3.3a1.5 1.5 0 0 0-.3 1c0 .3.2.4.3.4a.3.3 0 0 0 .3-.3v-.4h.2c.2 0 .2.4.2.6a3.5 3.5 0 0 1 0 .4l-.3 2.1c0 .1 0 .3.4.3a.4.4 0 0 0 .5-.3l.2-1.3a9.6 9.6 0 0 1 .3-1.7.6.6 0 0 1 .3-.4.3.3 0 0 1 .2.2.3.3 0 0 0 .2.2.3.3 0 0 0 .3-.3V41h.7v.2l-.2 1.3a9.2 9.2 0 0 0-.2 1.4 1.7 1.7 0 0 0 .1.7.4.4 0 0 0 .4.3 1.2 1.2 0 0 0 .8-.5 1.4 1.4 0 0 0 .4-.8v-.2h-.2zM102.2 39.3l.2.2h.2l.3-.3v-.9l-.2-.2h-.2v.2l-.2.2v.4zM105.2 40.2a1.6 1.6 0 0 0-1 .3 1.1 1.1 0 0 0-.4.9 1.4 1.4 0 0 0 .4 1l.6.6a1.2 1.2 0 0 1 .4.8.5.5 0 0 1-.2.4l-.4.2-.3-.2V44a.6.6 0 0 0-.5-.3.4.4 0 0 0-.5.5.7.7 0 0 0 .4.6l.9.2a1.6 1.6 0 0 0 1.1-.4 1.3 1.3 0 0 0 .5-1 1.5 1.5 0 0 0-.4-1l-.7-.8a1 1 0 0 1-.3-.6.3.3 0 0 1 .3-.4l.3.2v.2a.5.5 0 0 0 .4.2.4.4 0 0 0 .5-.5c-.1-.4-.2-.7-1.1-.7zM109.8 43.6l-.3.2a1.2 1.2 0 0 1-.9.4 1 1 0 0 1-.8-.3 1.1 1.1 0 0 1-.3-.8v-.4a3.5 3.5 0 0 0 1.6-.4 1.5 1.5 0 0 0 .9-1.2.8.8 0 0 0-.3-.7l-.7-.2a2.1 2.1 0 0 0-1.6 1 3.3 3.3 0 0 0-.7 2.1 1.7 1.7 0 0 0 .4 1.2 1.5 1.5 0 0 0 1.1.4 2.3 2.3 0 0 0 1.4-.5.9.9 0 0 0 .4-.6.2.2 0 0 0-.2-.2zm-1.1-1.7a2.1 2.1 0 0 1-1.1.3 2.5 2.5 0 0 1 .5-1 1.1 1.1 0 0 1 .8-.5.3.3 0 0 1 .4.4.9.9 0 0 1-.6.8zM83.8 23.4a6.8 6.8 0 0 1 7.2-5.6c2.9 0 5.2 1.5 6.8 4.4a.9.9 0 0 0 .6.6l.3-.2v-.3l-.5-3.6a.6.6 0 0 0-.4-.6l-.5.2h-.4l-.6-.3a11.3 11.3 0 0 0-5.4-1.3 9.7 9.7 0 0 0-7.1 2.8 9.6 9.6 0 0 0-1.7 2.4 8.7 8.7 0 0 0 1.7 1.5z"/><path class="cls-2" d="M86.9 23.9c2.1 0 4.1-1.7 4.8-5.1 0 0 .5 4.8-2.8 7.3a7.8 7.8 0 0 1 1.1 4 7.5 7.5 0 0 1-1.7 4.3s.8-4.1-.9-5.6a5.4 5.4 0 0 1-1.5 3.9l-.8-1.1a10.4 10.4 0 0 0 .6-3.4 4.7 4.7 0 0 0-.6-2.1c-.5-.6-1.6-1.6-2-2.1a11.8 11.8 0 0 1-2.2-4.9s2.2 4.8 6 4.8z"/><ellipse class="cls-2" cx="86.6" cy="22" rx=".9" ry="1" transform="rotate(-3.4 85.368 21.08)"/><ellipse class="cls-2" cx="95.4" cy="24.3" rx="1" ry=".9" transform="rotate(-65.4 95.462 24.33)"/><path class="cls-2" d="M93.9 25.8c1.8 1.1 4.4-.7 5.9-3.3 0 0-.3 3.4-4.3 5.7 0 0 .9 1.1 1.1 4.5l-.6.5a20.8 20.8 0 0 0-1.9-2.9 19 19 0 0 0-2.8 4.2s.7-5.4 1.7-6.6a8.2 8.2 0 0 1-1.1-7.1s.2 3.9 2 5zM50.1 27.1a4.3 4.3 0 0 0-2.5-1.7l-.6-.1h.1l.6-.4a4.1 4.1 0 0 0 .1-6.8 8.4 8.4 0 0 0-4.8-1.3h-8.1a.4.4 0 0 0-.5.4.8.8 0 0 0 .7.6 1 1 0 0 1 1 .7 24.3 24.3 0 0 1-1.4 4.5c-1 2.6-2 5.1-3.1 7.7l-.3.7-.3.5a2.8 2.8 0 0 1-.5-.9l-2.7-6 2.1-5a12 12 0 0 1 .8-1.7l.6-.4a.6.6 0 0 0 .5-.5.4.4 0 0 0-.5-.4h-3.5c-.5 0-.6.2-.6.4a.7.7 0 0 0 .7.6c.7.1.7.5.7.6a15.1 15.1 0 0 1-1.5 4.3v.3l-1.2-3a4.9 4.9 0 0 1-.4-1.6.7.7 0 0 1 .5-.7.7.7 0 0 0 .5-.5c0-.2-.1-.4-.6-.4h-4.8c-.5 0-.7.2-.7.4s.6.6 1.1.6a1.4 1.4 0 0 1 .9.4 8.6 8.6 0 0 1 .9 1.7l2.2 5.2.3.7-2.2 5.2-.3-.6-1.2-2.8-1.3-3.2-1.8-3.3a10.1 10.1 0 0 1-.9-2.8c0-.1 0-.4.7-.6a.5.5 0 0 0 .4-.5.4.4 0 0 0-.5-.5h-5a.5.5 0 0 0-.1.9h.5a2.1 2.1 0 0 1 1.2.8 11.3 11.3 0 0 1 1.2 2.4l.3.9L22.1 35a1.4 1.4 0 0 0 .9 1.1.8.8 0 0 0 .6-.6l3-7.5 3 7.2a.9.9 0 0 0 .7.7 1.1 1.1 0 0 0 .8-.8l.2-.4.9-2.1 1-2.5 1.5-3.5 1.4-3.5 1.4-3.2.7-1.6h.1a4.9 4.9 0 0 1 .5 2.5v10.7a11.8 11.8 0 0 1-.2 2.4 1.3 1.3 0 0 1-1.3 1.1c-.4.1-.5.3-.5.4a.4.4 0 0 0 .5.4h7.1a7 7 0 0 0 4.8-1.6 5.3 5.3 0 0 0 1.9-4.2 4.9 4.9 0 0 0-1-2.9zm-5.6 7.8a8.8 8.8 0 0 1-2.4-.2 1.2 1.2 0 0 1-.9-.7v-7.3a.4.4 0 0 1 .1-.3h3.2a4.2 4.2 0 0 1 3.2 1.3A4.6 4.6 0 0 1 49 31a3.9 3.9 0 0 1-1.1 3 4.6 4.6 0 0 1-3.4.9zm-.3-9.9h-3a.6.6 0 0 1-.1-.5v-5.4a1.4 1.4 0 0 1 .3-1 1.8 1.8 0 0 1 1.1-.2 5.1 5.1 0 0 1 3.5 1.2 3.9 3.9 0 0 1 1.4 3c.1 2-1 3-3.2 3zM22.9 36z"/><path class="cls-2" d="M81.7 17.4a.4.4 0 0 0-.5-.4h-5.1c-.5 0-.5.2-.5.4a.5.5 0 0 0 .5.5 3.9 3.9 0 0 1 1.9.7 2.3 2.3 0 0 1 .6 1.5l.2 3v8.4l-.3-.3L66 17.4a1.1 1.1 0 0 0-.8-.4h-2.8l-.4-.1h-6.2l-4.5.1h-.9c-.6 0-.7.3-.7.5s.1.4.5.4a1.6 1.6 0 0 1 1.5.6 5.3 5.3 0 0 1 .4 2.5v12c0 1-.3 1.6-.9 1.7h-.5a.5.5 0 0 0-.4.4c0 .2.1.4.6.4h.7l3.2-.2 4.1.2h1a3.7 3.7 0 0 0 3-1.5 3.7 3.7 0 0 0 1-2.1c0-.4-.3-.5-.4-.5l-.4.3c-.9 1.5-3.1 2.3-6.5 2.3a4.1 4.1 0 0 1-2-.3 1.6 1.6 0 0 1-.3-1.3v-5a.5.5 0 0 1 .2-.4h3.7a2.9 2.9 0 0 1 1.5.3 1.6 1.6 0 0 1 .6 1.1v.4a.4.4 0 0 0 .5.4.4.4 0 0 0 .4-.5v-.5c-.1-.5-.1-1.1-.1-1.6s0-1.5.1-2.3V24a.4.4 0 0 0-.4-.5.5.5 0 0 0-.4.4 2.5 2.5 0 0 1-.3 1.1 1.6 1.6 0 0 1-.8.3l-2.2.2h-2.7a1.3 1.3 0 0 1-.1-.7v-5.5a1.1 1.1 0 0 1 .2-.8 1.6 1.6 0 0 1 1-.2h2.1l2.8.2a1.3 1.3 0 0 1 .9.7 2 2 0 0 1 .1.8v.3a.7.7 0 0 0 .1.4l.3.2a.4.4 0 0 0 .4-.3 4.7 4.7 0 0 0 .1-1v-.8c0-.6.1-.9.1-1h.3a2.7 2.7 0 0 1 2.1 1.4 7.3 7.3 0 0 1 .7 3.6v9a4 4 0 0 1-.4 2 2.7 2.7 0 0 1-1.5 1 .5.5 0 0 0-.5.5.4.4 0 0 0 .5.4h5.1a.4.4 0 0 0 .4-.4.5.5 0 0 0-.6-.5 2.8 2.8 0 0 1-1.4-.5 1.8 1.8 0 0 1-.4-1.1V22.7a.5.5 0 0 1 .1-.5h.1l11.6 13 .3.4.4.2a.5.5 0 0 0 .5-.4 13.3 13.3 0 0 0 .1-1.9V20a3.8 3.8 0 0 1 .2-1.7 1.5 1.5 0 0 1 1-.6.4.4 0 0 0 .7-.3zm-2.2 18.2zM98.3 30.6a1.1 1.1 0 0 0-.7.8 6.2 6.2 0 0 1-2.7 2.6 8 8 0 0 1-4 .9 6 6 0 0 1-5.2-2.5 10.4 10.4 0 0 1-2.2-6.8v-.3l-.9-.9a8.8 8.8 0 0 1-1-1.6 10.6 10.6 0 0 0-.7 3.8 9.2 9.2 0 0 0 2.7 6.9 8.8 8.8 0 0 0 6.7 2.6 13 13 0 0 0 7-2 1.4 1.4 0 0 0 .7-.8l.4-1.9V31a.3.3 0 0 0-.1-.4z"/><path class="cls-2" d="M105.2 50H9.8A9.8 9.8 0 0 1 0 40.2V9.8A9.8 9.8 0 0 1 9.8 0h95.4a9.8 9.8 0 0 1 9.8 9.8v30.4a9.8 9.8 0 0 1-9.8 9.8zM9.8 1.3a8.5 8.5 0 0 0-8.5 8.5v30.4a8.5 8.5 0 0 0 8.5 8.5h95.4a8.5 8.5 0 0 0 8.5-8.5V9.8a8.5 8.5 0 0 0-8.5-8.5H9.8z"/></svg>