<?xml version="1.0" encoding="UTF-8" standalone="no"?>
<svg width="60px" height="30px" viewBox="0 0 60 30" version="1.1" xmlns="http://www.w3.org/2000/svg" xmlns:xlink="http://www.w3.org/1999/xlink" xmlns:sketch="http://www.bohemiancoding.com/sketch/ns">
    <!-- Generator: Sketch 3.5.2 (25235) - http://www.bohemiancoding.com/sketch -->
    <title>connect</title>
    <desc>Created with Sketch.</desc>
    <defs></defs>
    <g id="Assets" stroke="none" stroke-width="1" fill="none" fill-rule="evenodd" sketch:type="MSPage">
        <g id="connect" sketch:type="MSArtboardGroup" fill="#FFFFFF">
            <g id="facebook" sketch:type="MSLayerGroup" transform="translate(30.000000, 0.000000)">
                <path d="M15,30 C23.2842712,30 30,23.2842712 30,15 C30,6.71572875 23.2842712,0 15,0 C6.71572875,0 0,6.71572875 0,15 C0,23.2842712 6.71572875,30 15,30 Z M18.9611,9.3427 L16.8681,9.3427 C16.4541,9.3427 16.0351,9.7757 16.0351,10.0957 L16.0351,12.2427 L18.9571,12.2427 C18.8401,13.8887 18.5981,15.3947 18.5981,15.3947 L16.0201,15.3947 L16.0201,24.7257 L12.1781,24.7257 L12.1781,15.3947 L10.3081,15.3947 L10.3081,12.2537 L12.1781,12.2537 L12.1781,9.6867 C12.1781,9.2167 12.0831,6.0737 16.1151,6.0737 L18.9611,6.0737 L18.9611,9.3427 Z" id="Oval-2-Copy" sketch:type="MSShapeGroup"></path>
            </g>
            <g id="linkedin" sketch:type="MSLayerGroup">
                <path d="M15,30 C23.2842712,30 30,23.2842712 30,15 C30,6.71572875 23.2842712,0 15,0 C6.71572875,0 0,6.71572875 0,15 C0,23.2842712 6.71572875,30 15,30 Z M23.0122,21.9829 C23.0122,22.6019 22.4962,23.1049 21.8602,23.1049 L8.5712,23.1049 C7.9342,23.1049 7.4182,22.6019 7.4182,21.9829 L7.4182,8.5729 C7.4182,7.9529 7.9342,7.4509 8.5712,7.4509 L21.8602,7.4509 C22.4962,7.4509 23.0122,7.9529 23.0122,8.5729 L23.0122,21.9829 Z" id="Oval-2" sketch:type="MSShapeGroup"></path>
                <g id="Group" transform="translate(9.000000, 10.000000)" sketch:type="MSShapeGroup">
                    <path d="M8.9266,3.3205 C7.6756,3.3205 7.1166,4.0075 6.8036,4.4885 L6.8036,4.5115 L6.7886,4.5115 C6.7926,4.5045 6.7986,4.4965 6.8036,4.4885 L6.8036,3.4865 L4.4486,3.4865 C4.4796,4.1495 4.4486,10.5545 4.4486,10.5545 L6.8036,10.5545 L6.8036,6.6065 C6.8036,6.3965 6.8196,6.1855 6.8826,6.0345 C7.0526,5.6115 7.4396,5.1745 8.0906,5.1745 C8.9426,5.1745 9.2836,5.8225 9.2836,6.7735 L9.2836,10.5545 L11.6386,10.5545 L11.6386,6.5015 C11.6386,4.3305 10.4766,3.3205 8.9266,3.3205" id="Fill-1"></path>
                    <path d="M0.79,10.554 L3.146,10.554 L3.146,3.486 L0.79,3.486 L0.79,10.554 Z" id="Fill-3"></path>
                    <path d="M1.9834,0.0793 C1.1774,0.0793 0.6504,0.6063 0.6504,1.2993 C0.6504,1.9793 1.1624,2.5213 1.9524,2.5213 L1.9684,2.5213 C2.7894,2.5213 3.3004,1.9793 3.3004,1.2993 C3.2844,0.6063 2.7894,0.0793 1.9834,0.0793" id="Fill-5"></path>
                </g>
            </g>
        </g>
    </g>
</svg>