<svg id="footer-logo" xmlns="http://www.w3.org/2000/svg" viewBox="0 0 240 120"><defs><style>.cls-1{fill:none;}.cls-2{fill:#fff;}</style></defs><title>assets</title><rect class="cls-1" width="240" height="120"/><path class="cls-2" d="M45.5,90.6c-4.7,0-8.3-3.9-8.3-8.8s3.5-8.9,8.4-8.9a8.2,8.2,0,0,1,6.4,2.7l-1.8,2.2a6.3,6.3,0,0,0-4.5-2.1c-3.1,0-5.4,2.7-5.4,6.1s2.3,6.1,5.4,6.1a6.2,6.2,0,0,0,4.7-2.2l1.8,2A8.2,8.2,0,0,1,45.5,90.6Z"/><path class="cls-2" d="M57.9,83.1v7.2H55V73.2h2.9v7.1h7.8V73.2h2.9V90.3H65.7V83.1H57.9Z"/><path class="cls-2" d="M88.2,90.3h-3l-1.6-4.1H75.9l-1.7,4.1H71.3L78.4,73h2.6ZM79.7,76.6l-2.8,6.9h5.6Z"/><path class="cls-2" d="M101.4,90.3l-4-6H93.9v6H91V73.2h7.2c3.7,0,6,2.1,6,5.4a5.1,5.1,0,0,1-3.9,5.2l4.4,6.5h-3.4ZM98,75.9H93.9v5.8H98c2,0,3.3-1.1,3.3-2.9S100.1,75.9,98,75.9Z"/><path class="cls-2" d="M113.9,90.3h-6.1V73.2h6.1A8.6,8.6,0,1,1,113.9,90.3Zm0-14.4h-3.2V87.6h3.2a5.5,5.5,0,0,0,5.6-5.8C119.5,78.4,117.3,75.9,113.9,75.9Z"/><path class="cls-2" d="M125.1,87.8l1.1-1.4a7.5,7.5,0,0,0,5.6,2.4c2.2,0,3.6-1.2,3.6-2.9h0c0-1.6-.8-2.5-4.2-3.3s-5.5-2.1-5.5-5h0c0-2.7,2.3-4.7,5.3-4.7a8.2,8.2,0,0,1,5.7,2.1l-1.1,1.5a6.9,6.9,0,0,0-4.7-1.9c-2.1,0-3.5,1.2-3.5,2.8h0c0,1.6.8,2.5,4.4,3.3s5.3,2.2,5.3,4.9h0c0,2.9-2.3,4.9-5.5,4.9A9.2,9.2,0,0,1,125.1,87.8Z"/><path class="cls-2" d="M141,73.2h1.7L153,86.9V73.2h1.8V90.3h-1.5L142.8,76.3V90.3H141V73.2Z"/><path class="cls-2" d="M164.4,83.5l-6.8-10.4h2.2l5.5,8.6,5.5-8.6H173l-6.8,10.3v6.8h-1.9V83.5Z"/><path class="cls-2" d="M175.1,73.2h5.6a8.3,8.3,0,0,1,8.6,8.5h0a8.3,8.3,0,0,1-8.6,8.6h-5.6V73.2Zm5.6,15.4a6.5,6.5,0,0,0,6.7-6.7h0a6.5,6.5,0,0,0-6.7-6.8h-3.8V88.5h3.8Z"/><path class="cls-2" d="M192.3,73.2h11.7v1.8h-9.9v5.9H203v1.8h-8.9v6h10v1.8H192.3V73.2Z"/><path class="cls-2" d="M207.4,73.2h7a6.2,6.2,0,0,1,4.6,1.7,4.9,4.9,0,0,1,1.3,3.4h0c0,2.8-1.9,4.5-4.4,5l5,7h-2.3l-4.7-6.7h-4.6v6.7h-1.8V73.2Zm6.8,8.8c2.4,0,4.2-1.3,4.2-3.5h0c0-2.1-1.5-3.4-4.2-3.4h-5v7h5Z"/><path class="cls-2" d="M47,16.3l17.8,9.4A248.9,248.9,0,0,1,86.2,7.2a110,110,0,0,1-23,4.7A102.9,102.9,0,0,1,42,11.3,95.2,95.2,0,0,1,40.8,34C38.2,50.4,29.7,69,29.7,69S38,53.9,54.4,36.2c2.5-2.6,4.9-5.1,7.3-7.5Z"/><path class="cls-2" d="M84.5,29.6A143.1,143.1,0,0,1,87.9,9s-9,7.5-20.4,18.9L79.1,44.3,64.4,31c-2.7,2.8-5.5,5.8-8.4,8.9A321.7,321.7,0,0,0,32.7,68.8c-2.7,3.6-9.9,13.9-11.8,25.6-6.8,2.8-10.1,6.1-11.8,10l1.4,1.7c1.7-3.7,4.2-7.2,10.2-9.9-0.1.9-.2,1.5-0.2,2.3a14.5,14.5,0,0,0,5.4,12.1,10.3,10.3,0,0,0,6.3,2.2l2.1-.2c4.2-1,7-4.7,6.9-9.5s-2.8-8.5-9.2-9.9a16.7,16.7,0,0,0-7.5.2L23.9,95a15.5,15.5,0,0,1,8-.8c5.7,1.2,8,4.5,8.1,8.7s-2.3,7.4-6.1,7.9-5.3-.2-6.9-1.5l-0.7-.6-0.9-.8c-7-7.6-1.7-20.5,1.2-26.4l0.5-.9h0a59.4,59.4,0,0,1,8.5-12h0s17.8-20.5,49-19.3A173.1,173.1,0,0,1,84.5,29.6Z"/><path class="cls-2" d="M135,99.8h3.8a1.7,1.7,0,0,1,1.2.3,2,2,0,0,1,.5,1.7,1.4,1.4,0,0,1-1.1,1.6h0c0.8,0.2,1.1.6,1.1,1.8s-0.2,1.6-.5,1.8a1.6,1.6,0,0,1-1.2.3H135V99.8Zm3.6,3.3a0.9,0.9,0,0,0,.7-0.2,1.5,1.5,0,0,0,.3-1.1,1.5,1.5,0,0,0-.2-1.1l-0.7-.2h-2.8v2.6h2.8Zm0.8,0.9a0.9,0.9,0,0,0-.7-0.2h-2.9v2.9h2.9l0.7-.2A3.2,3.2,0,0,0,139.4,104Z"/><path class="cls-2" d="M142.8,104.8c0,1.3.1,1.6,0.3,1.8a0.9,0.9,0,0,0,.7.2h1.4l0.6-.2a1.2,1.2,0,0,0,.2-0.9h0.8a1.9,1.9,0,0,1-.4,1.5,1.3,1.3,0,0,1-1.1.3h-1.7a1.5,1.5,0,0,1-1.2-.3c-0.4-.4-0.5-0.8-0.5-2.6s0.1-2.2.5-2.6a1.5,1.5,0,0,1,1.2-.3h1.5a1.6,1.6,0,0,1,1.2.3c0.4,0.4.5,0.8,0.5,2.5v0.2h-4Zm0-.6h3.2c0-1.2-.1-1.5-0.3-1.7a0.9,0.9,0,0,0-.7-0.2h-1.3a0.9,0.9,0,0,0-.7.2C142.9,102.7,142.8,102.9,142.8,104.2Z"/><path class="cls-2" d="M148.5,107.5v-5.8h0.8v0.8a2.3,2.3,0,0,1,1.7-.8h0.8a1.3,1.3,0,0,1,1,.3,1.6,1.6,0,0,1,.3,1.2v4.4h-0.8v-4.3a0.8,0.8,0,0,0-.2-0.6,0.8,0.8,0,0,0-.7-0.2h-0.8a2.4,2.4,0,0,0-1.4.5v4.6h-0.8Z"/><path class="cls-2" d="M155.6,104.8c0,1.3.1,1.6,0.3,1.8a0.9,0.9,0,0,0,.7.2H158l0.6-.2a1.2,1.2,0,0,0,.2-0.9h0.8a1.9,1.9,0,0,1-.4,1.5,1.3,1.3,0,0,1-1.1.3h-1.7a1.5,1.5,0,0,1-1.2-.3c-0.4-.4-0.5-0.8-0.5-2.6s0.1-2.2.5-2.6a1.5,1.5,0,0,1,1.2-.3h1.5a1.6,1.6,0,0,1,1.2.3c0.4,0.4.5,0.8,0.5,2.5v0.2h-4Zm0-.6h3.2c0-1.2-.1-1.5-0.3-1.7a0.9,0.9,0,0,0-.7-0.2h-1.3a0.9,0.9,0,0,0-.7.2C155.7,102.7,155.6,102.9,155.6,104.2Z"/><path class="cls-2" d="M161.6,107.5v-5.1h-1v-0.7h1v-0.4a1.7,1.7,0,0,1,.3-1.3,1.1,1.1,0,0,1,.9-0.3h0.9v0.7h-1.2a1.1,1.1,0,0,0-.1.8v0.4h1.3v0.7h-1.3v5.1h-0.8Zm4.3-6.9h-1v-1h1v1Zm-0.1,6.9H165v-5.8h0.8v5.8Z"/><path class="cls-2" d="M170.4,107.3h-1.3a1.1,1.1,0,0,1-.9-0.3,1.2,1.2,0,0,1-.3-0.9v-4h-1v-0.7h1v-1.5h0.8v1.5h1.6v0.7h-1.6v3.8a0.6,0.6,0,0,0,.1.5h1.5v0.5Z"/><path class="cls-2" d="M179.3,107.1a1.4,1.4,0,0,1-1.1.3h-2.6a1.4,1.4,0,0,1-1.1-.3c-0.3-.3-0.4-0.6-0.4-2h0.8c0,1.1.1,1.3,0.2,1.4l0.6,0.2h2.3l0.6-.2a1.8,1.8,0,0,0,.2-1.2,1.4,1.4,0,0,0-.2-1.1l-0.7-.2-2.4-.2a1.7,1.7,0,0,1-1.1-.4,2,2,0,0,1-.4-1.6,2.2,2.2,0,0,1,.4-1.7,1.4,1.4,0,0,1,1.1-.3h2.4a1.4,1.4,0,0,1,1.1.3c0.3,0.3.4,0.6,0.4,1.9h-0.8a2.1,2.1,0,0,0-.2-1.3l-0.6-.2h-2.1l-0.6.2a1.9,1.9,0,0,0-.2,1.1,1.3,1.3,0,0,0,.2,1l0.7,0.2,2.4,0.2a1.7,1.7,0,0,1,1.1.4,2.1,2.1,0,0,1,.4,1.7A2.2,2.2,0,0,1,179.3,107.1Z"/><path class="cls-2" d="M181.8,107.1c-0.4-.4-0.5-0.8-0.5-2.6s0.1-2.2.5-2.6a1.5,1.5,0,0,1,1.2-.3h1.5a1.5,1.5,0,0,1,1.2.3c0.4,0.4.5,0.8,0.5,2.6s-0.1,2.2-.5,2.6a1.5,1.5,0,0,1-1.2.3H183A1.5,1.5,0,0,1,181.8,107.1Zm0.6-.6,0.7,0.2h1.3l0.7-.2c0.2-.2.3-0.5,0.3-2s-0.1-1.9-.3-2a0.9,0.9,0,0,0-.7-0.2H183a0.9,0.9,0,0,0-.7.2c-0.2.2-.3,0.5-0.3,2S182.2,106.4,182.3,106.6Z"/><path class="cls-2" d="M188.2,107.5V99.6h0.7v7.8h-0.7Z"/><path class="cls-2" d="M195.6,101.6v5.8h-0.8v-0.8a2.3,2.3,0,0,1-1.7.8h-0.8a1.2,1.2,0,0,1-1-.3,1.5,1.5,0,0,1-.3-1.2v-4.4h0.8v4.3a0.8,0.8,0,0,0,.2.6,0.8,0.8,0,0,0,.7.2h0.8a2.4,2.4,0,0,0,1.4-.5v-4.6h0.8Z"/><path class="cls-2" d="M200.2,107.3h-1.3a1.1,1.1,0,0,1-.9-0.3,1.2,1.2,0,0,1-.3-0.9v-4h-1v-0.7h1v-1.5h0.8v1.5h1.6v0.7h-1.6v3.8a0.6,0.6,0,0,0,.1.5h1.5v0.5Z"/><path class="cls-2" d="M202.4,100.5h-1v-1h1v1Zm-0.1,6.9h-0.8v-5.8h0.8v5.8Z"/><path class="cls-2" d="M204.5,107.1c-0.4-.4-0.5-0.8-0.5-2.6s0.1-2.2.5-2.6a1.5,1.5,0,0,1,1.2-.3h1.5a1.5,1.5,0,0,1,1.2.3c0.4,0.4.5,0.8,0.5,2.6s-0.1,2.2-.5,2.6a1.5,1.5,0,0,1-1.2.3h-1.5A1.5,1.5,0,0,1,204.5,107.1Zm0.6-.6,0.7,0.2h1.3l0.7-.2c0.2-.2.3-0.5,0.3-2s-0.1-1.9-.3-2a0.9,0.9,0,0,0-.7-0.2h-1.3a0.9,0.9,0,0,0-.7.2c-0.2.2-.3,0.5-0.3,2S204.9,106.4,205,106.6Z"/><path class="cls-2" d="M210.5,107.5v-5.8h0.8v0.8a2.3,2.3,0,0,1,1.7-.8h0.8a1.3,1.3,0,0,1,1,.3,1.6,1.6,0,0,1,.3,1.2v4.4h-0.8v-4.3a0.8,0.8,0,0,0-.2-0.6,0.8,0.8,0,0,0-.7-0.2h-0.8a2.4,2.4,0,0,0-1.4.5v4.6h-0.8Z"/><path class="cls-2" d="M221,107.2a1.1,1.1,0,0,1-.9.3H218a1.3,1.3,0,0,1-.9-0.3c-0.3-.3-0.3-0.5-0.3-1.5h0.7a1.4,1.4,0,0,0,.2,1h2.8a1,1,0,0,0,.2-0.8,1,1,0,0,0-.1-0.7l-0.6-.2-1.9-.2a1.4,1.4,0,0,1-.9-0.3,1.6,1.6,0,0,1-.3-1.3,1.8,1.8,0,0,1,.4-1.3,1.1,1.1,0,0,1,.9-0.3h2a1.2,1.2,0,0,1,.9.3,1.9,1.9,0,0,1,.3,1.5h-0.7a1.3,1.3,0,0,0-.2-0.9h-2.6a1,1,0,0,0-.2.8,0.9,0.9,0,0,0,.1.7l0.6,0.2,1.9,0.2a1.4,1.4,0,0,1,.9.3,1.7,1.7,0,0,1,.3,1.3A1.8,1.8,0,0,1,221,107.2Z"/><path class="cls-2" d="M224.2,73.8h-1.3V73.3H226v0.4h-1.3v3.5h-0.5V73.8Zm2.7-.4h0.5l1.6,2.4,1.6-2.4H231v4h-0.5V74.1L229,76.4h-0.1l-1.5-2.3v3.2h-0.5v-4Z"/><rect class="cls-1" x="-25" y="-15" width="290" height="150"/></svg>