<?xml version="1.0" encoding="UTF-8" standalone="no"?>
<svg width="80px" height="40px" viewBox="0 0 80 40" version="1.1" xmlns="http://www.w3.org/2000/svg" xmlns:xlink="http://www.w3.org/1999/xlink" xmlns:sketch="http://www.bohemiancoding.com/sketch/ns">
    <!-- Generator: Sketch 3.5.2 (25235) - http://www.bohemiancoding.com/sketch -->
    <title>icons-small</title>
    <desc>Created with Sketch.</desc>
    <defs></defs>
    <g id="Assets" stroke="none" stroke-width="1" fill="none" fill-rule="evenodd" sketch:type="MSPage">
        <g id="icons-small" sketch:type="MSArtboardGroup">
            <g id="fsa-forms" sketch:type="MSLayerGroup" transform="translate(40.000000, 0.000000)">
                <circle id="Oval-4-Copy" fill="#27B1E6" sketch:type="MSShapeGroup" cx="20" cy="20" r="20"></circle>
                <path d="M25,11 L16,11 L12,15 L12,26 C12,26.5522847 12.4477153,27 13,27 L25,27 C25.5522847,27 26,26.5522847 26,26 L26,12 C26,11.4477153 25.5522847,11 25,11 L25,11 Z M16,12.5 L16,15 L13.5,15 L16,12.5 Z M25,26 L13,26 L13,16 L16,16 C16.5522847,16 17,15.5522847 17,15 L17,12 L25,12 L25,26 L25,26 Z" id="Shape" fill="#FFFFFF" sketch:type="MSShapeGroup"></path>
                <path d="M15,20 L23,20 L23,19 L15,19 L15,20 L15,20 Z" id="Shape" fill="#FFFFFF" sketch:type="MSShapeGroup"></path>
                <path d="M17,18 L23,18 L23,17 L17,17 L17,18 L17,18 Z" id="Shape" fill="#FFFFFF" sketch:type="MSShapeGroup"></path>
                <path d="M23,15 L19,15 L19,16 L23,16 L23,15 L23,15 Z" id="Shape" fill="#FFFFFF" sketch:type="MSShapeGroup"></path>
                <path d="M15,22 L23,22 L23,21 L15,21 L15,22 L15,22 Z" id="Shape" fill="#FFFFFF" sketch:type="MSShapeGroup"></path>
                <path d="M15,24 L23,24 L23,23 L15,23 L15,24 L15,24 Z" id="Shape" fill="#FFFFFF" sketch:type="MSShapeGroup"></path>
            </g>
            <g id="common-questions" sketch:type="MSLayerGroup">
                <circle id="Oval-4" fill="#27B1E6" sketch:type="MSShapeGroup" cx="20" cy="20" r="20"></circle>
                <path d="M18.6,27.1 C18.5940798,27.2871066 18.71872,27.4532936 18.9,27.5 L21.2,27.5 C21.403192,27.4621568 21.5621568,27.303192 21.6,27.1 L21.6,24.7 L18.6,24.7 L18.6,27.1 L18.6,27.1 Z" id="Shape" fill="#FFFFFF" sketch:type="MSShapeGroup"></path>
                <path d="M20.1,10.5 C18.6677602,10.4732314 17.2835722,11.0166414 16.2520679,12.0106365 C15.2205636,13.0046315 14.6262775,14.3677511 14.6,15.8 L14.6,16.4 C14.5959826,16.5259305 14.6515333,16.6463936 14.7499186,16.7251018 C14.8483038,16.80381 14.9780228,16.8315627 15.1,16.8 L17,16.8 C17.2209139,16.8 17.4,16.6209139 17.4,16.4 L17.4,16.4 L17.4,15.7 C17.4538135,14.248023 18.6470264,13.0990031 20.1,13.1 C21.5529736,13.0990031 22.7461865,14.248023 22.8,15.7 C22.7830418,16.6379142 22.2424576,17.4874036 21.4,17.9 L21.4,17.9 C20.5417142,18.2833225 19.7874397,18.8661709 19.2,19.6 C18.9234417,19.9937207 18.7201862,20.4341076 18.6,20.9 C18.5204626,21.0173345 18.4850362,21.1590402 18.5,21.3 L18.5,23.8 C18.5,24.1 18.7,24.1 18.9,24.1 L20.9,24.1 C21.2,24.1 21.5,24.1 21.5,23.8 L21.5,23.5 L21.5,23.5 L21.5,22.7 C21.4844206,22.0484567 21.6966105,21.4118869 22.1,20.9 L22.7,20.3 L23.1,20.1 L23.1,20.1 C24.6231761,19.197729 25.5694765,17.5700923 25.6,15.8 C25.6010264,14.3590042 25.015265,12.9797097 23.9776355,11.9798122 C22.940006,10.9799147 21.5399698,10.4456224 20.1,10.5 L20.1,10.5 Z" id="Shape" fill="#FFFFFF" sketch:type="MSShapeGroup"></path>
            </g>
        </g>
    </g>
</svg>