<svg id="industries" xmlns="http://www.w3.org/2000/svg" viewBox="0 0 700 130"><defs><style>.cls-1{fill:none;}.cls-2{fill:#105e7d;}</style></defs><title>assets</title><rect class="cls-1" width="700" height="130"/><path class="cls-2" d="M133.8,45.2l-63-21.8a2.5,2.5,0,0,0-1.6,0L6.6,45.2a2.5,2.5,0,0,0-.1,4.7l25.4,9.8V85c0,1.4,1.4,2.3,2.6,2.9A57.1,57.1,0,0,0,43,90.6v13.6a2.5,2.5,0,0,0,4.4,1.7l5.1-5.7,5.1,5.7a2.5,2.5,0,0,0,1.9.8l0.9-.2a2.5,2.5,0,0,0,1.6-2.3V93.9c2.5,0.2,5,.3,7.5.3a109.9,109.9,0,0,0,25.4-3.1c12.2-3,12.2-4,12.2-5.6V60.1l26.8-10.2V45.2ZM43,85.4c-2.8-.8-4.8-1.5-6.1-1.9V61.6L43,64V85.4Zm11.4,9.3a2.6,2.6,0,0,0-3.7,0L48,97.7V65.9l8.9,3.4V97.7Zm15.1-5.6c-2.4,0-5-.1-7.5-0.4V71.3L69,74l0.9,0.2,0.9-.2L102,62.1V83.8h0A104.7,104.7,0,0,1,69.5,89.2ZM69.9,69l-9.6-3.7h0L59.7,65l-45-17.4L69.9,28.4l55.7,19.2Z"/><path class="cls-2" d="M256.4,47.2a15.1,15.1,0,1,0-18.3,14.7,3.4,3.4,0,0,0-.1.7V92.2a21.7,21.7,0,1,1-43.4,0V87.8c12.2-1.7,25.1-11.8,25.1-20.6V30.8a17.1,17.1,0,0,0-10.4-15.7,7.1,7.1,0,1,0-1.6,6.9,10.2,10.2,0,0,1,5.1,8.8V67.3c0,4.9-11.5,14-21.7,14s-21.7-9.1-21.7-14V30.8a10.2,10.2,0,0,1,5.1-8.8,7.1,7.1,0,1,0-1.6-6.9,17.1,17.1,0,0,0-10.3,15.7V67.3c0,8.7,12.9,18.9,25,20.6v4.3a28.5,28.5,0,1,0,57.1,0V62.7a3.4,3.4,0,0,0-.1-0.8A15.1,15.1,0,0,0,256.4,47.2Zm-15.1,8.2a8.2,8.2,0,1,1,8.2-8.2A8.3,8.3,0,0,1,241.3,55.4Z"/><path class="cls-2" d="M403.7,33.3L351.8,12.4a4.1,4.1,0,0,0-1.9-.4,5.3,5.3,0,0,0-1.8.4l-52,21.2a5.4,5.4,0,0,0-3,6,5.2,5.2,0,0,0,4.9,4.6h6.1v60.8h-5.8a2.5,2.5,0,0,0-2.7,2.5,2.6,2.6,0,0,0,2.7,2.5H400.9a2.5,2.5,0,0,0,2.7-2.5,2.6,2.6,0,0,0-2.7-2.5h-5.4V44.6a1,1,0,0,0-.1-0.5h6.3c2.9,0,4.6-2.7,4.9-4.6A5.6,5.6,0,0,0,403.7,33.3ZM314.3,44.6v60.3h-5.1V44.1h5.1v0.5Zm10.1,0.8v59.6h-5.1V44.1h5.4A2.1,2.1,0,0,0,324.5,45.3Zm44.4-.8v60.3H329.5V45.3a3.7,3.7,0,0,0-.3-1.3h39.5v0.5Zm10.1,0v60.3h-5.1V44.1h5.1v0.5Zm10.1,0v60.3H384V44.1h5.2A0.6,0.6,0,0,0,389.1,44.6Zm12-5.6H298.7a0.3,0.3,0,0,1-.3-0.4h0l51.6-21.2h0.1l51.2,20.7a1,1,0,0,1,.1.5A0.5,0.5,0,0,1,401.1,39Z"/><path class="cls-2" d="M353.9,82.1c0,2.3-2,3.4-4.2,3.4a10.2,10.2,0,0,1-5.8-2,1.4,1.4,0,0,0-2.3.4l-0.9,1.3a1.5,1.5,0,0,0,.3,2.3,14.6,14.6,0,0,0,6.8,2.8v2.3c0,0.9.5,1.4,1.6,1.4h0.3a1.4,1.4,0,0,0,1.5-1.6v-2c4.9-.6,7.7-4.2,7.7-8.2,0-9-13.7-8.2-13.7-13.1,0-2,1.9-3.4,4.3-3.4a9.4,9.4,0,0,1,4.8,1.5c1,0.5,1.8.4,2.3-.5l0.6-1.4a1.5,1.5,0,0,0-.5-2.3,12.3,12.3,0,0,0-5.8-2V58.5a1.3,1.3,0,0,0-1.5-1.4h-0.3a1.4,1.4,0,0,0-1.6,1.6v2.2c-4.4.8-7.6,3.9-7.6,8.1C340.2,77.6,353.9,77.3,353.9,82.1Z"/><path class="cls-2" d="M412.6,113.8H286.6a2.5,2.5,0,1,0,0,5.1H412.5a2.5,2.5,0,0,0,2.7-2.5A2.4,2.4,0,0,0,412.6,113.8Z"/><path class="cls-2" d="M521,55.7V46.1H492.2V29c8,1.1,16-8.5,24-2.1V7.7c-9.6-7.7-19.2,7.7-28.8,0V46.1H458.6v9.6H439.4v62.4H540.2V55.7H521Zm-4.8,14.4H501.8V50.9h14.4V70.1ZM463.4,50.9h14.4V70.1H463.4V50.9Zm19.2,0H497V70.1H482.6V50.9Zm-38.4,9.6h14.4v9.6H444.2V60.5Zm91.2,52.8h-4.8V79.7h-4.8v33.6H521V79.7h-4.8v33.6h-4.8V79.7h-4.8v33.6h-4.8V79.7H497v33.6h-4.8V79.7h-4.8v33.6h-4.8V79.7h-4.8v33.6H473V79.7h-4.8v33.6h-4.8V79.7h-4.8v33.6h-4.8V79.7H449v33.6h-4.8V74.9h91.2v38.4Zm0-43.2H521V60.5h14.4v9.6Z"/><path class="cls-2" d="M646.2,50.7V33.6L606,54.8H605V47.3h-7.5V22.9h-7.5V47.3h-7.5v7.5h-9.4v54.3H685.5V32Zm31.8,50.9H580.7V62.3h27.1L638.7,46V62.6l39.3-18.7v57.7Zm-86.1-9.4h7.5V75.4h-7.5V92.2Zm22.5,0h7.5V75.4h-7.5V92.2Zm22.5,0h7.5V75.4h-7.5V92.2Zm30-16.8h-7.5V92.2h7.5V75.4Z"/></svg>