<?xml version="1.0" encoding="UTF-8" standalone="no"?>
<svg width="290px" height="150px" viewBox="0 0 290 150" version="1.1" xmlns="http://www.w3.org/2000/svg" xmlns:xlink="http://www.w3.org/1999/xlink" xmlns:sketch="http://www.bohemiancoding.com/sketch/ns">
    <!-- Generator: Sketch 3.5.2 (25235) - http://www.bohemiancoding.com/sketch -->
    <title>logo</title>
    <desc>Created with Sketch.</desc>
    <defs>
        <path id="path-1" d="M0,0.115148936 L276.557585,0.115148936 L276.557585,132 L0,132 L0,0.115148936 Z"></path>
        <path id="path-3" d="M0,0.115148936 L276.557585,0.115148936 L276.557585,132 L0,132"></path>
        <path id="path-5" d="M0,0.115148936 L276.557585,0.115148936 L276.557585,132 L0,132 L0,0.115148936 Z"></path>
    </defs>
    <g id="Assets" stroke="none" stroke-width="1" fill="none" fill-rule="evenodd" sketch:type="MSPage">
        <g id="logo" sketch:type="MSArtboardGroup">
            <g id="Page-1" sketch:type="MSLayerGroup" transform="translate(7.000000, 9.000000)">
                <path d="M45.3954777,104.278315 C39.4960506,104.278315 35.100498,99.4128511 35.100498,93.2318809 C35.100498,87.1121362 39.4091377,82.1253447 45.5407065,82.1253447 C49.2706741,82.1253447 51.5270466,83.5020766 53.4643644,85.4601702 L51.1793947,88.2445277 C49.5600101,86.6537872 47.8251154,85.583183 45.5115486,85.583183 C41.6363522,85.583183 38.8310263,88.9489021 38.8310263,93.1717787 C38.8310263,97.3940936 41.6363522,100.820477 45.5115486,100.820477 C47.9989413,100.820477 49.589168,99.7493106 51.3240628,98.0361191 L53.6084717,100.484579 C51.4978887,102.809464 49.1843219,104.278315 45.3954777,104.278315" id="Fill-1" fill="#061922" sketch:type="MSShapeGroup"></path>
                <path d="M60.8960389,94.8851387 L60.8960389,103.910569 L57.3387757,103.910569 L57.3387757,82.4928664 L60.8960389,82.4928664 L60.8960389,91.3964068 L70.555713,91.3964068 L70.555713,82.4928664 L74.1124154,82.4928664 L74.1124154,103.910569 L70.555713,103.910569 L70.555713,94.8851387 L60.8960389,94.8851387 Z" id="Fill-3" fill="#061922" sketch:type="MSShapeGroup"></path>
                <path d="M88.0804488,86.8370145 L84.6106593,95.4052187 L91.5793962,95.4052187 L88.0804488,86.8370145 Z M98.6939225,103.910512 L94.934797,103.910512 L92.8814083,98.7400443 L83.3086472,98.7400443 L81.2266613,103.910512 L77.5824852,103.910512 L86.4896613,82.3389038 L89.7867464,82.3389038 L98.6939225,103.910512 Z" id="Fill-5" fill="#061922" sketch:type="MSShapeGroup"></path>
                <path d="M110.897791,85.9198672 L105.721143,85.9198672 L105.721143,93.1102162 L110.926949,93.1102162 C113.471536,93.1102162 115.091481,91.7025906 115.091481,89.4995949 C115.091481,87.1432545 113.529291,85.9198672 110.897791,85.9198672 L110.897791,85.9198672 Z M115.148676,103.910625 L110.174451,96.4450417 L105.721143,96.4450417 L105.721143,103.910625 L102.16388,103.910625 L102.16388,82.4923609 L111.187127,82.4923609 C115.842858,82.4923609 118.705939,85.0936034 118.705939,89.2855864 C118.705939,92.8349821 116.710305,94.9761906 113.876382,95.8024545 L119.342366,103.910625 L115.148676,103.910625 Z" id="Fill-7" fill="#061922" sketch:type="MSShapeGroup"></path>
                <path d="M130.620528,85.9198672 L126.629821,85.9198672 L126.629821,100.484803 L130.620528,100.484803 C134.871973,100.484803 137.648141,97.4544204 137.648141,93.2321055 C137.648141,89.0103523 134.871973,85.9198672 130.620528,85.9198672 M130.620528,103.910625 L123.072558,103.910625 L123.072558,82.4923609 L130.620528,82.4923609 C136.983117,82.4923609 141.378669,87.1123609 141.378669,93.1714417 C141.378669,99.2293991 136.983117,103.910625 130.620528,103.910625" id="Fill-9" fill="#061922" sketch:type="MSShapeGroup"></path>
                <path d="M144.617382,100.789583 L146.034344,99.0157277 C148.145488,101.035047 150.169718,102.044426 152.975044,102.044426 C155.693457,102.044426 157.486668,100.514349 157.486668,98.4034723 L157.486668,98.3422468 C157.486668,96.3532596 156.474552,95.2208681 152.223107,94.2727149 C147.567376,93.2021106 145.427075,91.6102468 145.427075,88.0923064 L145.427075,88.0305191 C145.427075,84.6648 148.232401,82.1865702 152.079,82.1865702 C155.028433,82.1865702 157.139577,83.0740596 159.192965,84.8181447 L157.862356,86.6846809 C155.982793,85.0630468 154.103231,84.3586723 152.020684,84.3586723 C149.389184,84.3586723 147.712044,85.8893106 147.712044,87.8165106 L147.712044,87.8782979 C147.712044,89.8964936 148.752757,91.0288851 153.206065,92.0393872 C157.717688,93.0790979 159.800235,94.8237447 159.800235,98.0973447 L159.800235,98.1585702 C159.800235,101.830979 156.907996,104.217089 152.888131,104.217089 C149.677959,104.217089 147.046459,103.084698 144.617382,100.789583" id="Fill-11" fill="#061922" sketch:type="MSShapeGroup"></path>
                <path d="M164.455909,82.4925855 L166.596211,82.4925855 L179.349986,99.6576409 L179.349986,82.4925855 L181.576079,82.4925855 L181.576079,103.910849 L179.754272,103.910849 L166.683124,86.3475472 L166.683124,103.910849 L164.455909,103.910849 L164.455909,82.4925855 Z" id="Fill-13" fill="#061922" sketch:type="MSShapeGroup"></path>
                <path d="M193.635672,95.4358877 L185.220255,82.4925855 L187.996423,82.4925855 L194.821614,93.2019983 L201.704559,82.4925855 L204.365217,82.4925855 L195.949239,95.404994 L195.949239,103.910849 L193.635672,103.910849 L193.635672,95.4358877 Z" id="Fill-15" fill="#061922" sketch:type="MSShapeGroup"></path>
                <path d="M213.913362,101.677129 C219.032255,101.677129 222.299621,98.0052817 222.299621,93.2628306 L222.299621,93.2021668 C222.299621,88.4585923 219.032255,84.7260817 213.913362,84.7260817 L209.170718,84.7260817 L209.170718,101.677129 L213.913362,101.677129 Z M206.885749,82.492754 L213.913362,82.492754 C220.275951,82.492754 224.671504,87.1121923 224.671504,93.1409413 L224.671504,93.2021668 C224.671504,99.2297923 220.275951,103.911018 213.913362,103.911018 L206.885749,103.911018 L206.885749,82.492754 Z" id="Fill-17" fill="#061922" sketch:type="MSShapeGroup"></path>
                <path d="M228.377865,82.4925855 L243.011764,82.4925855 L243.011764,84.6955813 L230.662834,84.6955813 L230.662834,92.0083813 L241.709751,92.0083813 L241.709751,94.211377 L230.662834,94.211377 L230.662834,101.707854 L243.155871,101.707854 L243.155871,103.910849 L228.377865,103.910849 L228.377865,82.4925855 Z" id="Fill-19" fill="#061922" sketch:type="MSShapeGroup"></path>
                <path d="M255.694775,93.4161753 C258.731682,93.4161753 260.900581,91.7642094 260.900581,89.0101838 L260.900581,88.9489583 C260.900581,86.3168221 258.99186,84.7260817 255.723933,84.7260817 L249.477415,84.7260817 L249.477415,93.4161753 L255.694775,93.4161753 Z M247.192445,82.492754 L255.897198,82.492754 C258.384591,82.492754 260.379664,83.2881243 261.652518,84.6339626 C262.635475,85.6742349 263.214147,87.1739796 263.214147,88.8568391 L263.214147,88.9180647 C263.214147,92.4674604 260.900581,94.5485668 257.719006,95.1602604 L263.936927,103.911018 L261.131601,103.911018 L255.261332,95.5882774 L255.203577,95.5882774 L249.477415,95.5882774 L249.477415,103.911018 L247.192445,103.911018 L247.192445,82.492754 Z" id="Fill-21" fill="#061922" sketch:type="MSShapeGroup"></path>
                <g id="Group-25">
                    <mask id="mask-2" sketch:name="Clip 24" fill="white">
                        <use xlink:href="#path-1"></use>
                    </mask>
                    <g id="Clip-24"></g>
                    <path d="M47.3690186,11.4877634 L69.5307008,23.2368868 C84.4718789,8.84664 96.1838202,0.114980426 96.1838202,0.114980426 C96.1838202,0.114980426 82.0052332,4.86248681 67.50647,5.98645277 C53.0267717,7.10929532 41.1325935,5.27702298 41.1325935,5.27702298 C41.1325935,5.27702298 42.3443283,16.9143677 39.6472231,33.6379251 C36.3568668,54.0305209 25.7697474,77.317006 25.7697474,77.317006 C25.7697474,77.317006 36.0535126,58.4690911 56.5784275,36.4037464 C59.6512211,33.0998145 62.6909316,29.9756272 65.6403648,27.0446655 L47.3690186,11.4877634 Z" id="Fill-23" fill="#7FB942" sketch:type="MSShapeGroup" mask="url(#mask-2)"></path>
                </g>
                <g id="Group-28">
                    <mask id="mask-4" sketch:name="Clip 27" fill="white">
                        <use xlink:href="#path-3"></use>
                    </mask>
                    <g id="Clip-27"></g>
                    <path d="M94.0195755,28.0656153 C94.7642233,16.6484579 98.2508346,2.42616 98.2508346,2.42616 C98.2508346,2.42616 87.0390634,11.7436749 72.8055249,25.9817004 L87.3351281,46.4079983 L68.9622901,29.8737345 C65.5670775,33.3540409 62.0501868,37.0753174 58.5114277,40.9842026 C44.5672253,56.3888834 34.4079419,70.0449855 29.4426889,77.0421089 C26.0323366,81.5138196 17.060116,94.4537515 14.6977658,108.941734 C6.2728164,112.400134 2.07351883,116.502807 -5.60728745e-05,121.381751 L1.77801478,123.506671 C3.95420304,118.843981 6.99783866,114.561003 14.5418832,111.176747 C14.4045047,112.257462 14.3147881,113.017445 14.2682476,114.095913 C14.0035836,120.117922 16.4466787,125.447351 21.0222253,129.229292 C23.3509318,131.150875 26.3446626,131.972645 28.917286,131.999045 C29.7740796,132.010279 30.6347982,131.912543 31.4949561,131.705275 C36.7848711,130.433581 40.1559723,125.787743 40.084199,119.868526 C40.0146686,114.092543 36.5342253,109.198432 28.6800978,107.511079 C25.5736605,106.842092 22.4145148,107.062841 19.3714399,107.798671 L18.478199,109.746092 C21.7265006,108.696271 25.1256383,108.086262 28.4053407,108.79176 C35.5551929,110.327454 38.3997698,114.387998 38.4631322,119.643845 C38.5259338,124.928339 35.5950047,128.837224 30.8332962,129.494415 C26.8919338,130.037581 24.1757638,129.264117 22.2423711,127.666637 C21.9311666,127.409939 21.6311767,127.148747 21.3384763,126.8825 C20.9358731,126.562892 20.568035,126.230926 20.2147759,125.892781 C11.5481524,116.393275 18.0671848,100.272986 21.7522941,92.989394 C21.9502314,92.6063132 22.145365,92.2193004 22.3472273,91.8418366 C22.3483488,91.8395898 22.3489095,91.837343 22.3505917,91.8350962 C25.7542152,85.5041515 29.8088447,80.2196579 32.9646261,76.8460749 L32.9629439,76.8471983 C32.9629439,76.8471983 55.2048103,51.2127983 94.0644338,52.7805089 C93.9321018,50.6235728 93.2956747,39.1479983 94.0195755,28.0656153" id="Fill-26" fill="#04B2BE" sketch:type="MSShapeGroup" mask="url(#mask-4)"></path>
                </g>
                <path d="M162.464313,121.033946 C162.301702,120.87049 162.098157,120.802524 161.596305,120.802524 L158.042967,120.802524 L158.042967,124.362592 L161.610323,124.362592 C162.084139,124.362592 162.314598,124.32215 162.47777,124.171614 C162.626924,124.022201 162.789536,123.750337 162.789536,122.596039 C162.789536,121.523188 162.640943,121.21032 162.464313,121.033946 L162.464313,121.033946 Z M161.514999,119.893129 C162.016851,119.893129 162.220396,119.825163 162.382447,119.67575 C162.545619,119.512294 162.694772,119.22695 162.694772,118.275988 C162.694772,117.351988 162.559076,117.053724 162.396465,116.890269 C162.247311,116.740856 162.016851,116.700414 161.528457,116.700414 L158.042967,116.700414 L158.042967,119.893129 L161.514999,119.893129 Z M156.971975,115.776975 L161.718544,115.776975 C162.42394,115.776975 162.871402,115.885384 163.182606,116.170729 C163.576238,116.536958 163.765764,117.013282 163.765764,118.290031 C163.765764,119.635307 163.291949,120.097026 162.450855,120.340805 L162.450855,120.354848 C163.481475,120.558746 163.861088,121.101911 163.861088,122.58312 C163.861088,124.103648 163.617171,124.524924 163.250455,124.864754 C162.952147,125.16358 162.450855,125.286031 161.772934,125.286031 L156.971975,125.286031 L156.971975,115.776975 Z" id="Fill-29" fill="#939598" sketch:type="MSShapeGroup"></path>
                <path d="M166.724562,121.16999 L170.738819,121.16999 C170.725361,119.675862 170.61658,119.308509 170.399578,119.105173 C170.250424,118.955198 170.060337,118.887232 169.53157,118.887232 L167.917793,118.887232 C167.402483,118.887232 167.212956,118.941717 167.036888,119.118654 C166.832782,119.322551 166.738019,119.648339 166.724562,121.16999 L166.724562,121.16999 Z M166.724562,121.970977 C166.738019,123.62856 166.846801,123.99479 167.049784,124.199249 C167.212956,124.362705 167.402483,124.403147 167.917793,124.403147 L169.721657,124.403147 C170.169118,124.403147 170.358645,124.3481 170.508359,124.199249 C170.670971,124.036917 170.738819,123.804934 170.752276,123.057871 L171.728505,123.057871 C171.70159,124.171726 171.579351,124.551998 171.226653,124.905309 C170.955821,125.177734 170.603122,125.286143 169.911744,125.286143 L167.823029,125.286143 C167.07726,125.286143 166.656714,125.190654 166.344948,124.878347 C165.883469,124.416066 165.720857,123.832458 165.720857,121.64519 C165.720857,119.471964 165.883469,118.887232 166.344948,118.424951 C166.656714,118.113769 167.07726,118.018279 167.823029,118.018279 L169.640351,118.018279 C170.372663,118.018279 170.820124,118.126688 171.104975,118.412032 C171.565894,118.887232 171.728505,119.471964 171.728505,121.577224 L171.728505,121.808645 C171.728505,121.917054 171.688133,121.970977 171.565894,121.970977 L166.724562,121.970977 Z" id="Fill-31" fill="#939598" sketch:type="MSShapeGroup"></path>
                <path d="M173.778585,125.286199 L173.778585,118.018335 L174.78229,118.018335 L174.78229,118.982216 C175.731043,118.207629 176.070284,118.004854 176.843529,118.004854 L177.901624,118.004854 C178.578984,118.004854 178.890749,118.126744 179.162703,118.384565 C179.433535,118.66991 179.541755,119.063663 179.541755,119.83825 L179.541755,125.286199 L178.538612,125.286199 L178.538612,119.906216 C178.538612,119.48494 178.484782,119.267561 178.32161,119.105229 C178.172456,118.955254 178.03676,118.901331 177.507432,118.901331 L176.558679,118.901331 C175.948045,118.901331 175.540956,119.063663 174.78229,119.552906 L174.78229,125.286199 L173.778585,125.286199 Z" id="Fill-33" fill="#939598" sketch:type="MSShapeGroup"></path>
                <path d="M182.59526,121.16999 L186.609517,121.16999 C186.59606,119.675862 186.487278,119.308509 186.270276,119.105173 C186.121122,118.955198 185.931035,118.887232 185.402268,118.887232 L183.788491,118.887232 C183.273181,118.887232 183.083655,118.941717 182.907586,119.118654 C182.703481,119.322551 182.608717,119.648339 182.59526,121.16999 L182.59526,121.16999 Z M182.59526,121.970977 C182.608717,123.62856 182.717499,123.99479 182.920483,124.199249 C183.083655,124.362705 183.273181,124.403147 183.788491,124.403147 L185.592355,124.403147 C186.039817,124.403147 186.229343,124.3481 186.379057,124.199249 C186.541669,124.036917 186.609517,123.804934 186.622974,123.057871 L187.599203,123.057871 C187.572288,124.171726 187.450049,124.551998 187.097351,124.905309 C186.826519,125.177734 186.473821,125.286143 185.782442,125.286143 L183.693728,125.286143 C182.947958,125.286143 182.527412,125.190654 182.215647,124.878347 C181.754167,124.416066 181.591555,123.832458 181.591555,121.64519 C181.591555,119.471964 181.754167,118.887232 182.215647,118.424951 C182.527412,118.113769 182.947958,118.018279 183.693728,118.018279 L185.511049,118.018279 C186.243361,118.018279 186.690823,118.126688 186.975673,118.412032 C187.436592,118.887232 187.599203,119.471964 187.599203,121.577224 L187.599203,121.808645 C187.599203,121.917054 187.558831,121.970977 187.436592,121.970977 L182.59526,121.970977 Z" id="Fill-35" fill="#939598" sketch:type="MSShapeGroup"></path>
                <mask id="mask-6" sketch:name="Clip 38" fill="white">
                    <use xlink:href="#path-5"></use>
                </mask>
                <g id="Clip-38"></g>
                <path d="M195.358455,125.285974 L194.354751,125.285974 L194.354751,118.018111 L195.358455,118.018111 L195.358455,125.285974 Z M195.453219,116.672834 L194.259988,116.672834 L194.259988,115.368562 L195.453219,115.368562 L195.453219,116.672834 Z M190.136949,125.285974 L190.136949,118.887064 L188.889889,118.887064 L188.889889,118.018111 L190.136949,118.018111 L190.136949,117.488426 C190.136949,116.591949 190.259188,116.143149 190.530581,115.885328 C190.787955,115.627506 191.059348,115.504494 191.655964,115.504494 L192.768449,115.504494 L192.768449,116.360528 L191.846051,116.360528 C191.520267,116.360528 191.412047,116.415013 191.317283,116.509379 C191.195045,116.632391 191.140654,116.862689 191.140654,117.460902 L191.140654,118.018111 L192.781907,118.018111 L192.781907,118.887064 L191.154672,118.887064 L191.154672,125.285974 L190.136949,125.285974 Z" id="Fill-37" fill="#939598" sketch:type="MSShapeGroup" mask="url(#mask-6)"></path>
                <path d="M201.097122,125.068989 L200.459573,125.231321 C200.201638,125.286368 199.862958,125.339729 199.483344,125.339729 C199.008407,125.339729 198.669727,125.258844 198.411792,125.001023 C198.167875,124.756121 198.100027,124.443814 198.100027,123.860206 L198.100027,118.886895 L196.852405,118.886895 L196.852405,118.017942 L198.100027,118.017942 L198.100027,116.198027 L199.117188,116.198027 L199.117188,118.017942 L201.110579,118.017942 L201.110579,118.886895 L199.117188,118.886895 L199.117188,123.628785 C199.117188,124.009057 199.158122,124.171389 199.266342,124.266878 C199.347648,124.362368 199.497363,124.416291 199.903891,124.416291 L201.097122,124.416291 L201.097122,125.068989 Z" id="Fill-39" fill="#939598" sketch:type="MSShapeGroup" mask="url(#mask-6)"></path>
                <path d="M212.191757,124.864923 C211.920925,125.136786 211.527293,125.286199 210.808439,125.286199 L207.567427,125.286199 C206.86203,125.286199 206.468959,125.19071 206.184109,124.892446 C205.817953,124.525093 205.682817,124.145382 205.668799,122.419271 L206.712876,122.419271 C206.739791,123.750506 206.807639,123.994846 206.970811,124.158301 C207.106508,124.294233 207.282577,124.362199 207.730038,124.362199 L210.645828,124.362199 C211.093289,124.362199 211.283376,124.307714 211.43253,124.145382 C211.608599,123.968446 211.689904,123.588174 211.689904,122.677093 C211.689904,121.794097 211.649532,121.549757 211.445987,121.34642 C211.296834,121.210489 211.120765,121.142523 210.605455,121.10208 L207.635275,120.829654 C206.889506,120.761689 206.496435,120.612837 206.2385,120.355016 C205.899259,120.014625 205.791038,119.580429 205.791038,118.358165 C205.791038,117.189825 205.926174,116.605093 206.34672,116.197859 C206.604655,115.925995 207.011745,115.776582 207.716581,115.776582 L210.659846,115.776582 C211.364121,115.776582 211.77121,115.870948 212.056621,116.170335 C212.436234,116.551169 212.544455,116.944923 212.571931,118.575544 L211.513836,118.575544 C211.500378,117.352157 211.43253,117.081416 211.269358,116.90448 C211.120765,116.768548 210.944135,116.700582 210.510131,116.700582 L207.879753,116.700582 C207.43173,116.700582 207.255101,116.754506 207.092489,116.917961 C206.916421,117.107254 206.849133,117.528531 206.849133,118.344123 C206.849133,119.199595 206.902963,119.431016 207.092489,119.620871 C207.242204,119.770284 207.418273,119.810727 207.933583,119.852293 L210.903202,120.123595 C211.622056,120.191561 212.029145,120.340412 212.287081,120.599357 C212.625761,120.938625 212.748,121.400344 212.748,122.664174 C212.748,123.92688 212.598846,124.471169 212.191757,124.864923" id="Fill-40" fill="#939598" sketch:type="MSShapeGroup" mask="url(#mask-6)"></path>
                <path d="M215.950378,124.185825 C216.11355,124.335237 216.316533,124.388599 216.831843,124.388599 L218.513469,124.388599 C219.028778,124.388599 219.232884,124.335237 219.381477,124.185825 C219.598479,123.968446 219.720718,123.615135 219.720718,121.645246 C219.720718,119.688837 219.598479,119.335527 219.381477,119.11871 C219.232884,118.954693 219.028778,118.91425 218.513469,118.91425 L216.831843,118.91425 C216.316533,118.91425 216.11355,118.954693 215.950378,119.11871 C215.733376,119.335527 215.625155,119.688837 215.625155,121.645246 C215.625155,123.615135 215.733376,123.968446 215.950378,124.185825 M215.245541,124.877842 C214.784062,124.416123 214.62145,123.832514 214.62145,121.645246 C214.62145,119.471459 214.784062,118.886727 215.245541,118.425008 C215.557307,118.113263 215.977853,118.018335 216.723622,118.018335 L218.62225,118.018335 C219.354562,118.018335 219.788566,118.113263 220.086873,118.425008 C220.561811,118.886727 220.724422,119.471459 220.724422,121.645246 C220.724422,123.832514 220.561811,124.416123 220.086873,124.877842 C219.788566,125.19071 219.354562,125.286199 218.62225,125.286199 L216.723622,125.286199 C215.977853,125.286199 215.557307,125.19071 215.245541,124.877842" id="Fill-41" fill="#939598" sketch:type="MSShapeGroup" mask="url(#mask-6)"></path>
                <path d="M223.279383,115.504494 L224.190567,115.504494 L224.190567,125.285974 L223.279383,125.285974 L223.279383,115.504494 Z" id="Fill-42" fill="#9D9FA2" sketch:type="MSShapeGroup" mask="url(#mask-6)"></path>
                <path d="M232.435522,118.018054 L232.435522,125.285918 L231.432379,125.285918 L231.432379,124.307433 C230.469047,125.095501 230.116909,125.299399 229.357682,125.299399 L228.299587,125.299399 C227.621666,125.299399 227.30934,125.17751 227.051966,124.905646 C226.767115,124.63322 226.658334,124.239467 226.658334,123.46488 L226.658334,118.018054 L227.662038,118.018054 L227.662038,123.398037 C227.662038,123.805271 227.716429,124.036693 227.87904,124.185544 C228.028755,124.334957 228.177348,124.402923 228.706676,124.402923 L229.65599,124.402923 C230.252045,124.402923 230.659134,124.254071 231.432379,123.750225 L231.432379,118.018054 L232.435522,118.018054 Z" id="Fill-43" fill="#939598" sketch:type="MSShapeGroup" mask="url(#mask-6)"></path>
                <path d="M238.160507,125.068989 L237.522958,125.231321 C237.265023,125.286368 236.926343,125.339729 236.546729,125.339729 C236.071792,125.339729 235.733112,125.258844 235.475177,125.001023 C235.23126,124.756121 235.163412,124.443814 235.163412,123.860206 L235.163412,118.886895 L233.91579,118.886895 L233.91579,118.017942 L235.163412,118.017942 L235.163412,116.198027 L236.180573,116.198027 L236.180573,118.017942 L238.173964,118.017942 L238.173964,118.886895 L236.180573,118.886895 L236.180573,123.628785 C236.180573,124.009057 236.221507,124.171389 236.329727,124.266878 C236.411033,124.362368 236.560748,124.416291 236.967276,124.416291 L238.160507,124.416291 L238.160507,125.068989 Z" id="Fill-44" fill="#939598" sketch:type="MSShapeGroup" mask="url(#mask-6)"></path>
                <path d="M240.859911,125.285974 L239.856767,125.285974 L239.856767,118.018111 L240.859911,118.018111 L240.859911,125.285974 Z M240.955235,116.672834 L239.761443,116.672834 L239.761443,115.368562 L240.955235,115.368562 L240.955235,116.672834 Z" id="Fill-45" fill="#939598" sketch:type="MSShapeGroup" mask="url(#mask-6)"></path>
                <path d="M244.251311,124.185825 C244.414483,124.335237 244.617466,124.388599 245.132776,124.388599 L246.814402,124.388599 C247.329711,124.388599 247.533817,124.335237 247.68241,124.185825 C247.899412,123.968446 248.021651,123.615135 248.021651,121.645246 C248.021651,119.688837 247.899412,119.335527 247.68241,119.11871 C247.533817,118.954693 247.329711,118.91425 246.814402,118.91425 L245.132776,118.91425 C244.617466,118.91425 244.414483,118.954693 244.251311,119.11871 C244.034309,119.335527 243.926088,119.688837 243.926088,121.645246 C243.926088,123.615135 244.034309,123.968446 244.251311,124.185825 M243.546474,124.877842 C243.084995,124.416123 242.922383,123.832514 242.922383,121.645246 C242.922383,119.471459 243.084995,118.886727 243.546474,118.425008 C243.85824,118.113263 244.278786,118.018335 245.024555,118.018335 L246.923183,118.018335 C247.655495,118.018335 248.089499,118.113263 248.387806,118.425008 C248.862744,118.886727 249.025355,119.471459 249.025355,121.645246 C249.025355,123.832514 248.862744,124.416123 248.387806,124.877842 C248.089499,125.19071 247.655495,125.286199 246.923183,125.286199 L245.024555,125.286199 C244.278786,125.286199 243.85824,125.19071 243.546474,124.877842" id="Fill-46" fill="#939598" sketch:type="MSShapeGroup" mask="url(#mask-6)"></path>
                <path d="M251.102182,125.286199 L251.102182,118.018335 L252.105326,118.018335 L252.105326,118.982216 C253.05464,118.207629 253.393881,118.004854 254.167126,118.004854 L255.22466,118.004854 C255.902581,118.004854 256.214346,118.126744 256.4863,118.384565 C256.757132,118.66991 256.865352,119.063663 256.865352,119.83825 L256.865352,125.286199 L255.862209,125.286199 L255.862209,119.906216 C255.862209,119.48494 255.808379,119.267561 255.645206,119.105229 C255.496053,118.955254 255.360356,118.901331 254.831028,118.901331 L253.882275,118.901331 C253.271642,118.901331 252.865113,119.063663 252.105326,119.552906 L252.105326,125.286199 L251.102182,125.286199 Z" id="Fill-47" fill="#939598" sketch:type="MSShapeGroup" mask="url(#mask-6)"></path>
                <path d="M264.176919,124.960356 C263.946459,125.190654 263.634694,125.286143 263.105927,125.286143 L260.448072,125.286143 C259.891269,125.286143 259.498198,125.177734 259.295214,124.973275 C258.982888,124.660969 258.888125,124.362705 258.874668,123.085394 L259.797066,123.085394 C259.823981,123.96839 259.878372,124.145326 260.013508,124.280134 C260.108832,124.375624 260.243967,124.44359 260.624141,124.44359 L262.875467,124.44359 C263.20069,124.44359 263.349844,124.388543 263.472083,124.267215 C263.580864,124.158245 263.675066,123.981871 263.675066,123.288169 C263.675066,122.664117 263.607218,122.474262 263.498998,122.378773 C263.404234,122.270364 263.268538,122.202398 262.807619,122.174875 L260.501902,121.944577 C259.837439,121.876611 259.539692,121.781122 259.335587,121.577224 C259.064755,121.305922 258.969431,120.952611 258.969431,120.014569 C258.969431,119.105173 259.119145,118.643454 259.417453,118.344066 C259.647913,118.113769 259.94566,118.018279 260.488445,118.018279 L262.997706,118.018279 C263.580864,118.018279 263.906087,118.126688 264.109631,118.330586 C264.394481,118.61593 264.51616,118.955198 264.529617,120.163981 L263.607218,120.163981 C263.580864,119.307947 263.512455,119.145615 263.390777,119.023164 C263.296014,118.928798 263.146299,118.860832 262.780143,118.860832 L260.705447,118.860832 C260.407139,118.860832 260.243967,118.914194 260.135747,119.023164 C260.013508,119.145615 259.918745,119.335471 259.918745,119.961207 C259.918745,120.544815 259.959678,120.72119 260.081356,120.829598 C260.190137,120.952611 260.311815,121.006534 260.786753,121.046977 L263.119384,121.278398 C263.783848,121.332322 264.082155,121.44073 264.272243,121.631709 C264.543074,121.903011 264.624941,122.324288 264.624941,123.234807 C264.624941,124.226211 264.489245,124.647488 264.176919,124.960356" id="Fill-48" fill="#939598" sketch:type="MSShapeGroup" mask="url(#mask-6)"></path>
                <path d="M271.504185,82.686766 L272.101362,82.686766 L274.03924,85.6463745 L275.975997,82.686766 L276.558034,82.686766 L276.558034,87.6673787 L275.992819,87.6673787 L275.992819,83.6894043 L274.071202,86.5681277 L273.991017,86.5681277 L272.0694,83.6894043 L272.0694,87.6673787 L271.504185,87.6673787 L271.504185,82.686766 Z M268.178503,83.2366723 L266.547904,83.2366723 L266.547904,82.686766 L270.373756,82.686766 L270.373756,83.2366723 L268.743157,83.2366723 L268.743157,87.6673787 L268.178503,87.6673787 L268.178503,83.2366723 Z" id="Fill-49" fill="#231F1F" sketch:type="MSShapeGroup" mask="url(#mask-6)"></path>
            </g>
        </g>
    </g>
</svg>