<?xml version="1.0" encoding="UTF-8" standalone="no"?>
<svg width="70px" height="70px" viewBox="0 0 70 70" version="1.1" xmlns="http://www.w3.org/2000/svg" xmlns:xlink="http://www.w3.org/1999/xlink" xmlns:sketch="http://www.bohemiancoding.com/sketch/ns">
    <!-- Generator: Sketch 3.5.2 (25235) - http://www.bohemiancoding.com/sketch -->
    <title>search</title>
    <desc>Created with Sketch.</desc>
    <defs></defs>
    <g id="Assets" stroke="none" stroke-width="1" fill="none" fill-rule="evenodd" sketch:type="MSPage">
        <g id="search" sketch:type="MSArtboardGroup" fill="#FFFFFF">
            <path d="M44.3978871,41.2002221 L40.6978871,37.6002221 C41.4143415,36.3886886 41.7941024,35.0077398 41.7978871,33.6002221 C41.8792078,30.1857142 39.8849776,27.0619243 36.7534298,25.6985143 C33.6218821,24.3351044 29.9765865,25.0035636 27.5325599,27.3893991 C25.0885332,29.7752347 24.3324424,33.403367 25.6200085,36.5668542 C26.9075746,39.7303414 29.982411,41.7992539 33.3978871,41.8002221 C35.0680744,41.8054505 36.7027907,41.3185137 38.0978871,40.4002221 L41.6978871,43.9002221 C42.4621052,44.5993748 43.6336689,44.5993748 44.3978871,43.9002221 C44.7581977,43.5433881 44.9609129,43.0573259 44.9609129,42.5502221 C44.9609129,42.0431183 44.7581977,41.5570562 44.3978871,41.2002221 L44.3978871,41.2002221 Z M27.5978871,33.6002221 C27.5572853,31.2456661 28.9443765,29.1002784 31.1081561,28.1709559 C33.2719358,27.2416333 35.7828415,27.7128685 37.4624278,29.3634965 C39.1420141,31.0141244 39.6568428,33.5164556 38.7652888,35.696069 C37.8737348,37.8756823 35.7527931,39.2998721 33.3978871,39.3002221 C31.8689017,39.3270506 30.3932612,38.7383813 29.3025773,37.6665022 C28.2118934,36.5946232 27.5976517,35.1294428 27.5978871,33.6002221 L27.5978871,33.6002221 Z" id="Shape" sketch:type="MSShapeGroup"></path>
        </g>
    </g>
</svg>