<svg id="support-center" xmlns="http://www.w3.org/2000/svg" viewBox="0 0 100 100"><defs><style>.cls-1{fill:none;}.cls-2{fill:#fff;}</style></defs><title>assets</title><rect class="cls-1" width="100" height="100"/><path class="cls-2" d="M91.6,5.6a2.8,2.8,0,0,1,2.8,2.8V73.8a2.8,2.8,0,0,1-2.8,2.8H47l-0.9.9L29.4,94.2V76.6H8.4a2.8,2.8,0,0,1-2.8-2.8V8.4A2.8,2.8,0,0,1,8.4,5.6H91.6m0-3.1H8.4A5.9,5.9,0,0,0,2.5,8.4V73.8a5.9,5.9,0,0,0,5.9,5.9H26.2V94.5a2.8,2.8,0,0,0,.1.6v0.6h0l0.2,0.5a0.2,0.2,0,0,1,0,0l0.4,0.4L27.5,97h0l0.5,0.2H30l0.6-.2,0.7-.5L48.3,79.7H91.6a5.9,5.9,0,0,0,5.9-5.9V8.4a5.9,5.9,0,0,0-5.9-5.9h0Z"/><path class="cls-2" d="M46.3,61.2a1,1,0,0,0,.7,1.1h5.6a1.3,1.3,0,0,0,1-1.1V55.1H46.3v6.1Z"/><path class="cls-2" d="M50,18.8A13.5,13.5,0,0,0,36.5,32.2c0,0.2,0,.7,0,0.9v0.5a1.1,1.1,0,0,0,1.2,1.1h4.6a1,1,0,0,0,1.1-1.1V33.3h0v-1A6.8,6.8,0,0,1,50,25.5a6.7,6.7,0,0,1,6.8,6.6,6.5,6.5,0,0,1-3.3,5.7h0c-0.4.2-3.9,1.9-5.4,4.4a10.5,10.5,0,0,0-1.5,3.3,1.7,1.7,0,0,0-.2,1v6.5c0,0.8.4,0.7,1,.7h4.8c0.7,0,1.4.1,1.4-.8V52h0V50a7.4,7.4,0,0,1,1.4-4.6,11.6,11.6,0,0,1,1.5-1.6l1-.6h0a13.2,13.2,0,0,0,6.2-11.1A13.4,13.4,0,0,0,50,18.8Z"/></svg>