<?xml version="1.0" encoding="UTF-8" standalone="no"?>
<svg width="250px" height="50px" viewBox="0 0 250 50" version="1.1" xmlns="http://www.w3.org/2000/svg" xmlns:xlink="http://www.w3.org/1999/xlink" xmlns:sketch="http://www.bohemiancoding.com/sketch/ns">
    <!-- Generator: Sketch 3.5.2 (25235) - http://www.bohemiancoding.com/sketch -->
    <title>support-category-icons</title>
    <desc>Created with Sketch.</desc>
    <defs></defs>
    <g id="Assets" stroke="none" stroke-width="1" fill="none" fill-rule="evenodd" sketch:type="MSPage">
        <g id="support-category-icons" sketch:type="MSArtboardGroup">
            <circle id="Oval-6" fill="#27B1E6" sketch:type="MSShapeGroup" cx="25" cy="25" r="25"></circle>
            <circle id="Oval-6-Copy" fill="#27B1E6" sketch:type="MSShapeGroup" cx="75" cy="25" r="25"></circle>
            <circle id="Oval-6-Copy-2" fill="#27B1E6" sketch:type="MSShapeGroup" cx="125" cy="25" r="25"></circle>
            <circle id="Oval-6-Copy-3" fill="#27B1E6" sketch:type="MSShapeGroup" cx="175" cy="25" r="25"></circle>
            <circle id="Oval-6-Copy-4" fill="#27B1E6" sketch:type="MSShapeGroup" cx="225" cy="25" r="25"></circle>
            <path d="M238.9,19.2 C237.606942,17.8100662 235.798344,17.0142831 233.9,17 C232.14495,16.9933068 230.457345,17.6755301 229.2,18.9 L228.8,18.9 L227,18.7 L226.8,18.7 C226.38042,18.1270723 225.71009,17.7919072 225,17.8 L225,17.8 C224.28991,17.7919072 223.61958,18.1270723 223.2,18.7 L223,18.7 L221.2,18.9 L220.8,18.9 C219.542655,17.6755301 217.85505,16.9933068 216.1,17 C214.201656,17.0142831 212.393058,17.8100662 211.1,19.2 C208.330349,22.1905762 208.330349,26.8094238 211.1,29.8 C212.372095,31.1645791 214.142529,31.9559067 216.007705,31.993587 C217.872881,32.0312673 219.673831,31.3120889 221,30 C221.943075,29.0932628 222.632563,27.9556084 223,26.7 C223.472136,26.0704854 224.213107,25.7 225,25.7 C225.786893,25.7 226.527864,26.0704854 227,26.7 C227.367437,27.9556084 228.056925,29.0932628 229,30 C230.326169,31.3120889 232.127119,32.0312673 233.992295,31.993587 C235.857471,31.9559067 237.627905,31.1645791 238.9,29.8 C241.669651,26.8094238 241.669651,22.1905762 238.9,19.2 L238.9,19.2 Z M216.2,30.3 C213.091151,30.1913636 210.643528,27.6102336 210.7,24.5 C210.7,21.4348196 213.18482,18.95 216.25,18.95 C219.31518,18.95 221.8,21.4348196 221.8,24.5 C221.826756,26.0118012 221.251734,27.4722881 220.201481,28.5600504 C219.151227,29.6478127 217.711809,30.2737098 216.2,30.3 L216.2,30.3 Z M233.9,30.3 C230.791151,30.1913636 228.343528,27.6102336 228.4,24.5 C228.4,21.4348196 230.88482,18.95 233.95,18.95 C237.01518,18.95 239.5,21.4348196 239.5,24.5 C239.526756,26.0118012 238.951734,27.4722881 237.901481,28.5600504 C236.851227,29.6478127 235.411809,30.2737098 233.9,30.3 L233.9,30.3 Z" id="compliance-watch" fill="#FFFFFF" sketch:type="MSShapeGroup"></path>
            <path d="M179.2,12.2 L170.2,12.2 C168.543146,12.2 167.2,13.5431458 167.2,15.2 L167.2,35.2 C167.2,36.8568542 168.543146,38.2 170.2,38.2 L179.2,38.2 C180.856854,38.2 182.2,36.8568542 182.2,35.2 L182.2,15.2 C182.2,14.4043505 181.883929,13.6412888 181.32132,13.0786797 C180.758711,12.5160705 179.995649,12.2 179.2,12.2 L179.2,12.2 Z M174.7,37.2 C174.147715,37.2 173.7,36.7522847 173.7,36.2 C173.7,35.6477153 174.147715,35.2 174.7,35.2 C175.252285,35.2 175.7,35.6477153 175.7,36.2 C175.7,36.7522847 175.252285,37.2 174.7,37.2 L174.7,37.2 Z M181.2,34.2 L168.2,34.2 L168.2,15.2 L181.2,15.2 L181.2,34.2 L181.2,34.2 Z" id="tools-and-apps" fill="#FFFFFF" sketch:type="MSShapeGroup"></path>
            <g id="forms-and-resources" sketch:type="MSLayerGroup" transform="translate(117.000000, 15.000000)" fill="#FFFFFF">
                <path d="M14.9,0 L4.6,0 L-3.96213891e-15,4.7 L-3.96213891e-15,17.8 C-0.00217561813,18.4255755 0.476596351,18.9478722 1.1,19 L14.8,19 C15.4234036,18.9478722 15.9021756,18.4255755 15.9,17.8 L15.9,1.2 C15.9082697,0.608104057 15.483684,0.098601184 14.9,1.77635684e-15 L14.9,0 Z M5,2 L5,5 L2,5 L5,2 Z M15,18 L1,18 L1,6 L4.6,6 C5.25204316,6.06730505 5.85219348,5.63862624 6,5 L6,1 L15,1 L15,18 L15,18 Z" id="Shape" sketch:type="MSShapeGroup"></path>
                <path d="M3,10 L13,10 L13,9 L3,9 L3,10 L3,10 Z" id="Shape" sketch:type="MSShapeGroup"></path>
                <path d="M13,6 L8,6 L8,7 L13,7 L13,6 L13,6 Z" id="Shape" sketch:type="MSShapeGroup"></path>
                <path d="M3,13 L13,13 L13,12 L3,12 L3,13 L3,13 Z" id="Shape" sketch:type="MSShapeGroup"></path>
                <path d="M3,16 L13,16 L13,15 L3,15 L3,16 L3,16 Z" id="Shape" sketch:type="MSShapeGroup"></path>
            </g>
            <g id="faqs" sketch:type="MSLayerGroup" transform="translate(20.000000, 15.000000)" fill="#FFFFFF">
                <path d="M4.1,17.6 C4.09407977,17.7871066 4.21872002,17.9532936 4.4,18 L6.7,18 C6.903192,17.9621568 7.06215679,17.803192 7.1,17.6 L7.1,15.2 L4.1,15.2 L4.1,17.6 L4.1,17.6 Z" id="Shape" sketch:type="MSShapeGroup"></path>
                <path d="M5.6,0.9 C4.16776023,0.873231373 2.78357218,1.41664141 1.75206788,2.41063647 C0.720563567,3.40463153 0.126277459,4.76775113 0.1,6.2 L0.1,6.8 C0.0959825879,6.92593052 0.151533349,7.04639357 0.249918591,7.12510176 C0.348303833,7.20380995 0.478022827,7.23156271 0.6,7.2 L2.5,7.2 C2.7209139,7.2 2.9,7.0209139 2.9,6.8 L2.9,6.8 L2.9,6.2 C2.95381351,4.74802298 4.14702644,3.59900312 5.6,3.6 C7.05297356,3.59900312 8.24618649,4.74802298 8.3,6.2 C8.30250058,7.11613487 7.80370111,7.96025704 7,8.4 L7,8.4 C6.14171425,8.78332246 5.38743974,9.36617094 4.8,10.1 C4.52344168,10.4937207 4.3201862,10.9341076 4.2,11.4 C4.12046259,11.5173345 4.08503617,11.6590402 4.1,11.8 L4.1,14.3 C4.1,14.6 4.3,14.6 4.5,14.6 L6.5,14.6 C6.8,14.6 7.1,14.6 7.1,14.3 L7.1,13.9 L7.1,13.9 L7.1,13.2 C7.08442055,12.5484567 7.29661048,11.9118869 7.7,11.4 L8.3,10.8 L8.7,10.6 L8.7,10.6 C10.2231761,9.697729 11.1694765,8.0700923 11.2,6.3 C11.2302494,4.82351373 10.6430937,3.4013614 9.58003047,2.3762647 C8.51696722,1.35116799 7.07441079,0.816097934 5.6,0.9 L5.6,0.9 Z" id="Shape" sketch:type="MSShapeGroup"></path>
            </g>
            <path d="M70,33 L70,16 L84,24.5 L70,33 Z" id="Shape-Copy" stroke="#FFFFFF" stroke-width="1.8" sketch:type="MSShapeGroup"></path>
        </g>
    </g>
</svg>