<svg id="industries" xmlns="http://www.w3.org/2000/svg" viewBox="0 0 750 150"><defs><style>.cls-1{fill:none;}.cls-2{fill:#cbeaf6;}.cls-3{fill:#105e7d;}.cls-4{fill:#fff;}</style></defs><title>assets</title><rect class="cls-1" width="750" height="150"/><path class="cls-2" d="M135.8,12.2H22.1A8.1,8.1,0,0,0,14,20.3v89.3a8.1,8.1,0,0,0,8.1,8.1H46.5v20.3a3.9,3.9,0,0,0,.1.8v0.3a4,4,0,0,0,.1.5h0l0.3,0.7a0.4,0.4,0,0,1,0,0l0.5,0.6,0.6,0.5h0l0.7,0.3,0.5,0.2h0.9l1.1-.2,0.9-.3,1-.7,23.2-23.2h59.2a8.1,8.1,0,0,0,8.1-8.1V20.3a8.1,8.1,0,0,0-8.1-8.1h0Z"/><path class="cls-3" d="M129,9.6a3.8,3.8,0,0,1,3.8,3.8v89.3a3.8,3.8,0,0,1-3.8,3.8H68l-1.3,1.3L43.9,130.7V106.6H15.3a3.8,3.8,0,0,1-3.8-3.8V13.5a3.9,3.9,0,0,1,3.8-3.8H129m0-4.3H15.3a8.1,8.1,0,0,0-8.1,8.1v89.3a8.1,8.1,0,0,0,8.1,8.1H39.7v20.3a3.9,3.9,0,0,0,.1.8v0.3a4,4,0,0,0,.1.5h0l0.3,0.7a0.3,0.3,0,0,1,0,0l0.5,0.6,0.6,0.5h0l0.7,0.3,0.5,0.2h0.9l1.1-.2,0.9-.3,1-.7,23.2-23.2H129a8.1,8.1,0,0,0,8.1-8.1V13.5A8.1,8.1,0,0,0,129,5.3h0Z"/><path class="cls-3" d="M67.1,85.6c0,0.6.3,1.5,0.9,1.5h7.7A1.7,1.7,0,0,0,77,85.6V77.3H67.1v8.4Z"/><path class="cls-3" d="M72.1,27.6A18.5,18.5,0,0,0,53.6,46c0,0.3,0,1,0,1.3v0.6a1.5,1.5,0,0,0,1.6,1.5h6.3A1.3,1.3,0,0,0,63,47.9V47.5h0V45.9a9.3,9.3,0,0,1,9.3-9.1,9.1,9.1,0,0,1,9.3,9,9,9,0,0,1-4.6,7.7h0c-0.6.3-5.3,2.7-7.4,6.1a14.4,14.4,0,0,0-2.1,4.5,2.3,2.3,0,0,0-.3,1.3v8.9c0,1.1.5,1,1.4,1h6.6c0.9,0,1.9.1,1.9-1V73h0V70.3a10.1,10.1,0,0,1,1.9-6.4,15.8,15.8,0,0,1,2-2.2l1.3-.8h0a18,18,0,0,0,8.4-15.2A18.3,18.3,0,0,0,72.1,27.6Z"/><path class="cls-2" d="M277.5,122.2H181a17.4,17.4,0,0,1-17.3-17.3V51.5A17.4,17.4,0,0,1,181,34.2h96.6a17.4,17.4,0,0,1,17.3,17.3v53.4A17.4,17.4,0,0,1,277.5,122.2Z"/><path class="cls-4" d="M212.8,55.6V82.5L236.1,69Z"/><path class="cls-3" d="M269.2,113.9H172.6a17.4,17.4,0,0,1-17.3-17.3V43.2a17.4,17.4,0,0,1,17.3-17.3h96.6a17.4,17.4,0,0,1,17.3,17.3V96.5A17.4,17.4,0,0,1,269.2,113.9ZM172.6,30a13.2,13.2,0,0,0-13.2,13.2V96.5a13.2,13.2,0,0,0,13.2,13.2h96.6a13.2,13.2,0,0,0,13.2-13.2V43.2A13.2,13.2,0,0,0,269.2,30H172.6Zm36,59.7V48.3L244.5,69Zm4.2-34.2V82.5L236.1,69Z"/><path class="cls-2" d="M441.7,31.6h-2.4V23.9a2.8,2.8,0,0,0-2.7-2.8H408a2.8,2.8,0,0,0-2.7,2.8v7.6H325.1a2.8,2.8,0,0,0-2.8,2.8v85.5a2.8,2.8,0,0,0,2.8,2.8H441.7a2.8,2.8,0,0,0,2.8-2.8V34.3A2.8,2.8,0,0,0,441.7,31.6Z"/><path class="cls-3" d="M434,23.9h-2.4V16.3a2.8,2.8,0,0,0-2.7-2.8H400.4a2.8,2.8,0,0,0-2.7,2.8v7.6H317.5a2.8,2.8,0,0,0-2.8,2.8v85.5a2.8,2.8,0,0,0,2.8,2.8H434a2.8,2.8,0,0,0,2.8-2.8V26.6A2.8,2.8,0,0,0,434,23.9Zm-2.7,85.5H320.2v-80h80.1a2.8,2.8,0,0,0,2.8-2.8V19h23v7.6a2.7,2.7,0,0,0,2.7,2.8h2.4v80h0Z"/><path class="cls-3" d="M389.1,14H307.5a2.8,2.8,0,0,0-2.8,2.8v92h5.5V19.5h78.9V14Z"/><path class="cls-2" d="M550.3,10.2H508a14.3,14.3,0,0,0-14.3,14.3V130.3A14.3,14.3,0,0,0,508,144.6h42.3a14.3,14.3,0,0,0,14.3-14.3V24.5a14.3,14.3,0,0,0-14.3-14.3h0Z"/><rect class="cls-4" x="497.9" y="30.1" width="53.1" height="84.46"/><path class="cls-3" d="M545.1,8.7a10.6,10.6,0,0,1,10.6,10.6V125.1a10.6,10.6,0,0,1-10.6,10.6H502.8a10.6,10.6,0,0,1-10.6-10.6V19.3A10.6,10.6,0,0,1,502.8,8.7h42.3m0-3.7H502.8a14.3,14.3,0,0,0-14.3,14.3V125.1a14.3,14.3,0,0,0,14.3,14.3h42.3a14.3,14.3,0,0,0,14.3-14.3V19.3A14.3,14.3,0,0,0,545.1,5h0Z"/><path class="cls-3" d="M523.9,133.3a7.2,7.2,0,1,1,7.2-7.2A7.2,7.2,0,0,1,523.9,133.3Zm0-10.6a3.4,3.4,0,1,0,3.4,3.4A3.4,3.4,0,0,0,523.9,122.8Z"/><path class="cls-3" d="M552.2,116.4H495.6V28h56.6v88.4Zm-52.9-3.7h49.2V31.8H499.3v80.9Z"/><path class="cls-2" d="M638.1,97a22.7,22.7,0,1,1,22.7-22.7A22.7,22.7,0,0,1,638.1,97Zm72.6,0a22.7,22.7,0,1,1,22.7-22.7A22.7,22.7,0,0,1,710.8,97Z"/><path class="cls-3" d="M731.4,47.1a29.1,29.1,0,0,0-20.7-8.6,28.2,28.2,0,0,0-19.2,7.3,2.1,2.1,0,0,1-1.6.4l-7.2-.9-0.9-.5a9.3,9.3,0,0,0-7.4-3.6h-0.1a9.3,9.3,0,0,0-7.4,3.6l-0.9.5-7.2.9a2.1,2.1,0,0,1-1.6-.4,28.2,28.2,0,0,0-19.2-7.3,29.1,29.1,0,1,0,28.2,37.8c0.7-2.3,3.9-3.9,8.1-3.9s7.5,1.6,8.1,3.9A29.3,29.3,0,1,0,731.4,47.1ZM638.1,90.6a22.7,22.7,0,1,1,22.7-22.7A22.7,22.7,0,0,1,638.1,90.6Zm72.6,0a22.7,22.7,0,1,1,22.7-22.7A22.7,22.7,0,0,1,710.8,90.6Z"/></svg>