<svg id="wben" xmlns="http://www.w3.org/2000/svg" viewBox="0 0 115 50"><defs><style>.cls-1{fill:none;}.cls-2{fill:#fff;}</style></defs><title>assets</title><rect class="cls-1" width="115" height="50"/><path class="cls-2" d="M35.4,5.8V5.2a0.3,0.3,0,0,0-.3-0.4H34.7a5.6,5.6,0,0,0-3-.9,4.5,4.5,0,0,0-3.4,1.5,5.4,5.4,0,0,0-1.3,3.7A4.5,4.5,0,0,0,28,12.6a4.3,4.3,0,0,0,3.2,1.2,6.1,6.1,0,0,0,3-.8l0.4-.3v-1a2.3,2.3,0,0,0,.1-0.5,0.4,0.4,0,0,0-.1-0.3H34.9a0.6,0.6,0,0,0-.4.5,2.5,2.5,0,0,1-1.1,1.3,3.4,3.4,0,0,1-1.9.6,2.8,2.8,0,0,1-2.4-1.2,4.8,4.8,0,0,1-.9-3,4.6,4.6,0,0,1,1-3,3.1,3.1,0,0,1,2.5-1.2,3.5,3.5,0,0,1,2.2.8,2.7,2.7,0,0,1,1,1.5,0.4,0.4,0,0,0,.4.4c0.1,0,.3,0,0.3-0.4V5.8Z"/><path class="cls-2" d="M41.9,10.3a1.9,1.9,0,0,0,1.2-1.6,1.1,1.1,0,0,0-.4-0.9,1.5,1.5,0,0,0-1-.3,2.8,2.8,0,0,0-2.2,1.3,4.4,4.4,0,0,0-1,2.7,2.2,2.2,0,0,0,.5,1.6,1.9,1.9,0,0,0,1.5.6,3,3,0,0,0,1.9-.7,1.1,1.1,0,0,0,.6-0.7,0.2,0.2,0,0,0-.2-0.3l-0.3.2a1.7,1.7,0,0,1-1.3.5,1.4,1.4,0,0,1-1.1-.5,1.6,1.6,0,0,1-.4-1.1V10.8A4.6,4.6,0,0,0,41.9,10.3ZM40.4,8.9a1.5,1.5,0,0,1,1.1-.7,0.5,0.5,0,0,1,.5.5,1.3,1.3,0,0,1-.7,1.1,2.9,2.9,0,0,1-1.6.5A3.4,3.4,0,0,1,40.4,8.9Z"/><path class="cls-2" d="M50.1,7.8H49.6a2,2,0,0,0-1.5,1.1c-0.2-.8-0.5-1.2-0.8-1.2l-0.5.2-0.4.4a2,2,0,0,0-.4,1.2c0,0.4.1,0.5,0.3,0.5a0.3,0.3,0,0,0,.3-0.4A1.1,1.1,0,0,1,46.7,9L47,8.9h0a0.2,0.2,0,0,1,.2.2,1.8,1.8,0,0,1,.1.7,4.6,4.6,0,0,1,0,.5L46.8,13h0c0,0.1.1,0.4,0.5,0.4h0a0.5,0.5,0,0,0,.5-0.4l0.3-1.7a12.4,12.4,0,0,1,.5-2.2,0.8,0.8,0,0,1,.4-0.6h0a0.4,0.4,0,0,1,.3.3,0.3,0.3,0,0,0,.3.2h0A0.4,0.4,0,0,0,50,8.9V8.2A0.4,0.4,0,0,0,50.1,7.8Z"/><path class="cls-2" d="M56.2,7.8H55.1V6.9A0.3,0.3,0,0,0,55,6.6l-0.3.2a3.1,3.1,0,0,1-1.1,1.1,0.6,0.6,0,0,0-.4.4,0.3,0.3,0,0,0,.3.3h0.5V8.9l-0.3,2.6a6.2,6.2,0,0,0,0,.7,1.8,1.8,0,0,0,.3,1,0.9,0.9,0,0,0,.7.4,2.1,2.1,0,0,0,1.2-.5,1.4,1.4,0,0,0,.7-1c0-.2-0.3-0.4-0.6-0.1a1.2,1.2,0,0,1-.8.5l-0.3-.2a0.7,0.7,0,0,1-.1-0.5,3.6,3.6,0,0,1,0-.4l0.4-2.8A0.5,0.5,0,0,1,55,8.6h1.1a0.4,0.4,0,0,0,.5-0.4A0.3,0.3,0,0,0,56.2,7.8Z"/><path class="cls-2" d="M61.1,11.7l-0.3.2a0.8,0.8,0,0,1-.5.5h0a0.3,0.3,0,0,1-.1-0.3,11.7,11.7,0,0,1,.4-2.1l0.4-1.9h0a0.3,0.3,0,0,0-.3-0.3H59.2a0.3,0.3,0,0,0-.4.3V8.2h0.7c0.3,0,.3.1,0.3,0.1V8.8l-0.3,1.7a11.8,11.8,0,0,0-.3,1.8,2.2,2.2,0,0,0,.1.8,0.5,0.5,0,0,0,.4.4h0a1.5,1.5,0,0,0,1-.5,1.8,1.8,0,0,0,.6-1,0.3,0.3,0,0,0-.1-0.2H61.1Zm-1.3,1.7h0Z"/><path class="cls-2" d="M61.3,5.3V5.1L61,4.9h0L60.7,5l-0.2.2-0.2.2V5.9l0.2,0.4a0.3,0.3,0,0,0,.3.2H61L61.4,6l0.2-.3V5.5Z"/><path class="cls-2" d="M68.8,3.9H68.3L67.5,4l-0.7.7a7,7,0,0,0-1.2,3.1H64.8a0.4,0.4,0,0,0-.5.4c0,0.1.1,0.3,0.5,0.3h0.7l-0.3,2.2-0.4,3.1v0.5c-0.1.8-.3,0.8-0.3,0.8s-0.2-.1-0.2-0.4a0.3,0.3,0,0,0-.2-0.3,0.5,0.5,0,0,0-.3.4,1.7,1.7,0,0,0-.1.6,0.4,0.4,0,0,0,.5.4,1.8,1.8,0,0,0,1.3-.7,3,3,0,0,0,.7-1.8l0.6-5h0.9A0.4,0.4,0,0,0,68,8.2c0-.1-0.1-0.3-0.5-0.3H66.7a12.8,12.8,0,0,1,.5-2.4,0.9,0.9,0,0,1,.5-0.7l0.5,0.2,0.2,0.2h0.2c0.2,0,.3-0.3.3-1A0.4,0.4,0,0,0,68.8,3.9Z"/><path class="cls-2" d="M72.7,5.3V5.1l-0.2-.2L72.1,5l-0.2.2-0.2.2V5.9l0.2,0.4a0.3,0.3,0,0,0,.3.2h0.3L72.8,6A0.4,0.4,0,0,0,73,5.7V5.5Z"/><path class="cls-2" d="M72.7,11.7l-0.3.2a0.7,0.7,0,0,1-.5.5h0a0.3,0.3,0,0,1-.1-0.3,11.7,11.7,0,0,1,.3-2.1l0.4-1.9h0V7.8H70.7c-0.3,0-.4.2-0.4,0.3V8.3h0.7c0.3,0,.3.1,0.3,0.1V8.8L71,10.5a11.8,11.8,0,0,0-.2,1.8,2.2,2.2,0,0,0,.1.8,0.5,0.5,0,0,0,.5.4h0a1.5,1.5,0,0,0,1-.6,1.8,1.8,0,0,0,.6-1.1,0.3,0.3,0,0,0-.1-0.2H72.7Zm-1.3,1.8h0Z"/><path class="cls-2" d="M79.1,10.3a1.9,1.9,0,0,0,1.1-1.5,1,1,0,0,0-.4-0.8,1.4,1.4,0,0,0-.9-0.3,2.7,2.7,0,0,0-2.1,1.2,4.3,4.3,0,0,0-1,2.7,2.2,2.2,0,0,0,.5,1.5,1.9,1.9,0,0,0,1.4.6,2.9,2.9,0,0,0,1.8-.6,1.1,1.1,0,0,0,.5-0.7,0.2,0.2,0,0,0-.2-0.3l-0.3.2a1.7,1.7,0,0,1-1.3.5,1.4,1.4,0,0,1-1-.4,1.5,1.5,0,0,1-.4-1.1V10.8A4.5,4.5,0,0,0,79.1,10.3ZM77.6,8.9a1.4,1.4,0,0,1,1-.6,0.4,0.4,0,0,1,.5.5,1.3,1.3,0,0,1-.6,1.1,2.8,2.8,0,0,1-1.5.5A3.3,3.3,0,0,1,77.6,8.9Z"/><path class="cls-2" d="M88.4,11.6l-0.3.2V12a0.9,0.9,0,0,1-.6.5c-0.1,0-.2-0.2-0.2-0.5a6.1,6.1,0,0,1,0-.7l0.9-7.2h0a0.3,0.3,0,0,0-.3-0.3H86.4a0.3,0.3,0,0,0-.4.3V4.4H87V4.9L86.6,7.8l-0.7-.2a2.8,2.8,0,0,0-2.2,1.3,4.4,4.4,0,0,0-1,2.8,2.2,2.2,0,0,0,.4,1.4,1.4,1.4,0,0,0,1.1.5,2.2,2.2,0,0,0,1.9-1.1,1.9,1.9,0,0,0,.2.8,0.7,0.7,0,0,0,.6.3,1.5,1.5,0,0,0,1.2-.8,1.7,1.7,0,0,0,.4-0.9A0.2,0.2,0,0,0,88.4,11.6Zm-3.7,1a0.7,0.7,0,0,1-.6-0.3,1.5,1.5,0,0,1-.3-0.9A4.2,4.2,0,0,1,84,10a3.9,3.9,0,0,1,.6-1.2,1.5,1.5,0,0,1,1.1-.6c0.7,0,.7.3,0.7,0.4V8.8l-0.2,1.8a3,3,0,0,1-.5,1.5A1.3,1.3,0,0,1,84.7,12.6Z"/><path class="cls-2" d="M13.1,38.4l0.5-.3a0.3,0.3,0,0,0,.3-0.2,0.3,0.3,0,0,0-.3-0.3H11.8a0.3,0.3,0,0,0-.3.3c0,0.1.1,0.3,0.4,0.3h0.3a1.5,1.5,0,0,1-.2.6l-0.4.9-1.3,2.5L9.7,43.5h0l-0.3-.9V42.1L9,41l1.2-2.3,0.3-.5h0.2a0.3,0.3,0,0,0,.3-0.3,0.2,0.2,0,0,0-.3-0.2H9.1a0.2,0.2,0,0,0-.3.2c0,0.1,0,.2.4,0.2H9.4v0.2a2.4,2.4,0,0,1-.3.9l-0.5.9L8.4,39a2.5,2.5,0,0,1-.1-0.6A0.3,0.3,0,0,1,8.6,38a0.2,0.2,0,0,0,.2-0.2V37.6h-2a0.3,0.3,0,0,0-.3.3c0,0.2.1,0.2,0.4,0.3a0.8,0.8,0,0,1,.5.7L8,41.4l-1,1.7-0.2.3L5.8,39.2a4.4,4.4,0,0,1-.2-0.9,0.3,0.3,0,0,1,.3-0.3c0.3,0,.3-0.2.3-0.3a0.2,0.2,0,0,0-.3-0.2H4.1a0.3,0.3,0,1,0,0,.5H4.4a1,1,0,0,1,.2.4l1.6,6.1a0.4,0.4,0,0,0,.3.4,0.5,0.5,0,0,0,.4-0.3V44.6l0.2-.4,0.3-.5,0.8-1.4L8.4,43l0.4,1.3L9,44.8a0.4,0.4,0,0,0,.3.4,0.5,0.5,0,0,0,.4-0.4l0.6-1.1,2-3.8Z"/><path class="cls-2" d="M14.2,40.2a1.9,1.9,0,0,0-1.3.5,2.7,2.7,0,0,0-.7,1,3.3,3.3,0,0,0-.3,1.2,2.1,2.1,0,0,0,.5,1.4,1.5,1.5,0,0,0,1.2.5,2,2,0,0,0,1.6-.8,3.1,3.1,0,0,0,.7-2,2,2,0,0,0-.5-1.3A1.6,1.6,0,0,0,14.2,40.2ZM14.9,42a3.5,3.5,0,0,1-.4,1.7,1,1,0,0,1-.8.7c-0.2,0-.8,0-0.8-1.3a3.1,3.1,0,0,1,.4-1.6,1,1,0,0,1,.9-0.6C14.4,40.7,14.9,40.7,14.9,42Z"/><path class="cls-2" d="M23,43.4l-0.2.2a0.6,0.6,0,0,1-.4.3H22.3V41.9c0-.1,0-0.3,0-0.4a1.6,1.6,0,0,0-.2-0.9,1,1,0,0,0-1.6-.1l-0.5.5a0.8,0.8,0,0,0-.8-0.8,1.8,1.8,0,0,0-1,.3l-0.6.5a0.7,0.7,0,0,0-.5-0.8,0.9,0.9,0,0,0-.7.5,1.4,1.4,0,0,0-.3.8,0.2,0.2,0,0,0,.2.3,0.3,0.3,0,0,0,.2-0.2,0.5,0.5,0,0,1,.3-0.4h0a0.4,0.4,0,0,1,.1.4v0.3l-0.3,2.5h0a0.3,0.3,0,0,0,.4.3h0.4a0.4,0.4,0,0,0,.1-0.3l0.2-1.8a2.9,2.9,0,0,1,.4-1.2,0.8,0.8,0,0,1,.6-0.5l0.4,0.2a0.8,0.8,0,0,1,.1.5,3.7,3.7,0,0,1,0,.5L19,44.4h0a0.3,0.3,0,0,0,.4.3h0.4a0.4,0.4,0,0,0,.1-0.3l0.2-1.6a3.9,3.9,0,0,1,.4-1.4,0.7,0.7,0,0,1,.6-0.5c0.1,0,.4,0,0.4.7V44c0,0.7.3,0.9,0.5,0.9a1.3,1.3,0,0,0,.9-0.5,1.1,1.1,0,0,0,.4-0.6A0.2,0.2,0,0,0,23,43.4Z"/><path class="cls-2" d="M25.8,42.3a1.5,1.5,0,0,0,.9-1.2,0.8,0.8,0,0,0-.3-0.7l-0.7-.2a2.1,2.1,0,0,0-1.6,1,3.3,3.3,0,0,0-.7,2.1,1.7,1.7,0,0,0,.4,1.2,1.5,1.5,0,0,0,1.1.4,2.3,2.3,0,0,0,1.4-.5,0.9,0.9,0,0,0,.4-0.6,0.2,0.2,0,0,0-.2-0.2l-0.3.2a1.2,1.2,0,0,1-.9.4,1,1,0,0,1-.8-0.3,1.1,1.1,0,0,1-.3-0.8V42.7A3.5,3.5,0,0,0,25.8,42.3Zm-0.5-.4a2.1,2.1,0,0,1-1.1.3,2.5,2.5,0,0,1,.5-1,1.1,1.1,0,0,1,.8-0.5,0.3,0.3,0,0,1,.4.4A0.9,0.9,0,0,1,25.3,41.9Z"/><path class="cls-2" d="M31.6,43.4a0.4,0.4,0,0,0-.3.2l-0.4.3a0.3,0.3,0,0,1,0-.1h0V42.3c0-.3,0-0.6,0-0.8a1.7,1.7,0,0,0-.2-0.9,0.8,0.8,0,0,0-.7-0.4l-0.9.3-0.6.5a1.3,1.3,0,0,0-.1-0.5,0.5,0.5,0,0,0-.4-0.3,0.9,0.9,0,0,0-.7.5,1.4,1.4,0,0,0-.3.8,0.2,0.2,0,0,0,.2.3,0.4,0.4,0,0,0,.3-0.3l0.2-.2h0.1a0.4,0.4,0,0,1,.1.4,6.6,6.6,0,0,1-.1.8v0.6l-0.2,1.4h0a0.3,0.3,0,0,0,.1.2h0.7a0.4,0.4,0,0,0,.1-0.3l0.2-1.6a3.6,3.6,0,0,1,.4-1.4,0.8,0.8,0,0,1,.7-0.5L30,41.1a1.1,1.1,0,0,1,.1.6v1.8q0,0.3,0,.4c0,0.7.3,0.8,0.5,0.8a1.3,1.3,0,0,0,.8-0.4,1.2,1.2,0,0,0,.5-0.8,0.2,0.2,0,0,0-.1-0.2H31.6Z"/><path class="cls-2" d="M33.3,37.6a0.6,0.6,0,0,0-.5-0.3h0l-0.3.2v0.2H32.2v0.2l0.2,0.3a0.7,0.7,0,0,1,.3.6,1.2,1.2,0,0,1-.4.9l-0.2.3a0.2,0.2,0,0,0,.3.3,1.2,1.2,0,0,0,.7-0.5,2.1,2.1,0,0,0,.6-1.4A1.5,1.5,0,0,0,33.3,37.6Z"/><path class="cls-2" d="M35.3,40.2a1.6,1.6,0,0,0-1,.3,1.1,1.1,0,0,0-.4.9,1.4,1.4,0,0,0,.4,1L34.9,43a1.2,1.2,0,0,1,.4.8,0.5,0.5,0,0,1-.2.4l-0.4.2-0.3-.2V44a0.6,0.6,0,0,0-.5-0.3,0.4,0.4,0,0,0-.5.5,0.7,0.7,0,0,0,.4.6l0.9,0.2a1.6,1.6,0,0,0,1.1-.4,1.3,1.3,0,0,0,.5-1,1.5,1.5,0,0,0-.4-1L35,41.6a1,1,0,0,1-.3-0.6,0.3,0.3,0,0,1,.3-0.4l0.3,0.2v0.2a0.5,0.5,0,0,0,.4.2,0.4,0.4,0,0,0,.5-0.5C36.2,40.5,36.1,40.2,35.3,40.2Z"/><path class="cls-2" d="M43.3,40.9a2.3,2.3,0,0,0,.9-0.7,1.7,1.7,0,0,0,.4-1,1.5,1.5,0,0,0-.5-1.1l-0.8-.4H39.8a0.2,0.2,0,0,0-.3.2,0.4,0.4,0,0,0,.4.3,0.4,0.4,0,0,1,.4.4v0.3l-0.6,5V44a0.4,0.4,0,0,1-.4.4,0.3,0.3,0,0,0-.3.3c0,0.1,0,.2.3,0.2h2.3l1.3-.2,0.9-.5a2,2,0,0,0,.8-1.5,1.7,1.7,0,0,0-.4-1.1A1.7,1.7,0,0,0,43.3,40.9Zm-2.2-.3h0l0.2-1.9a0.7,0.7,0,0,1,.1-0.4H42a1.6,1.6,0,0,1,1.1.3,1.2,1.2,0,0,1,.4.9,1.2,1.2,0,0,1-.4,1,1.4,1.4,0,0,1-1.1.3H41.1Zm-0.1.8V41.2h0.9a1.8,1.8,0,0,1,1.1.4,1.3,1.3,0,0,1,.4,1,1.5,1.5,0,0,1-.5,1.2,1.9,1.9,0,0,1-1.3.4H40.8a0.2,0.2,0,0,1-.2-0.2Z"/><path class="cls-2" d="M49.7,43.2l-0.3.2a0.8,0.8,0,0,1-.5.5s-0.1,0-.1-0.1a9.2,9.2,0,0,1,.3-1.8l0.3-1.2V40.6a0.4,0.4,0,0,0-.4-0.4H48.7v0.3a6.6,6.6,0,0,1-.9,2.1l-0.7.9-0.4.3h0V43.2l0.3-1.8a2.4,2.4,0,0,0,0-.4c0-.7-0.3-0.8-0.6-0.8a1.1,1.1,0,0,0-.8.5,1.5,1.5,0,0,0-.4.9,0.2,0.2,0,0,0,.2.3,0.4,0.4,0,0,0,.3-0.3l0.2-.3h0.1a3.3,3.3,0,0,1-.1.5l-0.2,1.1a6.2,6.2,0,0,0-.1,1.1,1,1,0,0,0,.1.5,0.4,0.4,0,0,0,.4.2l0.6-.2,0.7-.5,0.7-1h0a6.4,6.4,0,0,0-.1,1c0,0.6.3,0.7,0.5,0.7a1.5,1.5,0,0,0,1-.5,1.3,1.3,0,0,0,.5-0.9A0.2,0.2,0,0,0,49.7,43.2Z"/><path class="cls-2" d="M51.8,40.2a1.6,1.6,0,0,0-1,.3,1.1,1.1,0,0,0-.4.9,1.4,1.4,0,0,0,.4,1L51.4,43a1.2,1.2,0,0,1,.4.8,0.5,0.5,0,0,1-.2.4l-0.4.2-0.3-.2V44a0.6,0.6,0,0,0-.5-0.3,0.4,0.4,0,0,0-.5.5,0.7,0.7,0,0,0,.4.6L51,44.9a1.6,1.6,0,0,0,1.1-.4,1.3,1.3,0,0,0,.5-1,1.5,1.5,0,0,0-.4-1l-0.7-.8a1,1,0,0,1-.3-0.6,0.3,0.3,0,0,1,.3-0.4l0.3,0.2v0.2a0.5,0.5,0,0,0,.4.2,0.4,0.4,0,0,0,.5-0.5C52.7,40.5,52.6,40.2,51.8,40.2Z"/><path class="cls-2" d="M54.2,39.3l0.2,0.2h0.2l0.3-.3V38.3l-0.2-.2H54.3v0.2l-0.2.2v0.4Z"/><path class="cls-2" d="M54.9,43.3l-0.2.2a0.6,0.6,0,0,1-.3.4,0.3,0.3,0,0,1,0-.2,8.9,8.9,0,0,1,.2-1.6l0.3-1.5h0a0.2,0.2,0,0,0-.2-0.3H53.3c-0.3,0-.4.2-0.4,0.3v0.2h0.8v0.2l-0.2,1.3a9.1,9.1,0,0,0-.2,1.4,1.7,1.7,0,0,0,.1.7,0.4,0.4,0,0,0,.4.3,1.2,1.2,0,0,0,.8-0.5,1.4,1.4,0,0,0,.4-0.8V43.4H54.9Z"/><path class="cls-2" d="M59.8,43.4a0.4,0.4,0,0,0-.3.2l-0.4.3a0.3,0.3,0,0,1,0-.1h0V42.3c0-.3,0-0.6,0-0.8a1.7,1.7,0,0,0-.2-0.9,0.8,0.8,0,0,0-.7-0.4l-0.9.3-0.6.5a1.3,1.3,0,0,0-.1-0.5,0.5,0.5,0,0,0-.4-0.3,0.9,0.9,0,0,0-.7.5,1.4,1.4,0,0,0-.3.8,0.2,0.2,0,0,0,.2.3,0.4,0.4,0,0,0,.3-0.3l0.2-.2H56a0.4,0.4,0,0,1,.1.4,6.6,6.6,0,0,1-.1.8v0.6l-0.2,1.4h0a0.3,0.3,0,0,0,.1.2h0.7a0.4,0.4,0,0,0,.1-0.3l0.2-1.6a3.6,3.6,0,0,1,.4-1.4,0.8,0.8,0,0,1,.7-0.5l0.3,0.2a1.1,1.1,0,0,1,.1.6v1.8c0,0.2,0,.3,0,0.4s0.3,0.8.5,0.8a1.3,1.3,0,0,0,.8-0.4,1.2,1.2,0,0,0,.5-0.8,0.2,0.2,0,0,0-.1-0.2H59.8Z"/><path class="cls-2" d="M62.8,42.3a1.5,1.5,0,0,0,.9-1.2,0.8,0.8,0,0,0-.3-0.7l-0.7-.2a2.1,2.1,0,0,0-1.6,1,3.3,3.3,0,0,0-.7,2.1,1.7,1.7,0,0,0,.4,1.2,1.5,1.5,0,0,0,1.1.4,2.3,2.3,0,0,0,1.4-.5,0.9,0.9,0,0,0,.4-0.6,0.2,0.2,0,0,0-.2-0.2l-0.3.2a1.2,1.2,0,0,1-.9.4,1,1,0,0,1-.8-0.3,1.1,1.1,0,0,1-.3-0.8V42.7A3.5,3.5,0,0,0,62.8,42.3Zm-0.5-.4a2.1,2.1,0,0,1-1.1.3,2.5,2.5,0,0,1,.5-1,1.1,1.1,0,0,1,.8-0.5,0.3,0.3,0,0,1,.4.4A0.9,0.9,0,0,1,62.3,41.9Z"/><path class="cls-2" d="M65.8,40.2a1.6,1.6,0,0,0-1,.3,1.1,1.1,0,0,0-.4.9,1.4,1.4,0,0,0,.4,1L65.4,43a1.2,1.2,0,0,1,.4.8,0.5,0.5,0,0,1-.2.4l-0.4.2-0.3-.2V44a0.6,0.6,0,0,0-.5-0.3,0.4,0.4,0,0,0-.5.5,0.7,0.7,0,0,0,.4.6l0.9,0.2a1.6,1.6,0,0,0,1.1-.4,1.3,1.3,0,0,0,.5-1,1.5,1.5,0,0,0-.4-1l-0.7-.8a1,1,0,0,1-.3-0.6,0.3,0.3,0,0,1,.3-0.4l0.3,0.2v0.2a0.5,0.5,0,0,0,.4.2,0.4,0.4,0,0,0,.5-0.5C66.8,40.5,66.6,40.2,65.8,40.2Z"/><path class="cls-2" d="M69,40.2a1.6,1.6,0,0,0-1,.3,1.1,1.1,0,0,0-.4.9,1.4,1.4,0,0,0,.4,1L68.6,43a1.2,1.2,0,0,1,.4.8,0.5,0.5,0,0,1-.2.4l-0.4.2-0.3-.2V44a0.6,0.6,0,0,0-.5-0.3,0.4,0.4,0,0,0-.5.5,0.7,0.7,0,0,0,.4.6l0.9,0.2a1.6,1.6,0,0,0,1.1-.4,1.3,1.3,0,0,0,.5-1,1.5,1.5,0,0,0-.4-1l-0.7-.8a1,1,0,0,1-.3-0.6,0.3,0.3,0,0,1,.3-0.4L69,40.9v0.2a0.5,0.5,0,0,0,.4.2,0.4,0.4,0,0,0,.5-0.5C70,40.5,69.8,40.2,69,40.2Z"/><path class="cls-2" d="M78.5,37.8a0.3,0.3,0,0,0-.3-0.3H73.7a0.2,0.2,0,0,0-.3.2,0.4,0.4,0,0,0,.4.3,0.4,0.4,0,0,1,.4.4v0.3l-0.6,4.9a1.5,1.5,0,0,1-.1.5H73.2a0.3,0.3,0,0,0-.3.3,0.3,0.3,0,0,0,.3.2h4.2l0.5-.3,0.4-.5a1.2,1.2,0,0,0,.2-0.5,0.2,0.2,0,0,0-.2-0.2l-0.3.2c-0.3.5-1.2,0.7-2.6,0.7H74.6a0.2,0.2,0,0,1-.1-0.2h0l0.3-2.2h1.4c0.6,0,.6.2,0.6,0.4v0.2a0.2,0.2,0,0,0,.2.3,0.2,0.2,0,0,0,.2-0.2,3,3,0,0,0,.1-0.5,6.6,6.6,0,0,1,.1-0.9,2.7,2.7,0,0,0,.1-0.5,0.2,0.2,0,0,0-.2-0.3h0a0.3,0.3,0,0,0-.2.2,0.6,0.6,0,0,1-.7.5H74.9l0.3-2.2V38.3h2.6a0.7,0.7,0,0,1,.2.6,0.3,0.3,0,0,0,.3.3,0.3,0.3,0,0,0,.3-0.3V37.8Z"/><path class="cls-2" d="M83.4,43.4a0.4,0.4,0,0,0-.3.2l-0.4.3a0.3,0.3,0,0,1,0-.1h0V42.3c0-.3,0-0.6,0-0.8a1.7,1.7,0,0,0-.2-0.9,0.8,0.8,0,0,0-.7-0.4l-0.9.3-0.6.5a1.3,1.3,0,0,0-.1-0.5,0.5,0.5,0,0,0-.4-0.3,0.9,0.9,0,0,0-.7.5,1.4,1.4,0,0,0-.3.8,0.2,0.2,0,0,0,.2.3,0.4,0.4,0,0,0,.3-0.3l0.2-.2h0.1a0.4,0.4,0,0,1,.1.4,6.7,6.7,0,0,1-.1.8v0.6l-0.2,1.4h0a0.3,0.3,0,0,0,.1.2h0.7a0.4,0.4,0,0,0,.1-0.3l0.2-1.6a3.6,3.6,0,0,1,.4-1.4,0.8,0.8,0,0,1,.7-0.5l0.3,0.2a1.1,1.1,0,0,1,.1.6v1.8c0,0.2,0,.3,0,0.4s0.3,0.8.5,0.8a1.3,1.3,0,0,0,.8-0.4,1.2,1.2,0,0,0,.5-0.8,0.2,0.2,0,0,0-.1-0.2H83.4Z"/><path class="cls-2" d="M85.3,41.1V40.9h0.8a0.4,0.4,0,0,0,.4-0.4,0.3,0.3,0,0,0-.3-0.3H85.4V39.6a0.2,0.2,0,0,0-.3-0.2l-0.3.2a2.3,2.3,0,0,1-.9.8,0.5,0.5,0,0,0-.3.3,0.2,0.2,0,0,0,.3.2h0.3v0.2l-0.2,2a4.7,4.7,0,0,0,0,.5,1.4,1.4,0,0,0,.2.8,0.7,0.7,0,0,0,.6.3,1.6,1.6,0,0,0,1-.4,1.1,1.1,0,0,0,.5-0.8c0-.2-0.3-0.3-0.5-0.1a0.9,0.9,0,0,1-.6.3H85.1a0.5,0.5,0,0,1-.1-0.3,2.7,2.7,0,0,1,0-.3Z"/><path class="cls-2" d="M89,42.3a1.5,1.5,0,0,0,.9-1.2,0.8,0.8,0,0,0-.3-0.7l-0.7-.2a2.1,2.1,0,0,0-1.6,1,3.3,3.3,0,0,0-.7,2.1,1.7,1.7,0,0,0,.4,1.2,1.5,1.5,0,0,0,1.1.4,2.3,2.3,0,0,0,1.4-.5,0.9,0.9,0,0,0,.4-0.6,0.2,0.2,0,0,0-.2-0.2l-0.3.2a1.2,1.2,0,0,1-.9.4,1,1,0,0,1-.8-0.3,1.1,1.1,0,0,1-.3-0.8V42.7A3.5,3.5,0,0,0,89,42.3Zm-0.5-.4a2.1,2.1,0,0,1-1.1.3,2.5,2.5,0,0,1,.5-1,1.1,1.1,0,0,1,.8-0.5,0.3,0.3,0,0,1,.4.4A0.9,0.9,0,0,1,88.5,41.9Z"/><path class="cls-2" d="M93.3,41.2V41h0V40.6a0.4,0.4,0,0,0-.5-0.4,1.5,1.5,0,0,0-1.2.9,0.9,0.9,0,0,0-.7-0.8l-0.4.2-0.3.3a1.5,1.5,0,0,0-.3,1c0,0.3.2,0.4,0.3,0.4a0.3,0.3,0,0,0,.3-0.3V41.4h0.2c0.2,0,.2.4,0.2,0.6a3.5,3.5,0,0,1,0,.4l-0.3,2.1h0c0,0.1,0,.3.4,0.3a0.4,0.4,0,0,0,.5-0.3l0.2-1.3a9.6,9.6,0,0,1,.3-1.7,0.6,0.6,0,0,1,.3-0.4,0.3,0.3,0,0,1,.2.2,0.3,0.3,0,0,0,.2.2h0A0.3,0.3,0,0,0,93.3,41.2Z"/><path class="cls-2" d="M97.2,40.7a2.1,2.1,0,0,0-1.4-.4H95.2V39.2a0.2,0.2,0,0,0-.3-0.2,0.7,0.7,0,0,0-.6.3,3.3,3.3,0,0,0-.3,1.1H93.8l-0.2.2h0l0.2,0.2h0.5l-0.6,4.5a1.3,1.3,0,0,1-.1.4H93.3a0.3,0.3,0,0,0-.2.3,0.3,0.3,0,0,0,.4.3H95a0.3,0.3,0,0,0,.3-0.3,0.3,0.3,0,0,0-.3-0.2H94.5a0.2,0.2,0,0,1,0-.2v-1H95a2.4,2.4,0,0,0,1.6-.6,3.2,3.2,0,0,0,.8-1.1,3,3,0,0,0,.3-1.3A1.4,1.4,0,0,0,97.2,40.7Zm-2.5,3.4V43.9l0.4-3.1h0.3a1.4,1.4,0,0,1,1,.3,1.1,1.1,0,0,1,.3.9,2.6,2.6,0,0,1-.5,1.6,1.4,1.4,0,0,1-1.2.7C94.7,44.2,94.7,44.1,94.7,44.1Z"/><path class="cls-2" d="M102.8,43.3l-0.2.2a0.6,0.6,0,0,1-.3.4,0.3,0.3,0,0,1,0-.2,8.9,8.9,0,0,1,.2-1.6l0.3-1.5h0a0.2,0.2,0,0,0-.2-0.3H101a0.5,0.5,0,0,0-.4-0.2,1.5,1.5,0,0,0-1.2.9,0.9,0.9,0,0,0-.7-0.8l-0.4.2-0.3.3a1.5,1.5,0,0,0-.3,1c0,0.3.2,0.4,0.3,0.4a0.3,0.3,0,0,0,.3-0.3V41.4h0.2c0.2,0,.2.4,0.2,0.6a3.5,3.5,0,0,1,0,.4l-0.3,2.1h0c0,0.1,0,.3.4,0.3a0.4,0.4,0,0,0,.5-0.3l0.2-1.3a9.6,9.6,0,0,1,.3-1.7,0.6,0.6,0,0,1,.3-0.4,0.3,0.3,0,0,1,.2.2,0.3,0.3,0,0,0,.2.2h0a0.3,0.3,0,0,0,.3-0.3V41h0.7v0.2l-0.2,1.3a9.2,9.2,0,0,0-.2,1.4,1.7,1.7,0,0,0,.1.7,0.4,0.4,0,0,0,.4.3,1.2,1.2,0,0,0,.8-0.5,1.4,1.4,0,0,0,.4-0.8V43.4h-0.2Z"/><path class="cls-2" d="M102.2,39.3l0.2,0.2h0.2l0.3-.3V38.3l-0.2-.2h-0.2v0.2l-0.2.2v0.4Z"/><path class="cls-2" d="M105.2,40.2a1.6,1.6,0,0,0-1,.3,1.1,1.1,0,0,0-.4.9,1.4,1.4,0,0,0,.4,1l0.6,0.6a1.2,1.2,0,0,1,.4.8,0.5,0.5,0,0,1-.2.4l-0.4.2-0.3-.2V44a0.6,0.6,0,0,0-.5-0.3,0.4,0.4,0,0,0-.5.5,0.7,0.7,0,0,0,.4.6l0.9,0.2a1.6,1.6,0,0,0,1.1-.4,1.3,1.3,0,0,0,.5-1,1.5,1.5,0,0,0-.4-1l-0.7-.8a1,1,0,0,1-.3-0.6,0.3,0.3,0,0,1,.3-0.4l0.3,0.2v0.2a0.5,0.5,0,0,0,.4.2,0.4,0.4,0,0,0,.5-0.5C106.2,40.5,106.1,40.2,105.2,40.2Z"/><path class="cls-2" d="M109.8,43.6l-0.3.2a1.2,1.2,0,0,1-.9.4,1,1,0,0,1-.8-0.3,1.1,1.1,0,0,1-.3-0.8V42.7a3.5,3.5,0,0,0,1.6-.4,1.5,1.5,0,0,0,.9-1.2,0.8,0.8,0,0,0-.3-0.7l-0.7-.2a2.1,2.1,0,0,0-1.6,1,3.3,3.3,0,0,0-.7,2.1,1.7,1.7,0,0,0,.4,1.2,1.5,1.5,0,0,0,1.1.4,2.3,2.3,0,0,0,1.4-.5,0.9,0.9,0,0,0,.4-0.6A0.2,0.2,0,0,0,109.8,43.6Zm-1.1-1.7a2.1,2.1,0,0,1-1.1.3,2.5,2.5,0,0,1,.5-1,1.1,1.1,0,0,1,.8-0.5,0.3,0.3,0,0,1,.4.4A0.9,0.9,0,0,1,108.7,41.9Z"/><path class="cls-2" d="M83.8,23.4a6.8,6.8,0,0,1,7.2-5.6c2.9,0,5.2,1.5,6.8,4.4a0.9,0.9,0,0,0,.6.6h0l0.3-.2V22.3l-0.5-3.6a0.6,0.6,0,0,0-.4-0.6l-0.5.2H96.9L96.3,18a11.3,11.3,0,0,0-5.4-1.3,9.7,9.7,0,0,0-7.1,2.8,9.6,9.6,0,0,0-1.7,2.4A8.7,8.7,0,0,0,83.8,23.4Z"/><path class="cls-2" d="M86.9,23.9c2.1,0,4.1-1.7,4.8-5.1,0,0,.5,4.8-2.8,7.3a7.8,7.8,0,0,1,1.1,4,7.5,7.5,0,0,1-1.7,4.3s0.8-4.1-.9-5.6a5.4,5.4,0,0,1-1.5,3.9l-0.8-1.1a10.4,10.4,0,0,0,.6-3.4,4.7,4.7,0,0,0-.6-2.1c-0.5-.6-1.6-1.6-2-2.1a11.8,11.8,0,0,1-2.2-4.9S83.1,23.9,86.9,23.9Z"/><ellipse class="cls-2" cx="86.6" cy="22" rx="0.9" ry="1" transform="translate(-1.1 5.1) rotate(-3.4)"/><ellipse class="cls-2" cx="95.4" cy="24.3" rx="1" ry="0.9" transform="translate(33.6 101) rotate(-65.4)"/><path class="cls-2" d="M93.9,25.8c1.8,1.1,4.4-.7,5.9-3.3,0,0-.3,3.4-4.3,5.7,0,0,.9,1.1,1.1,4.5l-0.6.5a20.8,20.8,0,0,0-1.9-2.9,19,19,0,0,0-2.8,4.2S92,29.1,93,27.9a8.2,8.2,0,0,1-1.1-7.1S92.1,24.7,93.9,25.8Z"/><path class="cls-2" d="M50.1,27.1a4.3,4.3,0,0,0-2.5-1.7L47,25.3h0.1l0.6-.4a4.1,4.1,0,0,0,.1-6.8A8.4,8.4,0,0,0,43,16.8H34.9a0.4,0.4,0,0,0-.5.4,0.8,0.8,0,0,0,.7.6,1,1,0,0,1,1,.7,24.3,24.3,0,0,1-1.4,4.5c-1,2.6-2,5.1-3.1,7.7l-0.3.7-0.3.5a2.8,2.8,0,0,1-.5-0.9L27.8,25l2.1-5a12,12,0,0,1,.8-1.7l0.6-.4a0.6,0.6,0,0,0,.5-0.5,0.4,0.4,0,0,0-.5-0.4H27.8c-0.5,0-.6.2-0.6,0.4a0.7,0.7,0,0,0,.7.6c0.7,0.1.7,0.5,0.7,0.6a15.1,15.1,0,0,1-1.5,4.3v0.3l-1.2-3a4.9,4.9,0,0,1-.4-1.6,0.7,0.7,0,0,1,.5-0.7,0.7,0.7,0,0,0,.5-0.5c0-.2-0.1-0.4-0.6-0.4H21.1c-0.5,0-.7.2-0.7,0.4s0.6,0.6,1.1.6a1.4,1.4,0,0,1,.9.4,8.6,8.6,0,0,1,.9,1.7l2.2,5.2,0.3,0.7-2.2,5.2v0l-0.3-.6-1.2-2.8-1.3-3.2L19,21.3a10.1,10.1,0,0,1-.9-2.8c0-.1,0-0.4.7-0.6a0.5,0.5,0,0,0,.4-0.5,0.4,0.4,0,0,0-.5-0.5h-5a0.5,0.5,0,0,0-.1.9h0.5a2.1,2.1,0,0,1,1.2.8,11.3,11.3,0,0,1,1.2,2.4l0.3,0.9L22.1,35a1.4,1.4,0,0,0,.9,1.1h0a0.8,0.8,0,0,0,.6-0.6L26.6,28l3,7.2a0.9,0.9,0,0,0,.7.7,1.1,1.1,0,0,0,.8-0.8l0.2-.4,0.9-2.1,1-2.5,1.5-3.5,1.4-3.5,1.4-3.2,0.7-1.6h0.1a4.9,4.9,0,0,1,.5,2.5V31.5a11.8,11.8,0,0,1-.2,2.4A1.3,1.3,0,0,1,37.3,35c-0.4.1-.5,0.3-0.5,0.4a0.4,0.4,0,0,0,.5.4h7.1a7,7,0,0,0,4.8-1.6,5.3,5.3,0,0,0,1.9-4.2A4.9,4.9,0,0,0,50.1,27.1Zm-5.6,7.8a8.8,8.8,0,0,1-2.4-.2,1.2,1.2,0,0,1-.9-0.7V26.7a0.4,0.4,0,0,1,.1-0.3h3.2a4.2,4.2,0,0,1,3.2,1.3,4.6,4.6,0,0,1,1.3,3.3,3.9,3.9,0,0,1-1.1,3A4.6,4.6,0,0,1,44.5,34.9Zm-0.3-9.9H41.2a0.6,0.6,0,0,1-.1-0.5V19.1a1.4,1.4,0,0,1,.3-1,1.8,1.8,0,0,1,1.1-.2A5.1,5.1,0,0,1,46,19.1a3.9,3.9,0,0,1,1.4,3C47.5,24.1,46.4,25.1,44.2,25.1ZM22.9,36h0Z"/><path class="cls-2" d="M81.7,17.4a0.4,0.4,0,0,0-.5-0.4H76.1c-0.5,0-.5.2-0.5,0.4a0.5,0.5,0,0,0,.5.5,3.9,3.9,0,0,1,1.9.7,2.3,2.3,0,0,1,.6,1.5l0.2,3v8.4h0l-0.3-.3L66,17.4a1.1,1.1,0,0,0-.8-0.4H62.4L62,16.9H55.8L51.3,17H50.4c-0.6,0-.7.3-0.7,0.5s0.1,0.4.5,0.4a1.6,1.6,0,0,1,1.5.6,5.3,5.3,0,0,1,.4,2.5V33c0,1-.3,1.6-0.9,1.7H50.7a0.5,0.5,0,0,0-.4.4c0,0.2.1,0.4,0.6,0.4h0.7l3.2-.2,4.1,0.2h1a3.7,3.7,0,0,0,3-1.5,3.7,3.7,0,0,0,1-2.1c0-.4-0.3-0.5-0.4-0.5h0l-0.4.3c-0.9,1.5-3.1,2.3-6.5,2.3a4.1,4.1,0,0,1-2-.3,1.6,1.6,0,0,1-.3-1.3V27.4a0.5,0.5,0,0,1,.2-0.4h3.7a2.9,2.9,0,0,1,1.5.3,1.6,1.6,0,0,1,.6,1.1v0.4a0.4,0.4,0,0,0,.5.4,0.4,0.4,0,0,0,.4-0.5V28.2c-0.1-.5-0.1-1.1-0.1-1.6s0-1.5.1-2.3V24a0.4,0.4,0,0,0-.4-0.5h0a0.5,0.5,0,0,0-.4.4,2.5,2.5,0,0,1-.3,1.1,1.6,1.6,0,0,1-.8.3l-2.2.2H54.4a1.3,1.3,0,0,1-.1-0.7V19.3a1.1,1.1,0,0,1,.2-0.8,1.6,1.6,0,0,1,1-.2h2.1l2.8,0.2a1.3,1.3,0,0,1,.9.7,2,2,0,0,1,.1.8v0.3a0.7,0.7,0,0,0,.1.4l0.3,0.2a0.4,0.4,0,0,0,.4-0.3,4.7,4.7,0,0,0,.1-1V18.8c0-.6.1-0.9,0.1-1h0.3a2.7,2.7,0,0,1,2.1,1.4,7.3,7.3,0,0,1,.7,3.6v9a4,4,0,0,1-.4,2,2.7,2.7,0,0,1-1.5,1,0.5,0.5,0,0,0-.5.5,0.4,0.4,0,0,0,.5.4h5.1a0.4,0.4,0,0,0,.4-0.4,0.5,0.5,0,0,0-.6-0.5,2.8,2.8,0,0,1-1.4-.5,1.8,1.8,0,0,1-.4-1.1V22.7a0.5,0.5,0,0,1,.1-0.5h0.1l11.6,13,0.3,0.4,0.4,0.2h0a0.5,0.5,0,0,0,.5-0.4,13.3,13.3,0,0,0,.1-1.9V20a3.8,3.8,0,0,1,.2-1.7,1.5,1.5,0,0,1,1-.6A0.4,0.4,0,0,0,81.7,17.4ZM79.5,35.6h0Z"/><path class="cls-2" d="M98.3,30.6h0a1.1,1.1,0,0,0-.7.8,6.2,6.2,0,0,1-2.7,2.6,8,8,0,0,1-4,.9,6,6,0,0,1-5.2-2.5,10.4,10.4,0,0,1-2.2-6.8V25.3l-0.9-.9a8.8,8.8,0,0,1-1-1.6,10.6,10.6,0,0,0-.7,3.8,9.2,9.2,0,0,0,2.7,6.9,8.8,8.8,0,0,0,6.7,2.6,13,13,0,0,0,7-2,1.4,1.4,0,0,0,.7-0.8l0.4-1.9V31A0.3,0.3,0,0,0,98.3,30.6Z"/><path class="cls-2" d="M105.2,50H9.8A9.8,9.8,0,0,1,0,40.2V9.8A9.8,9.8,0,0,1,9.8,0h95.4a9.8,9.8,0,0,1,9.8,9.8V40.2a9.8,9.8,0,0,1-9.8,9.8h0ZM9.8,1.3A8.5,8.5,0,0,0,1.3,9.8V40.2a8.5,8.5,0,0,0,8.5,8.5h95.4a8.5,8.5,0,0,0,8.5-8.5V9.8a8.5,8.5,0,0,0-8.5-8.5H9.8Z"/></svg>