<svg id="connect" xmlns="http://www.w3.org/2000/svg" viewBox="0 0 60 30"><defs><style>.cls-1{fill:none;}.cls-2{fill:#fff;}</style></defs><title>connect</title><path class="cls-1" d="M0 0h60v30H0z"/><path class="cls-2" d="M39.8 13.5h2.4v7.07h-2.4zM47.9 13.3a2.3 2.3 0 0 0-2.1 1.2v-1h-2.4v7.1h2.4v-4a1.6 1.6 0 0 1 .1-.6 1.3 1.3 0 0 1 1.2-.9c.9 0 1.2.6 1.2 1.6v3.8h2.4v-4c-.1-2.2-1.2-3.2-2.8-3.2zM41 10.1a1.2 1.2 0 1 0 0 2.4 1.2 1.2 0 1 0 0-2.4z"/><path class="cls-2" d="M0 0v30h60V0H0zm53 22a1.1 1.1 0 0 1-1.2 1.1H38.6a1.1 1.1 0 0 1-1.2-1.1V8.6a1.1 1.1 0 0 1 1.2-1.1h13.3A1.1 1.1 0 0 1 53 8.6V22zM20 8.8h-2.1a.9.9 0 0 0-.8.8v2.1H20c-.1 1.6-.4 3.2-.4 3.2h-2.5v9.3h-3.9v-9.3h-1.9v-3.2h1.9V9.2c0-.5-.1-3.6 3.9-3.6H20v3.2z"/></svg>