<svg id="icons-small" xmlns="http://www.w3.org/2000/svg" viewBox="0 0 80 40"><defs><style>.cls-1{fill:none;}.cls-2{fill:#fff;}</style></defs><title>assets</title><path class="cls-1" d="M0 0h80v40H0z"/><path class="cls-2" d="M18.6 27.1a.4.4 0 0 0 .3.4h2.3a.5.5 0 0 0 .4-.4v-2.4h-3v2.4zM20.1 10.5a5.4 5.4 0 0 0-5.5 5.3v.6a.4.4 0 0 0 .5.4H17a.4.4 0 0 0 .4-.4v-.7a2.7 2.7 0 0 1 2.7-2.6 2.7 2.7 0 0 1 2.7 2.6 2.5 2.5 0 0 1-1.4 2.2 5.9 5.9 0 0 0-2.2 1.7 4 4 0 0 0-.6 1.3.6.6 0 0 0-.1.4v2.5c0 .3.2.3.4.3h2c.3 0 .6 0 .6-.3v-1.1a2.8 2.8 0 0 1 .6-1.8l.6-.6.4-.2a5.1 5.1 0 0 0 2.5-4.3 5.3 5.3 0 0 0-5.5-5.3zM65 11h-9l-4 4v11a1 1 0 0 0 1 1h12a1 1 0 0 0 1-1V12a1 1 0 0 0-1-1zm-9 1.5V15h-2.5zM65 26H53V16h3a1 1 0 0 0 1-1v-3h8v14z"/><path class="cls-2" d="M55 20h8v-1h-8v1zM57 18h6v-1h-6v1zM63 15h-4v1h4v-1zM55 22h8v-1h-8v1zM55 24h8v-1h-8v1z"/></svg>