<svg id="logo" xmlns="http://www.w3.org/2000/svg" viewBox="0 0 290 150"><defs><style>.cls-1{fill:none;}.cls-2{fill:#061922;}.cls-3{fill:#7fb942;}.cls-4{fill:#04b2be;}.cls-5{fill:#939598;}.cls-6{fill:#9d9fa2;}.cls-7{fill:#231f20;}</style></defs><title>assets</title><path class="cls-1" d="M0 0h290v150H0z"/><path class="cls-2" d="M52.2 113.1c-5.9 0-10.3-4.9-10.3-11S46.3 91 52.4 91a10.3 10.3 0 0 1 7.9 3.3L58 97.1a7.9 7.9 0 0 0-5.7-2.7c-3.9 0-6.7 3.4-6.7 7.6s2.8 7.6 6.7 7.6 4.1-1.1 5.8-2.8l2.3 2.4a10.2 10.2 0 0 1-8.2 3.9zM67.7 103.7v9h-3.5V91.4h3.6v8.9h9.6v-8.9H81v21.4h-3.6v-9h-9.7zM105.5 112.7h-3.8l-2.1-5.2h-9.5l-2.1 5.2h-3.6l8.9-21.5h3.3zm-10.6-17l-3.5 8.5h7zM121.9 112.7l-5-7.4h-4.4v7.4h-3.6V91.4h9c4.7 0 7.5 2.6 7.5 6.8a6.3 6.3 0 0 1-4.8 6.5l5.5 8.1h-4.2zm-4.2-17.9h-5.2v7.2h5.2c2.5 0 4.2-1.4 4.2-3.6s-1.6-3.6-4.2-3.6zM137.4 112.7h-7.5V91.4h7.5a10.7 10.7 0 1 1 0 21.3zm0-17.9h-4v14.5h4c4.2 0 7-3 7-7.2s-2.8-7.3-7-7.3zM151.3 109.6l1.4-1.8a9.4 9.4 0 0 0 6.9 3c2.7 0 4.5-1.5 4.5-3.6 0-2-1-3.1-5.3-4.1s-6.8-2.7-6.8-6.2c0-3.4 2.8-5.8 6.6-5.8a10.2 10.2 0 0 1 7.1 2.6l-1.3 1.9a8.6 8.6 0 0 0-5.8-2.3c-2.6 0-4.3 1.5-4.3 3.4 0 2 1 3.1 5.5 4.1s6.6 2.8 6.6 6c0 3.7-2.9 6-6.9 6a11.5 11.5 0 0 1-8.2-3.2zM171.1 91.4h2.1l12.8 17.1V91.4h2.2v21.4h-1.8l-13-17.6v17.5h-2.2V91.4zM200.3 104.3l-8.4-12.9h2.8l6.8 10.7 6.9-10.7h2.6l-8.4 12.9v8.5h-2.3v-8.4zM213.5 91.4h7a10.3 10.3 0 0 1 10.8 10.6 10.4 10.4 0 0 1-10.7 10.7h-7V91.4zm7 19.1a8 8 0 0 0 8.4-8.4 8.1 8.1 0 0 0-8.4-8.5h-4.7v16.9h4.7zM235 91.4h14.6v2.2h-12.3v7.3h11v2.2h-11v7.5h12.5v2.2H235V91.4zM253.8 91.4h8.7a7.7 7.7 0 0 1 5.7 2.1 6.1 6.1 0 0 1 1.6 4.2c0 3.5-2.3 5.6-5.5 6.2l6.2 8.7h-2.8l-5.9-8.3H256v8.3h-2.3V91.4zm8.5 10.9c3 0 5.2-1.6 5.2-4.4 0-2.6-1.9-4.2-5.2-4.2h-6.2v8.7h6.2z"/><path class="cls-3" d="M54.2 20.6l22.1 11.7a309.7 309.7 0 0 1 26.7-23 136.9 136.9 0 0 1-28.6 5.9 128.1 128.1 0 0 1-26.4-.8s1.2 11.6-1.5 28.3C43.2 63 32.6 86.2 32.6 86.2s10.3-18.8 30.8-40.8c3.1-3.3 6.1-6.4 9.1-9.3z"/><path class="cls-4" d="M100.8 37.1c.7-11.4 4.2-25.6 4.2-25.6S93.8 20.9 79.6 35l14.5 20.4-18.3-16.5c-3.4 3.5-6.9 7.2-10.4 11.1a400.3 400.3 0 0 0-29.1 36c-3.4 4.5-12.4 17.4-14.7 31.8-8.4 3.4-12.6 7.5-14.7 12.4l1.8 2.1c2.2-4.6 5.2-8.9 12.7-12.3-.1 1.1-.2 1.8-.3 2.9a18.1 18.1 0 0 0 6.8 15.1 12.8 12.8 0 0 0 7.9 2.8 10.4 10.4 0 0 0 2.6-.3c5.3-1.3 8.6-5.9 8.6-11.8s-3.6-10.7-11.5-12.4a20.8 20.8 0 0 0-9.3.3l-.9 1.9a19.3 19.3 0 0 1 9.9-1c7.1 1.5 10 5.6 10 10.8s-2.9 9.2-7.6 9.8-6.6-.2-8.6-1.8l-.9-.8-1.1-1c-8.7-9.5-2.1-25.5 1.5-32.8l.6-1.1a73.9 73.9 0 0 1 10.7-14.8s22.2-25.6 61-24a215.4 215.4 0 0 1 0-24.7z"/><path class="cls-5" d="M163.7 124.6h4.7a2.1 2.1 0 0 1 1.5.4c.4.4.6.8.6 2.1s-.5 1.8-1.3 2c1 .2 1.4.7 1.4 2.2s-.2 1.9-.6 2.3a2.1 2.1 0 0 1-1.5.4h-4.8v-9.5zm4.5 4.1a1.2 1.2 0 0 0 .9-.2 1.8 1.8 0 0 0 .3-1.4 1.9 1.9 0 0 0-.3-1.4 1.2 1.2 0 0 0-.9-.2h-3.5v3.2h3.5zm.9 1.1a1.1 1.1 0 0 0-.9-.2h-3.5v3.5h3.6a1.2 1.2 0 0 0 .9-.2 4 4 0 0 0 0-3.1zM173.4 130.7c0 1.7.1 2 .3 2.2a1.1 1.1 0 0 0 .9.2h1.8a1 1 0 0 0 .8-.2 1.5 1.5 0 0 0 .2-1.1h1a2.3 2.3 0 0 1-.5 1.8 1.7 1.7 0 0 1-1.3.4h-2.1a1.9 1.9 0 0 1-1.5-.4c-.5-.5-.6-1-.6-3.2s.2-2.7.6-3.2a1.9 1.9 0 0 1 1.5-.4h1.8a2 2 0 0 1 1.5.4c.5.5.6 1.1.6 3.2v.2a.1.1 0 0 1-.2.2h-4.8zm0-.8h4c0-1.5-.1-1.9-.3-2.1a1.1 1.1 0 0 0-.9-.2h-1.6a1.1 1.1 0 0 0-.9.2c-.2.3-.3.6-.3 2.1zM180.5 134v-7.2h1v1a2.8 2.8 0 0 1 2.1-1h1.1a1.6 1.6 0 0 1 1.3.4 1.9 1.9 0 0 1 .4 1.4v5.4h-1v-5.4a1 1 0 0 0-.2-.8 1 1 0 0 0-.8-.2h-.9a3 3 0 0 0-1.8.6v5.8h-1zM189.3 130.7c0 1.7.1 2 .3 2.2a1.1 1.1 0 0 0 .9.2h1.8a1 1 0 0 0 .8-.2 1.5 1.5 0 0 0 .2-1.1h1a2.3 2.3 0 0 1-.5 1.8 1.7 1.7 0 0 1-1.3.4h-2.1a1.9 1.9 0 0 1-1.5-.4c-.5-.5-.6-1-.6-3.2s.2-2.7.6-3.2a1.9 1.9 0 0 1 1.5-.4h1.8a2 2 0 0 1 1.5.4c.5.5.6 1.1.6 3.2v.2a.1.1 0 0 1-.2.2h-4.8zm0-.8h4c0-1.5-.1-1.9-.3-2.1a1.1 1.1 0 0 0-.9-.2h-1.6a1.1 1.1 0 0 0-.9.2c-.2.3-.3.6-.3 2.1zM196.8 134v-6.4h-1.2v-.9h1.2v-.5a2.1 2.1 0 0 1 .4-1.6 1.4 1.4 0 0 1 1.1-.4h1.1v.9H198a1.4 1.4 0 0 0-.2.9v.6h1.6v.9h-1.6v6.5h-1zm5.3-8.6h-1.2v-1.3h1.2v1.3zm-.1 8.6h-1v-7.2h1v7.2zM207.7 133.8l-.6.2h-1a1.4 1.4 0 0 1-1.1-.3 1.5 1.5 0 0 1-.3-1.1v-5h-1.2v-.9h1.2V125h1v1.8h2v.9h-2v4.7a.8.8 0 0 0 .1.6h1.8v.7zM218.8 133.6a1.8 1.8 0 0 1-1.4.4h-3.2a1.7 1.7 0 0 1-1.4-.4c-.4-.4-.5-.7-.5-2.5h1c0 1.3.1 1.6.3 1.7a1 1 0 0 0 .8.2h2.9a.9.9 0 0 0 .8-.2 2.2 2.2 0 0 0 .3-1.5 1.7 1.7 0 0 0-.2-1.3 1.3 1.3 0 0 0-.8-.2l-3-.3a2.1 2.1 0 0 1-1.4-.5c-.3-.3-.4-.8-.4-2a2.8 2.8 0 0 1 .6-2.2 1.8 1.8 0 0 1 1.4-.4h2.9a1.8 1.8 0 0 1 1.4.4c.4.4.5.8.5 2.4h-1.1c0-1.2-.1-1.5-.2-1.7a1 1 0 0 0-.8-.2h-2.6a1 1 0 0 0-.8.2 2.3 2.3 0 0 0-.2 1.4 1.6 1.6 0 0 0 .2 1.3 1.2 1.2 0 0 0 .8.2l3 .3a2.1 2.1 0 0 1 1.4.5c.3.3.5.8.5 2.1s-.4 1.9-.8 2.3zM221.9 133.6c-.5-.5-.6-1-.6-3.2s.2-2.7.6-3.2a1.9 1.9 0 0 1 1.5-.4h1.9a1.9 1.9 0 0 1 1.5.4c.5.5.6 1 .6 3.2s-.2 2.8-.6 3.2a1.9 1.9 0 0 1-1.5.4h-1.9a1.9 1.9 0 0 1-1.5-.4zm.7-.7a1.2 1.2 0 0 0 .9.2h1.7a1.1 1.1 0 0 0 .9-.2c.2-.2.3-.6.3-2.5s-.1-2.3-.3-2.5a1.1 1.1 0 0 0-.9-.2h-1.7a1.1 1.1 0 0 0-.9.2c-.2.2-.3.6-.3 2.5s.1 2.3.3 2.6z"/><path class="cls-6" d="M229.9 134v-9.8h.9v9.8h-.9z"/><path class="cls-5" d="M239 126.8v7.2h-1v-1a2.9 2.9 0 0 1-2.1 1h-1.1a1.5 1.5 0 0 1-1.2-.4 1.8 1.8 0 0 1-.4-1.4v-5.4h1v5.4a1 1 0 0 0 .2.8 1 1 0 0 0 .8.2h.9a2.9 2.9 0 0 0 1.8-.7v-5.7h1zM244.8 133.8l-.6.2h-1a1.4 1.4 0 0 1-1.1-.3 1.5 1.5 0 0 1-.3-1.1v-5h-1.2v-.9h1.2V125h1v1.8h2v.9h-2v4.7a.8.8 0 0 0 .1.6h1.8v.7zM247.5 125.5h-1.2v-1.3h1.2v1.3zm-.1 8.6h-1v-7.2h1v7.1zM250.1 133.6c-.5-.5-.6-1-.6-3.2s.2-2.7.6-3.2a1.9 1.9 0 0 1 1.5-.4h1.9a1.9 1.9 0 0 1 1.5.4c.5.5.6 1 .6 3.2s-.2 2.8-.6 3.2a1.9 1.9 0 0 1-1.5.4h-1.9a1.9 1.9 0 0 1-1.5-.4zm.7-.7a1.2 1.2 0 0 0 .9.2h1.7a1.1 1.1 0 0 0 .9-.2c.2-.2.3-.6.3-2.5s-.1-2.3-.3-2.5a1.1 1.1 0 0 0-.9-.2h-1.7a1.1 1.1 0 0 0-.9.2c-.2.2-.3.6-.3 2.5s.1 2.3.3 2.6zM257.7 134v-7.2h1v1a2.8 2.8 0 0 1 2.1-1h1.1a1.6 1.6 0 0 1 1.3.4 1.9 1.9 0 0 1 .4 1.4v5.4h-1v-5.4a1 1 0 0 0-.2-.8 1 1 0 0 0-.8-.2h-.9a3 3 0 0 0-1.8.6v5.8h-1zM270.7 133.7a1.4 1.4 0 0 1-1.1.3H267a1.6 1.6 0 0 1-1.2-.3c-.3-.3-.4-.6-.4-1.9h.9a1.7 1.7 0 0 0 .2 1.2.8.8 0 0 0 .6.2h2.2l.6-.2a1.3 1.3 0 0 0 .2-1 1.2 1.2 0 0 0-.2-.9.9.9 0 0 0-.7-.2l-2.3-.2a1.8 1.8 0 0 1-1.2-.4 2 2 0 0 1-.4-1.6 2.2 2.2 0 0 1 .4-1.7 1.4 1.4 0 0 1 1.1-.3h2.5a1.5 1.5 0 0 1 1.1.3c.3.3.4.6.4 1.8h-.9a1.6 1.6 0 0 0-.2-1.1l-.6-.2H267l-.6.2a1.2 1.2 0 0 0-.2.9 1.1 1.1 0 0 0 .2.9.9.9 0 0 0 .7.2l2.3.2a1.7 1.7 0 0 1 1.2.4 2.2 2.2 0 0 1 .4 1.6 2.2 2.2 0 0 1-.3 1.8z"/><path class="cls-7" d="M274.7 92.1h-1.6v-.5h3.8v.5h-1.6v4.4h-.6v-4.4zm3.3-.5h.6l1.9 3 1.9-3h.6v5h-.6v-4l-1.9 2.9h-.1l-1.9-2.9v4h-.6v-5z"/></svg>