<svg id="quote" xmlns="http://www.w3.org/2000/svg" viewBox="0 0 120 120"><defs><style>.cls-1{fill:none;}.cls-2{fill:#29b0bd;}</style></defs><title>assets</title><path class="cls-1" d="M0 0h120v120H0z"/><path class="cls-2" d="M36.8 55a9.8 9.8 0 0 0 9.2 8.3c-1.1 4.2-3.9 5.9-7.2 6.9a.4.4 0 0 0-.3.4l.5 3.3s.1.3.5.2C51.1 72.8 59 64 57.5 53.3 56.2 45.9 50.4 43 45 43.8A9.8 9.8 0 0 0 36.8 55zm36.9 8.3c-1.1 4.2-3.9 5.9-7.2 6.9a.4.4 0 0 0-.3.4l.5 3.3s.1.3.5.2c11.6-1.3 19.3-10.1 18-20.8-1.4-7.4-7.2-10.3-12.5-9.5A9.8 9.8 0 0 0 64.5 55a9.6 9.6 0 0 0 9.2 8.3z"/></svg>