<svg id="support-category-icon" xmlns="http://www.w3.org/2000/svg" viewBox="0 0 250 50"><defs><style>.cls-1{fill:none;}.cls-2,.cls-3{fill:#fff;}.cls-3{fill-rule:evenodd;}</style></defs><title>assets</title><path class="cls-1" d="M0 0h250v50H0z"/><path class="cls-2" d="M23.1 31.6a.4.4 0 0 0 .3.4h2.3a.5.5 0 0 0 .4-.4v-2.4h-3v2.4zM24.6 14.9a5.4 5.4 0 0 0-5.5 5.3v.6a.4.4 0 0 0 .5.4h1.9a.4.4 0 0 0 .4-.4v-.6a2.7 2.7 0 0 1 2.7-2.6 2.7 2.7 0 0 1 2.7 2.6 2.5 2.5 0 0 1-1.3 2.2 5.9 5.9 0 0 0-2.2 1.7 4 4 0 0 0-.6 1.3.6.6 0 0 0-.1.4v2.5c0 .3.2.3.4.3h2c.3 0 .6 0 .6-.3v-1.1a2.8 2.8 0 0 1 .6-1.8l.6-.6.4-.2a5.1 5.1 0 0 0 2.5-4.3 5.3 5.3 0 0 0-5.6-5.4zM131.9 14h-10.3l-4.6 4.7v13.1a1.2 1.2 0 0 0 1.1 1.2h13.7a1.2 1.2 0 0 0 1.1-1.2V15.2a1.2 1.2 0 0 0-1-1.2zm-9.9 2v3h-3zm10 16h-14V20h3.6a1.3 1.3 0 0 0 1.4-1v-4h9v17z"/><path class="cls-2" d="M120 24h10v-1h-10v1zM130 20h-5v1h5v-1zM120 27h10v-1h-10v1zM120 30h10v-1h-10v1zM238.9 19.2a6.9 6.9 0 0 0-5-2.2 6.7 6.7 0 0 0-4.7 1.9h-.4l-1.8-.2h-.2a2.2 2.2 0 0 0-1.8-.9 2.2 2.2 0 0 0-1.8.9h-.2l-1.8.2h-.4a6.7 6.7 0 0 0-4.7-1.9 6.9 6.9 0 0 0-5 2.2 7.8 7.8 0 0 0 0 10.6 6.9 6.9 0 0 0 9.9.2 7.5 7.5 0 0 0 2-3.3 2.5 2.5 0 0 1 4 0 7.5 7.5 0 0 0 2 3.3 6.9 6.9 0 0 0 9.9-.2 7.8 7.8 0 0 0 0-10.6zm-22.7 11.1a5.7 5.7 0 0 1-5.5-5.8 5.5 5.5 0 1 1 11.1 0 5.7 5.7 0 0 1-5.6 5.8zm17.7 0a5.7 5.7 0 0 1-5.5-5.8 5.5 5.5 0 1 1 11.1 0 5.7 5.7 0 0 1-5.6 5.8z"/><path class="cls-3" d="M180.2 12.2h-9a3 3 0 0 0-3 3v20a3 3 0 0 0 3 3h9a3 3 0 0 0 3-3v-20a3 3 0 0 0-3-3zm-4.5 25a1 1 0 1 1 1-1 1 1 0 0 1-1 1zm6.5-3h-13v-19h13v19z"/><rect class="cls-2" x="66" y="16.2" width="17" height="17" rx="8.5" ry="8.5"/></svg>