<svg id="industries" xmlns="http://www.w3.org/2000/svg" viewBox="0 0 750 150"><defs><style>.cls-1{fill:none;}.cls-2{fill:#cbeaf6;}.cls-3{fill:#105e7d;}.cls-4{fill:#fff;}</style></defs><title>assets</title><path class="cls-1" d="M0 0h750v150H0z"/><path class="cls-2" d="M135.8 12.2H22.1a8.1 8.1 0 0 0-8.1 8.1v89.3a8.1 8.1 0 0 0 8.1 8.1h24.4V138a3.9 3.9 0 0 0 .1.8v.3a4 4 0 0 0 .1.5l.3.7.5.6.6.5.7.3.5.2h.9l1.1-.2.9-.3 1-.7 23.2-23.2h59.2a8.1 8.1 0 0 0 8.1-8.1V20.3a8.1 8.1 0 0 0-8.1-8.1z"/><path class="cls-3" d="M129 9.6a3.8 3.8 0 0 1 3.8 3.8v89.3a3.8 3.8 0 0 1-3.8 3.8H68l-1.3 1.3-22.8 22.9v-24.1H15.3a3.8 3.8 0 0 1-3.8-3.8V13.5a3.9 3.9 0 0 1 3.8-3.8H129m0-4.3H15.3a8.1 8.1 0 0 0-8.1 8.1v89.3a8.1 8.1 0 0 0 8.1 8.1h24.4v20.3a3.9 3.9 0 0 0 .1.8v.3a4 4 0 0 0 .1.5l.3.7.5.6.6.5.7.3.5.2h.9l1.1-.2.9-.3 1-.7 23.2-23.2H129a8.1 8.1 0 0 0 8.1-8.1V13.5a8.1 8.1 0 0 0-8.1-8.2z"/><path class="cls-3" d="M67.1 85.6c0 .6.3 1.5.9 1.5h7.7a1.7 1.7 0 0 0 1.3-1.5v-8.3h-9.9v8.4zM72.1 27.6A18.5 18.5 0 0 0 53.6 46v1.9a1.5 1.5 0 0 0 1.6 1.5h6.3a1.3 1.3 0 0 0 1.5-1.5v-2a9.3 9.3 0 0 1 9.3-9.1 9.1 9.1 0 0 1 9.3 9 9 9 0 0 1-4.6 7.7c-.6.3-5.3 2.7-7.4 6.1a14.4 14.4 0 0 0-2.1 4.5 2.3 2.3 0 0 0-.3 1.3v8.9c0 1.1.5 1 1.4 1h6.6c.9 0 1.9.1 1.9-1v-4a10.1 10.1 0 0 1 1.9-6.4 15.8 15.8 0 0 1 2-2.2l1.3-.8a18 18 0 0 0 8.4-15.2 18.3 18.3 0 0 0-18.6-18.1z"/><path class="cls-2" d="M277.5 122.2H181a17.4 17.4 0 0 1-17.3-17.3V51.5A17.4 17.4 0 0 1 181 34.2h96.6a17.4 17.4 0 0 1 17.3 17.3v53.4a17.4 17.4 0 0 1-17.4 17.3z"/><path class="cls-4" d="M212.8 55.6v26.9L236.1 69z"/><path class="cls-3" d="M269.2 113.9h-96.6a17.4 17.4 0 0 1-17.3-17.3V43.2a17.4 17.4 0 0 1 17.3-17.3h96.6a17.4 17.4 0 0 1 17.3 17.3v53.3a17.4 17.4 0 0 1-17.3 17.4zM172.6 30a13.2 13.2 0 0 0-13.2 13.2v53.3a13.2 13.2 0 0 0 13.2 13.2h96.6a13.2 13.2 0 0 0 13.2-13.2V43.2A13.2 13.2 0 0 0 269.2 30h-96.6zm36 59.7V48.3L244.5 69zm4.2-34.2v27L236.1 69z"/><path class="cls-2" d="M441.7 31.6h-2.4v-7.7a2.8 2.8 0 0 0-2.7-2.8H408a2.8 2.8 0 0 0-2.7 2.8v7.6h-80.2a2.8 2.8 0 0 0-2.8 2.8v85.5a2.8 2.8 0 0 0 2.8 2.8h116.6a2.8 2.8 0 0 0 2.8-2.8V34.3a2.8 2.8 0 0 0-2.8-2.7z"/><path class="cls-3" d="M434 23.9h-2.4v-7.6a2.8 2.8 0 0 0-2.7-2.8h-28.5a2.8 2.8 0 0 0-2.7 2.8v7.6h-80.2a2.8 2.8 0 0 0-2.8 2.8v85.5a2.8 2.8 0 0 0 2.8 2.8H434a2.8 2.8 0 0 0 2.8-2.8V26.6a2.8 2.8 0 0 0-2.8-2.7zm-2.7 85.5H320.2v-80h80.1a2.8 2.8 0 0 0 2.8-2.8V19h23v7.6a2.7 2.7 0 0 0 2.7 2.8h2.4v80z"/><path class="cls-3" d="M389.1 14h-81.6a2.8 2.8 0 0 0-2.8 2.8v92h5.5V19.5h78.9V14z"/><path class="cls-2" d="M550.3 10.2H508a14.3 14.3 0 0 0-14.3 14.3v105.8a14.3 14.3 0 0 0 14.3 14.3h42.3a14.3 14.3 0 0 0 14.3-14.3V24.5a14.3 14.3 0 0 0-14.3-14.3z"/><path class="cls-4" d="M497.9 30.1H551v84.46h-53.1z"/><path class="cls-3" d="M545.1 8.7a10.6 10.6 0 0 1 10.6 10.6v105.8a10.6 10.6 0 0 1-10.6 10.6h-42.3a10.6 10.6 0 0 1-10.6-10.6V19.3a10.6 10.6 0 0 1 10.6-10.6h42.3m0-3.7h-42.3a14.3 14.3 0 0 0-14.3 14.3v105.8a14.3 14.3 0 0 0 14.3 14.3h42.3a14.3 14.3 0 0 0 14.3-14.3V19.3A14.3 14.3 0 0 0 545.1 5z"/><path class="cls-3" d="M523.9 133.3a7.2 7.2 0 1 1 7.2-7.2 7.2 7.2 0 0 1-7.2 7.2zm0-10.6a3.4 3.4 0 1 0 3.4 3.4 3.4 3.4 0 0 0-3.4-3.3zM552.2 116.4h-56.6V28h56.6v88.4zm-52.9-3.7h49.2V31.8h-49.2v80.9z"/><path class="cls-2" d="M638.1 97a22.7 22.7 0 1 1 22.7-22.7A22.7 22.7 0 0 1 638.1 97zm72.6 0a22.7 22.7 0 1 1 22.7-22.7A22.7 22.7 0 0 1 710.8 97z"/><path class="cls-3" d="M731.4 47.1a29.1 29.1 0 0 0-20.7-8.6 28.2 28.2 0 0 0-19.2 7.3 2.1 2.1 0 0 1-1.6.4l-7.2-.9-.9-.5a9.3 9.3 0 0 0-7.4-3.6h-.1a9.3 9.3 0 0 0-7.4 3.6l-.9.5-7.2.9a2.1 2.1 0 0 1-1.6-.4 28.2 28.2 0 0 0-19.2-7.3 29.1 29.1 0 1 0 28.2 37.8c.7-2.3 3.9-3.9 8.1-3.9s7.5 1.6 8.1 3.9a29.3 29.3 0 1 0 49-29.2zm-93.3 43.5a22.7 22.7 0 1 1 22.7-22.7 22.7 22.7 0 0 1-22.7 22.7zm72.6 0a22.7 22.7 0 1 1 22.7-22.7 22.7 22.7 0 0 1-22.6 22.7z"/></svg>